<svg width="72" height="72" viewBox="0 0 72 72" fill="none" xmlns="http://www.w3.org/2000/svg">
<g clip-path="url(#clip0_18_237)">
<path d="M71.4784 48.1968C71.9389 50.9627 72.2902 53.6679 71.6545 56.3818C71.2953 57.9155 71.0476 59.5215 70.3919 60.9272C69.6678 62.4795 68.5987 63.8882 67.5639 65.2725C66.0507 67.2968 64.0048 68.7413 61.8025 69.8911C59.7423 70.9666 57.5225 71.6027 55.1758 71.8879C52.876 72.1673 50.6415 71.8837 48.4196 71.4848C47.2443 71.2738 46.121 70.7162 45.0043 70.2435C42.8409 69.3277 41.0561 67.8311 39.412 66.212C37.7224 64.5479 36.3578 62.579 35.5482 60.3374C34.9516 58.6856 34.5972 56.9376 34.2344 55.2114C33.8381 53.3262 33.9814 51.4224 34.3877 49.5525C35.0212 46.6365 36.1108 43.9153 37.9326 41.5162C39.6331 39.2769 41.7356 37.4878 44.1902 36.1761C45.4496 35.5031 46.8868 35.162 48.2476 34.6824C50.2998 33.9591 52.4339 33.9443 54.5637 34.0442C55.3967 34.0833 56.2185 34.3518 57.0466 34.5093C58.9196 34.8654 60.6896 35.5344 62.3417 36.4589C63.4084 37.0559 64.4957 37.7177 65.348 38.5757C66.9037 40.1419 68.604 41.6226 69.5221 43.7229C70.1654 45.1946 70.8231 46.66 71.4784 48.1968Z" fill="#F2EFE8"/>
<path d="M2.5795 7.64968C3.78569 6.26742 4.92033 4.90499 6.14408 3.62892C6.624 3.12849 7.28962 2.79839 7.89453 2.43036C11.0527 0.508846 14.5056 -0.233398 18.1516 0.0630548C19.3717 0.162256 20.5713 0.597907 21.764 0.937678C23.7961 1.51662 25.5911 2.58902 27.1686 3.95823C28.225 4.87509 29.1793 5.95016 30.007 7.08176C30.6945 8.02165 31.1838 9.12307 31.6682 10.1953C33.1677 13.5139 33.3457 16.9773 32.4791 20.4691C32.11 21.9568 31.5965 23.4653 30.8363 24.7821C30.0506 26.1431 28.9465 27.3393 27.8729 28.5065C26.1871 30.3392 24.0286 31.4835 21.7121 32.2803C20.6217 32.6554 19.4488 32.9157 18.3017 32.9675C16.4284 33.0521 14.569 32.9879 12.6854 32.5797C10.2274 32.047 8.12242 30.9468 6.21444 29.4141C4.01288 27.6455 2.33802 25.4454 1.30857 22.7803C0.54998 20.8164 -0.030076 18.7928 0.00120802 16.6831C0.0276292 14.9014 0.204391 13.1103 0.96157 11.438C1.51888 10.207 2.01836 8.94966 2.5795 7.64968Z" fill="#F2EFE8"/>
<path d="M41.0091 13.8054C41.3528 12.6145 41.5899 11.372 42.0617 10.2432C43.1548 7.62845 44.9267 5.67031 47.3819 4.49228C48.3725 4.01701 49.361 3.46543 50.4056 3.21239C51.4188 2.96695 52.5024 3.05352 53.5556 3.00559C55.3331 2.92469 56.9083 3.73818 58.5071 4.38429C59.15 4.6441 59.7279 5.14505 60.2738 5.61846C62.6639 7.691 64.244 10.3227 64.8028 13.5945C65.1934 15.8808 64.9928 18.1166 64.2983 20.3403C63.4901 22.9279 61.9713 24.905 59.9914 26.4877C58.4307 27.7353 56.6232 28.4211 54.7083 28.8173C52.4098 29.293 50.2247 28.7858 48.1162 27.919C47.1751 27.5321 46.3695 26.7627 45.5034 26.1651C44.0843 25.186 43.1934 23.6994 42.3342 22.2118C41.9059 21.4703 41.6717 20.599 41.3807 19.6727C41.2171 17.8054 40.7774 16.0675 41.1388 14.2775C41.1672 14.1369 41.0556 13.9635 41.0091 13.8054Z" fill="#F2EFE8"/>
<path d="M23.5927 58.8363C21.4137 61.0844 18.8049 62.2174 15.7568 61.9654C12.9761 61.7355 10.6148 60.5117 8.92526 58.2052C6.4853 54.8743 6.31953 50.5799 8.68584 47.1378C10.5096 44.485 13.0983 42.9531 16.4287 43.0011C18.4658 43.0304 20.4055 43.6127 22.0056 44.8059C24.147 46.4029 25.4854 48.5638 25.9103 51.3256C26.2243 53.3669 25.6702 55.1574 24.9255 56.9385C24.6417 57.6175 24.0737 58.177 23.5927 58.8363Z" fill="#F2EFE8"/>
</g>
<defs>
<clipPath id="clip0_18_237">
<rect width="72" height="72" fill="white"/>
</clipPath>
</defs>
</svg>
