<svg width="160" height="128" viewBox="0 0 160 128" fill="none" xmlns="http://www.w3.org/2000/svg">
<path d="M17.2 110V12C17.2 8.8 18.4 6 20.8 3.6C23.2 1.2 26 0 29.2 0H147.2C148.9 0 150.325 0.578331 151.475 1.735C152.625 2.8918 153.2 4.32513 153.2 6.035C153.2 7.745 152.625 9.16667 151.475 10.3C150.325 11.4333 148.9 12 147.2 12H29.2V110H67C69.5 110 71.625 110.878 73.375 112.635C75.125 114.392 76 116.525 76 119.035C76 121.545 75.125 123.667 73.375 125.4C71.625 127.133 69.5 128 67 128H9C6.5 128 4.375 127.122 2.625 125.365C0.875 123.608 0 121.475 0 118.965C0 116.455 0.875 114.333 2.625 112.6C4.375 110.867 6.5 110 9 110H17.2ZM95.8 128C93.6667 128 91.8333 127.2 90.3 125.6C88.7667 124 88 121.867 88 119.2V31.8C88 29.6667 88.7667 27.8333 90.3 26.3C91.8333 24.7667 93.6667 24 95.8 24H150.2C152.867 24 155.167 24.7667 157.1 26.3C159.033 27.8333 160 29.6667 160 31.8V119.2C160 121.867 159.033 124 157.1 125.6C155.167 127.2 152.867 128 150.2 128H95.8ZM100 110H148V36H100V110Z" fill="#3CA3D2"/>
</svg>
