<svg width="160" height="128" viewBox="0 0 160 128" fill="none" xmlns="http://www.w3.org/2000/svg">
<path d="M12 128C8.8 128 6 126.8 3.6 124.4C1.2 122 0 119.2 0 116V12C0 8.8 1.2 6 3.6 3.6C6 1.2 8.8 0 12 0H148C151.2 0 154 1.2 156.4 3.6C158.8 6 160 8.8 160 12V116C160 119.2 158.8 122 156.4 124.4C154 126.8 151.2 128 148 128H12ZM12 116H148V28.8H12V116ZM56.2 72.4L39.6 55.8C38.4 54.6 37.8333 53.2 37.9 51.6C37.9667 50 38.6 48.6 39.8 47.4C41 46.2 42.4 45.6 44 45.6C45.6 45.6 47 46.2 48.2 47.4L69 68.2C70.2 69.4 70.8 70.8 70.8 72.4C70.8 74 70.2 75.4 69 76.6L48.2 97.4C47 98.6 45.6 99.2 44 99.2C42.4 99.2 41 98.6 39.8 97.4C38.6 96.2 38 94.8 38 93.2C38 91.6 38.6 90.2 39.8 89L56.2 72.4ZM88 102.4C86.2667 102.4 84.8333 101.833 83.7 100.7C82.5667 99.5667 82 98.1333 82 96.4C82 94.6667 82.5667 93.2333 83.7 92.1C84.8333 90.9667 86.2667 90.4 88 90.4H120C121.733 90.4 123.167 90.9667 124.3 92.1C125.433 93.2333 126 94.6667 126 96.4C126 98.1333 125.433 99.5667 124.3 100.7C123.167 101.833 121.733 102.4 120 102.4H88Z" fill="#3CA3D2"/>
</svg>
