<svg width="908" height="672" viewBox="0 0 908 672" fill="none" xmlns="http://www.w3.org/2000/svg">
<g clip-path="url(#clip0_16_476)">
<path d="M103.187 759.503C123.188 841.098 143.19 922.694 163.199 1004.32C629.268 890.069 1095.34 775.82 1561.79 661.477C1534.64 550.715 1507.48 439.924 1479.77 328.735C1471.17 329.26 1467.97 326.591 1468.82 318.821C1469.28 314.595 1467.99 313.91 1464.26 314.568C1457.97 315.676 1451.63 316.454 1444.99 317.416C1444.32 312.857 1443.11 310.295 1438.39 311.306C1436.08 311.802 1433.4 310.246 1430.87 310.19C1424.27 310.046 1422.57 306.266 1422.87 301.593C1429.48 299.971 1435.67 298.743 1441.66 296.89C1445.94 295.565 1449.13 295.718 1450.53 300.376C1453.12 299.741 1455.27 299.215 1458.52 298.419C1456.38 295.513 1455.1 291.877 1452.75 290.958C1447.29 288.819 1448.85 283.864 1450.24 282.127C1454.23 277.145 1451.25 273.905 1449.26 269.833C1448.17 267.594 1447.17 264.051 1448.19 262.289C1450.51 258.288 1447.74 256.329 1445.99 254.089C1444.02 251.56 1441.43 249.508 1438.83 246.979C1434.61 250.763 1429.6 248.083 1424.58 246.543C1403.53 240.077 1382.52 233.343 1359.98 237.81C1356.76 225.378 1332.98 224.571 1317.52 230.748C1319.59 234.013 1320.9 238.003 1323.66 239.996C1328.62 243.587 1334.16 247.013 1339.99 248.647C1349.64 251.354 1359.71 252.525 1369.57 254.508C1371.05 254.805 1372.35 256.001 1373.73 256.781C1370.07 258.915 1366.87 259.354 1363.93 260.487C1355.47 263.746 1348.26 262.708 1340.51 257.347C1333.71 252.643 1325.57 249.462 1316.63 250.739C1312.67 251.304 1310.01 250.123 1307.92 246.006C1304.11 238.523 1296.8 236.136 1288.88 234.716C1277.8 232.727 1266.87 229.882 1255.8 227.853C1250.9 226.957 1245.5 225.965 1240.87 227.151C1233.6 229.015 1227.42 228.829 1221.57 223.939C1217.66 220.676 1213.2 220.049 1208.52 222.06C1200.74 225.403 1193.29 222.96 1185.86 220.809C1182.88 219.946 1180.08 218.469 1177.12 217.5C1167.34 214.292 1157.54 210.997 1147 215.408C1147.09 216.77 1147.19 218.134 1147.29 219.497C1146.88 219.882 1146.46 220.267 1146.05 220.652C1143.47 218.66 1140.57 216.97 1138.42 214.594C1136.19 212.131 1134.19 210.657 1130.83 212.071C1129.66 212.566 1128.29 212.805 1127.01 212.799C1116.12 212.746 1105.24 212.609 1094.35 212.497C1094.47 206.723 1091.77 204.619 1085.18 205.871C1081.21 206.624 1077.14 207.272 1073.12 207.235C1055.06 207.067 1037.01 206.388 1018.95 206.425C1011.63 206.44 1003.96 204.784 997.02 209.01C993.772 210.988 990.33 212.649 986.86 214.516C986.889 221.27 991.941 225.127 996.051 229.445C1001.4 235.069 1007.59 237.581 1015.54 234.777C1017.72 234.007 1021 234.731 1023.19 235.892C1029.62 239.313 1035.76 243.292 1041.99 247.095C1042.14 247.187 1042 247.765 1041.98 248.116C1038.57 248.755 1035.13 250.07 1031.76 249.907C1021.27 249.4 1010.89 248.507 1000.6 252.011C996.286 253.481 991.53 253.76 986.942 254.301C980.698 255.037 974.691 254.667 968.908 251.397C966.673 250.133 963.286 249.975 960.672 250.515C955.765 251.528 951.038 253.415 945.749 255.093C945.611 258.536 947.695 261.554 951.499 262.729C956.005 264.121 958.109 266.973 960.237 271.052C962.331 275.065 961.429 283.2 970.025 280.647C970.584 282.925 971.047 284.813 971.309 285.885C960.757 291.2 952.546 283.836 942.975 280.679C943.311 283.283 943.534 285.007 943.783 286.936C938.139 287.839 932.911 288.675 927.269 289.578C928.513 292.402 929.437 294.501 930.763 297.516C926.597 297.994 923.185 298.577 919.752 298.748C904.047 299.53 888.313 299.884 872.635 301.006C860.722 301.859 848.849 303.323 837.65 297.793C831.657 294.834 825.936 291.323 818.843 287.364C809.474 291.996 799.263 290.878 789.664 283.214C788.407 282.21 785.492 283.259 783.347 283.396C778.083 283.732 771.638 286.166 767.815 283.986C760.885 280.034 755.8 283.264 750.23 285.231C743.882 287.472 737.97 288.444 732.401 283.631C728.938 280.639 725.683 277.343 721.928 274.78C719.861 273.371 716.992 272.827 714.412 272.54C707.783 271.804 700.969 272.12 694.491 270.76C682.206 268.182 670.225 264.033 657.885 261.871C649.24 260.356 640.184 261.119 632.257 266.029C625.706 270.086 619.29 274.361 611.911 279.122C612.669 280.357 614.08 283.016 615.842 285.417C617.429 287.579 619.401 289.458 621.204 291.462C620.847 291.828 620.491 292.194 620.134 292.56C624.044 293.225 627.953 293.889 631.82 294.547C632.522 296.497 633.195 298.367 634.06 300.77C636.241 299.635 637.979 298.662 639.775 297.813C642.99 296.293 651.225 298.654 650.827 301.185C649.853 307.379 654.872 307.912 658.062 310.128C661.239 312.334 664.673 314.17 668.154 316.264C660.412 318.162 653.473 319.813 646.56 321.569C636.123 324.22 625.676 325.412 614.864 323.744C610.676 323.098 605.183 322.814 602.103 324.967C597.317 328.313 593.58 327.316 588.874 326.091C584.262 324.89 579.37 324.767 573.627 324.049C574.149 329.602 574.521 333.551 574.95 338.102C572.847 338.335 570.686 338.412 568.597 338.839C564.415 339.695 559.738 339.854 556.254 341.948C552.328 344.306 551.169 342.93 549.809 338.723C544.758 340.983 540.098 343.068 535.031 345.335C537.752 349.536 540.32 351.757 543.998 350.1C555.355 344.983 565.228 347.552 574.349 355.235C575.186 355.94 576.42 356.185 577.227 356.913C578.331 357.907 579.202 359.159 580.356 360.517C572.384 364.235 565.123 362.36 559.066 359.597C546.985 354.085 535.986 355.621 524.887 361.487C525.406 363.605 525.964 365.882 526.424 367.76C539.487 367.745 552.314 366.639 562.125 377.297C562.901 378.14 564.358 378.382 565.525 378.832C570.656 380.809 572.074 384.507 569.671 389.611C566.978 395.332 562.547 398.787 556.25 399.368C557.656 408.851 557.53 412.075 566.722 410.633C576.407 409.113 586.051 407.321 595.747 405.877C612.095 403.441 628.287 404.827 644.102 409.266C648.806 410.587 653.472 413.339 657.192 416.551C661.839 420.565 666.096 423.836 672.751 423.047C681.821 421.971 689.197 425.023 693.781 433.456C695.345 436.333 697.384 438.969 698.764 441.922C700.758 446.187 703.42 447.13 707.958 445.685C713.607 443.886 719.299 441.041 725.179 446.508C728.3 449.41 729.1 452.091 728.279 455.69C727.405 459.52 724.903 462.475 720.9 461.918C710.275 460.439 699.494 459.174 689.26 456.17C684.199 454.685 680.104 454.244 674.571 456.493C682.191 464.99 691.996 466.339 701.936 467.304C703.607 475.277 699.076 478.998 692.371 480.495C679.056 483.468 666.155 480.977 653.947 475.129C649.809 473.146 645.339 470.912 649.281 463.799C642.046 462.943 635.689 462.19 628.942 461.392C628.768 460.248 628.533 458.698 628.072 455.661C635.825 455.902 642.879 456.062 649.928 456.359C655.922 456.612 661.909 457.023 668.599 457.404C666.659 450.982 662.962 449.015 658.76 449.746C652.548 450.827 649.548 446.987 646.61 443.077C644.355 440.075 642.837 436.519 640.778 432.826C639.141 433.595 637.576 434.766 635.868 435.039C632.58 435.565 628.069 437.069 626.082 435.542C618.844 429.98 611.699 429.9 603.612 432.793C598.696 434.552 593.501 435.716 588.335 436.541C583.387 437.331 577.943 438.36 573.99 434.05C570.455 430.195 566.749 429.678 562.087 431.427C558.075 432.933 555.087 431.905 553.351 427.441C551.712 423.228 550.109 418.626 547.177 415.384C543.462 411.276 545.066 408.247 547.565 405.174C549.201 403.162 551.685 401.84 553.766 400.226C546.766 390.435 510.519 386.571 492.144 393.462C492.059 398.335 495.567 400.189 499.272 399.83C505.553 399.222 508.533 402.623 511.113 407.29C512.155 409.174 513.324 410.987 514.388 412.753C535.782 409.064 536.378 409.073 538.169 411.459C537.009 415.009 535.245 417.607 535.559 419.923C537.111 431.366 542.636 434.614 553.188 435.576C553.24 439.372 553.293 443.213 553.351 447.386C562.145 445.035 567.633 449.921 573.588 453.587C576.463 455.357 579.558 456.767 582.554 458.34C582.896 457.846 583.238 457.352 583.579 456.858C585.038 462.809 586.497 468.76 587.99 474.851C583.146 476.226 580.023 475.636 578.754 470.052C578.232 467.751 575.956 464.716 573.888 464.142C569.869 463.028 565.434 463.417 561 463.174C560.525 461.236 560.037 459.244 559.524 457.152C558.029 456.9 556.476 456.984 555.273 456.376C549.994 453.709 547.129 456.755 543.506 460.127C537.52 465.701 531.082 470.986 524.129 475.239C520.745 477.308 519.401 479.117 519.484 482.705C519.671 490.794 521.246 498.332 526.359 505.001C527.234 506.143 526.246 510.642 525.368 510.886C519.669 512.47 513.651 512.913 507.959 514.515C503.829 515.678 502.654 513.103 501.153 510.646C500.323 509.287 499.952 507.647 499.291 505.919C495.791 507.361 492.61 508.671 489.482 509.959C490.497 525.894 489.998 526.842 477.513 532.89C479.28 535.98 479.28 535.98 489.048 537.261C488.874 544.433 493.736 547.912 499.441 550.904C503.743 553.159 507.9 555.713 511.983 558.349C513.185 559.125 513.917 560.632 514.968 561.933C510.405 563.873 506.792 565.409 502.787 567.112C519.677 574.683 535.958 581.981 552.388 589.346C552.668 592.365 552.982 595.764 553.312 599.336C551.089 599.88 549.096 600.803 547.111 600.784C535.653 600.672 524.231 600.593 513.188 604.422C512.641 604.612 511.654 603.533 510.872 603.045C511.598 602.398 512.227 601.387 513.067 601.161C518.289 599.756 523.559 598.526 528.805 597.24C527.044 590.678 524.559 589.179 518.903 590.355C512.732 591.637 506.529 593.383 500.297 593.581C493.836 593.786 487.323 592.381 480.833 591.678C478.041 591.376 475.25 591.068 472.459 590.763C472.306 591.346 472.152 591.928 471.999 592.511C475.626 596.274 479.254 600.037 482.881 603.8C482.503 604.538 482.124 605.275 481.745 606.012C474.337 605.003 466.928 603.995 459.086 602.927C461.737 617.421 461.05 618.534 472.725 620.01C472.234 622.317 471.761 624.541 471.287 626.765C471.942 629.053 472.58 631.672 471.813 633.781C470.41 637.639 466.994 636.531 464.254 635.458C462.62 634.818 461.404 633.179 459.881 632.169C457.364 630.499 455.265 630.021 454.117 633.887C453.371 636.399 451.899 638.695 450.948 640.679C451.939 643.608 452.849 646.3 454.269 650.501C450.111 649.769 447.132 649.773 444.611 648.7C437.362 645.612 430.223 644.724 422.648 647.511C418.976 648.862 415.025 649.453 411.203 650.396C404.351 652.086 404.351 652.089 406.668 658.855C409.075 659.176 411.612 658.974 413.659 659.88C422.743 663.9 431.628 668.369 440.719 672.37C443.04 673.392 445.841 673.516 448.443 673.657C452.049 673.853 455.681 673.533 459.291 673.691C463.802 673.89 468.306 674.303 472.802 674.737C473.741 674.827 474.732 675.262 475.531 675.793C480.686 679.218 485.405 683.662 491.009 685.96C499.222 689.328 506.528 695.591 516.894 693.109C525.452 691.06 530.426 696.874 529.417 705.74C519.282 708.942 519.323 708.873 510.352 703.6C505.875 700.969 501.322 698.411 496.6 696.269C493.501 694.864 490.04 693.496 486.738 693.487C482.177 693.474 477.625 694.86 473.042 695.418C471.839 695.565 470.355 695.156 469.305 694.507C464.108 691.297 459.432 687.728 452.355 689.823C448.091 691.085 443.41 690.341 439.208 686.697C432.557 680.93 425.056 677.981 415.584 681.478C409.669 683.662 403.04 681.878 398.272 677.119C395.223 674.076 392.127 673.526 388.243 674.543C369.397 679.48 350.193 681.693 330.739 681.677C317.912 681.666 305.16 680.905 293.11 675.798C290.273 674.596 287.383 672.266 284.623 672.414C279.889 672.667 275.236 674.464 272.062 675.242C270.964 679.356 271.009 683.022 269.2 684.925C267.258 686.967 263.6 687.426 260.645 688.44C257.19 689.626 254.328 700.244 257.419 701.347C261.992 702.979 267.378 703.186 272.265 702.634C274.05 702.433 275.394 698.332 277.667 694.917C278.757 695.666 281.137 696.835 282.901 698.616C286.024 701.77 289.256 703.921 293.994 703.734C304.706 703.31 314.172 706.678 322.051 714.07C323.04 714.998 324.382 716.526 324.179 717.484C323.962 718.509 322.178 719.777 320.962 719.914C316.435 720.424 311.661 721.462 307.35 720.551C299.695 718.932 293.118 720.514 287.161 724.962C283.425 727.753 279.776 727.217 275.663 726.57C271.63 725.935 267.203 725.221 263.405 726.241C256.258 728.161 249.813 727.946 242.971 724.963C239.691 723.533 235.526 724.133 231.338 723.778C232.436 730.106 233.432 734.445 239.215 735.812C240.291 736.066 241.258 739.279 241.247 741.121C241.226 744.8 240.493 748.475 239.895 753.488C236.954 751.706 233.868 749.838 230.783 747.969C230.864 747.339 230.946 746.709 231.027 746.079C229.245 747.307 226.049 748.462 225.982 749.777C225.851 752.371 226.689 756.492 228.476 757.442C235.137 760.986 242.362 763.464 249.334 766.437C250.714 767.026 251.912 768.037 253.195 768.854C252.95 769.778 252.706 770.703 252.462 771.628C244.7 771.598 236.899 772.054 229.186 771.43C215.583 770.329 202.088 765.259 188.388 770.982C187.339 771.42 185.783 771.176 184.636 770.765C174.213 767.034 163.865 767.758 153.709 771.516C146.792 774.076 140.328 772.845 133.948 770.11C130.383 768.582 127.069 766.476 123.521 764.903C117.044 762.031 110.719 758.445 103.187 759.503ZM547.182 537.164C547.24 538.634 547.947 540.625 547.252 541.491C541.989 548.047 548.381 546.875 551.375 547.96C552.913 548.518 554.456 549.065 557.104 550.014C542.126 556.729 539.049 557.04 528.844 553.536C519.511 550.332 510.829 545.23 501.872 540.941C501.585 540.804 501.323 540.443 501.217 540.13C499.587 535.294 497.985 530.449 495.833 523.968C499.827 525.794 502.39 526.985 504.969 528.139C506.664 528.897 509.582 530.58 509.907 530.181C514.014 525.138 517.555 529.689 520.36 531.22C528.874 535.867 537.356 539.165 547.182 537.164ZM594.442 381.895C600.059 382.383 604.939 384.27 609.107 388.342C612.72 391.871 618.726 392.56 621.738 397.853C617.969 398.218 614.944 399.209 612.239 398.648C602.139 396.556 592.118 394.054 582.147 391.402C581.051 391.11 579.743 388.793 579.856 387.534C579.98 386.146 581.41 384.079 582.66 383.741C586.17 382.792 589.88 382.58 594.442 381.895ZM589.336 493.567C585.629 499.609 579.831 501.753 572.948 502.746C572.895 501.357 572.621 500.387 572.863 499.571C575.375 491.084 572.531 485.031 564.949 480.66C562.418 479.202 560.47 476.733 557.245 473.811C568.151 473.377 575.96 477.895 583.795 482.142C584.626 482.592 585.288 484.687 584.973 485.686C583.689 489.757 586.149 491.287 589.336 493.567ZM627.249 337.111C634.036 339.667 640.694 342.676 647.648 344.639C653.606 346.321 654.689 349.493 652.934 354.384C647.539 357.019 642.608 357.479 638.112 353.08C637.406 352.389 635.994 352.484 635.091 351.922C629.534 348.465 622.631 346.323 620.931 338.326C623.079 337.799 624.697 337.403 627.249 337.111ZM616.722 364.219C620.888 366.114 625.158 367.816 629.172 369.992C631.013 370.989 632.35 372.917 633.915 374.423C633.589 374.97 633.263 375.517 632.937 376.064C631.394 376.038 629.733 376.379 628.326 375.928C616.884 372.267 605.465 368.529 594.118 364.585C592.955 364.181 592.312 362.282 591.085 360.609C600.659 358.157 608.461 360.062 616.722 364.219ZM1480.42 348.905C1481.72 349.336 1483.96 349.502 1484.17 350.24C1486.18 357.388 1487.86 364.632 1489.6 371.737C1485.17 372.821 1481.45 373.733 1477.63 374.671C1474.86 365.646 1476.32 357.345 1480.42 348.905ZM464.894 649.993C473.135 651.435 481.351 653.055 489.629 654.241C493.402 654.781 494.409 656.63 494.162 660.619C490.878 660.901 487.59 662.015 484.814 661.256C477.845 659.351 471.077 656.675 464.334 654.039C463.808 653.833 464.099 651.535 464.894 649.993ZM260.169 750.043C257.489 747.804 254.809 745.566 252.002 743.221C261.353 739.754 270.761 744.659 271.164 752.966C267.196 754.44 263.619 754.217 260.169 750.043ZM513.305 632.776C515.813 635.318 521.984 634.796 520.452 640.967C504.355 640.975 504.355 640.975 504.962 631.8C507.463 632.058 509.959 632.316 513.305 632.776ZM609.339 350.394C613.66 350.308 617.98 350.221 622.301 350.135C622.659 350.516 623.018 350.898 623.376 351.28C622.273 352.394 621.342 354.129 620.031 354.494C617.262 355.264 614.303 355.437 611.406 355.645C601.023 356.389 600.819 356.005 600.476 345.687C602.33 347.007 603.549 347.971 604.864 348.781C605.994 349.478 607.232 349.999 609.339 350.394ZM1459.59 348.937C1461.61 344.902 1463.31 340.411 1469.57 341.994C1469.93 343.487 1470.77 345.129 1470.64 346.69C1470.32 350.462 1469.76 354.386 1464.84 355.012C1460.89 355.514 1458.93 353.711 1459.59 348.937ZM279.88 757.34C280.559 756.272 281.166 754.351 281.929 754.287C284.744 754.054 287.61 754.434 290.516 754.587C291.091 756.932 291.635 759.154 292.203 761.469C287.895 760.715 282.727 764.251 279.88 757.34ZM583.106 341.736C581.571 340.627 580.035 339.517 577.426 337.632C581.223 336.701 583.119 336.236 587.036 335.276C585.626 338.218 584.837 339.865 583.106 341.736Z" fill="#3CA3D2"/>
<path d="M175.471 667.63C181.393 668.901 186.848 670.382 192.358 671.617C195.769 672.381 199.264 672.771 204.291 673.582C202.013 666.845 200.522 661.721 198.471 656.832C197.895 655.457 195.439 653.74 194.267 654.01C192.513 654.414 191.132 656.437 188.517 658.704C177.783 662.102 164.06 661.968 153.834 671.869C152.514 673.148 149.493 673.198 147.344 672.981C143.048 672.546 138.81 671.531 133.969 670.65C131.78 665.659 125.609 662.791 116.808 663.667C117.475 666.387 118.128 669.052 118.688 671.334C115.693 673.303 112.915 674.696 110.754 676.743C109.745 677.699 109.471 679.998 109.739 681.537C109.913 682.539 111.748 684.092 112.693 683.994C125.126 682.701 137.527 681.119 149.946 679.688C158.734 678.676 165.804 674.175 172.537 668.894C173.238 668.344 174.19 668.115 175.471 667.63Z" fill="#3CA3D2"/>
<path d="M869.153 271.665C866.408 271.743 864.015 271.791 861.746 272.347C857.992 273.266 857.329 275.795 858.923 279.073C859.451 280.159 860.176 281.149 861.713 283.651C854.128 282.697 847.902 281.913 841.4 281.095C842.523 290.044 844.033 290.994 851.387 291.213C860.466 291.483 869.515 292.803 878.594 293.053C883.637 293.192 888.714 292.077 893.619 291.545C893.919 286.971 892.5 285.081 888.614 285.358C884.979 285.616 883.146 284.006 881.98 280.265C881.266 277.975 878.375 276.145 876.115 274.622C874.186 273.321 871.764 272.754 869.153 271.665Z" fill="#3CA3D2"/>
<path d="M382.598 526.512C375.391 528.247 368.688 529.89 361.766 531.587C361.363 536.91 364.593 539.591 368.656 541.065C372.589 542.493 376.729 543.701 379.403 538.204C381.03 534.86 386.381 533.463 384.682 528.305C384.444 527.582 383.642 527.044 382.598 526.512Z" fill="#3CA3D2"/>
<path d="M171.496 603.653C175.87 604.393 179.775 605.29 183.718 605.956C185.886 606.322 188.12 606.297 191.651 606.539C187.026 599.409 180.313 598.977 175.078 596.027C168.617 592.387 163.529 595.464 157.827 598.255C158.247 599.968 158.712 601.865 159.116 603.512C163.146 603.58 167.095 603.647 171.496 603.653Z" fill="#3CA3D2"/>
<path d="M158.604 519.762C163.771 518.948 164.115 516.221 161.162 513.305C159.047 511.217 156.184 509.612 153.367 508.567C146.853 506.151 140.17 503.923 132.251 508.873C136.337 510.875 139.728 512.766 143.295 514.227C148.182 516.229 153.203 517.903 158.604 519.762Z" fill="#3CA3D2"/>
<path d="M635.242 220.077C635.43 221.688 635.691 224.025 636.771 224.501C642.629 227.079 648.6 229.486 654.712 231.37C658.503 232.538 662.612 232.673 666.579 233.272C666.921 232.314 667.263 231.356 667.606 230.399C663.742 228.405 659.917 226.333 656.004 224.443C652.475 222.738 648.976 220.711 645.228 219.808C642.234 219.087 638.884 219.843 635.242 220.077Z" fill="#3CA3D2"/>
<path d="M418.269 611.296C422.425 611.89 426.168 612.36 429.911 612.829C430.33 612.301 430.75 611.772 431.169 611.244C429.51 608.908 428.159 604.93 426.133 604.549C420.402 603.474 414.277 601.084 408.51 604.003C408.281 604.81 408.051 605.617 407.822 606.424C411.167 608.006 414.511 609.588 418.269 611.296Z" fill="#3CA3D2"/>
<path d="M580.732 315.302C585.175 319.285 589.621 318.272 594.388 316.776C593.498 313.144 592.676 309.794 591.804 306.236C586.705 306.91 581.853 307.551 575.44 308.398C577.614 311.292 579.006 313.146 580.732 315.302Z" fill="#3CA3D2"/>
<path d="M216.652 603.013C219.229 605.355 221.494 607.992 224.336 609C230.196 611.078 236.364 612.287 242.406 613.854C242.65 613.257 242.895 612.66 243.139 612.063C241.188 610.31 239.516 607.87 237.23 606.939C231.675 604.676 225.864 603.013 220.081 601.37C219.112 601.095 217.77 602.137 216.652 603.013Z" fill="#3CA3D2"/>
<path d="M460.325 552.896C460.816 556.944 462.582 558.079 466.135 557.029C470.563 555.72 475.1 554.778 479.556 553.686C478.639 547.422 475.215 544.85 469.99 546.876C466.546 548.212 463.485 550.535 460.325 552.896Z" fill="#3CA3D2"/>
<path d="M411.794 547.004C415.442 546.735 418.851 546.754 421.832 545.633C424.396 544.67 424.938 542.392 422.237 540.301C416.584 535.924 414.008 536.007 405.477 541.756C407.616 543.585 409.494 545.191 411.794 547.004Z" fill="#3CA3D2"/>
<path d="M380.827 550.337C381.98 551.462 383.189 552.858 383.948 552.645C387.411 551.675 390.749 550.254 394.2 548.969C389.706 542.97 387.108 542.327 378.378 545.292C379.169 546.866 379.922 548.367 380.827 550.337Z" fill="#3CA3D2"/>
<path d="M288.088 600.616C292.563 599.21 297.865 601.806 301.032 596.365C296.525 593.846 292.311 591.748 287.435 593.916C285.948 594.577 284.848 596.107 283.571 597.239C284.921 598.402 286.272 599.564 288.088 600.616Z" fill="#3CA3D2"/>
<path d="M133.881 655.541C134.894 654.063 135.524 652.874 136.154 651.685C135.935 651.263 135.715 650.841 135.496 650.418C127.71 655.056 121.21 651.825 114.685 646.874C115.74 654.52 124.447 658.221 133.881 655.541Z" fill="#3CA3D2"/>
<path d="M275.579 287.545C279.125 294.878 284.734 296.107 290.736 290.932C286.531 286.533 281.862 284.599 275.579 287.545Z" fill="#3CA3D2"/>
<path d="M514.209 494.337C508.118 489.702 508.118 489.702 502.488 491.638C504.204 497.057 509.101 499.126 515.506 497.093C515.118 496.306 514.733 495.527 514.209 494.337Z" fill="#3CA3D2"/>
<path d="M192.145 678.574C189.174 672.226 184.797 674.38 180.487 675.907C182.464 682.857 185.344 683.602 192.145 678.574Z" fill="#3CA3D2"/>
<path d="M909.253 283.112C906.017 277.028 902.458 281.877 898.614 281.781C900.73 285.133 900.802 289.756 906.378 288.057C908.878 287.294 911.314 286.982 909.253 283.112Z" fill="#3CA3D2"/>
<path d="M835.766 278.653C840.238 277.557 844.197 276.586 848.931 275.426C846.369 270.96 842.981 272.389 840.035 273.103C837.948 273.61 835.94 274.615 834.039 275.657C832.85 276.308 831.924 277.44 830.879 278.356C832.337 278.497 833.795 278.638 835.766 278.653Z" fill="#3CA3D2"/>
<path d="M395.003 616.121C397.253 615.574 399.025 615.14 400.756 614.716C399.643 608.236 398.449 607.816 388.784 611.313C391.089 613.288 392.807 614.761 395.003 616.121Z" fill="#3CA3D2"/>
<path d="M435.867 633.984C429.068 634.982 431.657 638.843 432.587 642.532C435.021 641.935 437.264 641.385 440.547 640.581C439.017 638.152 437.681 636.033 435.867 633.984Z" fill="#3CA3D2"/>
<path d="M300.803 299.71C302.85 299.209 304.418 298.824 305.986 298.44C306.128 297.837 306.27 297.235 306.412 296.632C302.987 295.319 299.562 294.006 296.137 292.694C295.853 293.28 295.57 293.866 295.286 294.453C296.127 296.959 294.321 301.723 300.803 299.71Z" fill="#3CA3D2"/>
<path d="M903.506 270.548C905.59 273.647 906.693 278.724 913.537 275.075C909.715 273.169 906.739 271.685 903.506 270.548Z" fill="#3CA3D2"/>
</g>
<defs>
<clipPath id="clip0_16_476">
<rect width="1440" height="682" fill="white" transform="matrix(0.971244 -0.238084 -0.238084 -0.971244 162.381 1005.71)"/>
</clipPath>
</defs>
</svg>
