<?xml version="1.0" encoding="utf-8"?>
<!-- Generator: Adobe Illustrator 26.4.1, SVG Export Plug-In . SVG Version: 6.00 Build 0)  -->
<svg version="1.1" id="Слой_1" xmlns="http://www.w3.org/2000/svg" xmlns:xlink="http://www.w3.org/1999/xlink" x="0px" y="0px"
	 viewBox="0 0 682 1440" style="enable-background:new 0 0 682 1440;" xml:space="preserve">
<style type="text/css">
	.st0{clip-path:url(#SVGID_00000065043857467778303260000011863534154212802722_);}
	.st1{fill:#FF5518;}
</style>
<g>
	<defs>
		<rect id="SVGID_1_" x="0" y="0" width="682" height="1440"/>
	</defs>
	<clipPath id="SVGID_00000141423319008609997360000010585128572511875747_">
		<use xlink:href="#SVGID_1_"  style="overflow:visible;"/>
	</clipPath>
	<g style="clip-path:url(#SVGID_00000141423319008609997360000010585128572511875747_);">
		<path class="st1" d="M115.8,1432.1c-84,0-31.8,5.6-115.8,5.6C0,957.9,0,481.7,0,1.4c114,0,45.4,12.7,160,13.1
			c1.5,8.5,160.9-4.6,168.2-7.3c4-1.5,19.6,10.2,19.8,13.9c0.4,6.4,13.3,5.1,14,11.8c4.6-0.4,7.4,0.1,7.5,5c0.1,2.4,2.2,4.6,2.9,7
			c1.7,6.4,5.8,7.1,10.3,5.7c0-6.8-0.3-13.1,0.1-19.4c0.3-4.5-0.6-7.5-5.5-7.8c0-2.7,0-4.9,0-8.2c3.3,1.4,7.2,1.8,8.6,3.8
			c3.4,4.8,7.8,2.1,9.2,0.3c3.9-5.1,7.7-2.9,12.2-2c2.4,0.5,6.1,0.7,7.6-0.8c3.3-3.2,5.9-1,8.5,0.2c2.9,1.3,5.5,3.3,8.6,5.3
			c-2.7,5,1.1,9.2,3.8,13.7c11.3,18.9,22.8,37.7,23.9,60.7c12.8,0.2,19.3,23.1,17,39.6c-3.7-1.2-7.9-1.6-10.4-3.8
			c-4.7-4-9.3-8.5-12.3-13.8c-4.9-8.7-8.5-18.2-12.7-27.3c-0.6-1.4-2.1-2.3-3.2-3.5c-1.2,4.1-0.9,7.3-1.3,10.4
			c-1.2,9,1.6,15.7,8.6,22c6.2,5.5,11.2,12.6,12.1,21.6c0.4,4,2.2,6.3,6.7,7.3c8.2,1.9,12.2,8.4,15.5,15.8
			c4.6,10.3,9.9,20.2,14.5,30.5c2,4.5,4.3,9.6,4.2,14.3c-0.1,7.5,1.6,13.5,7.7,18c4.1,3,5.8,7.2,4.9,12.2c-1.4,8.4,2.8,15,6.6,21.7
			c1.5,2.7,3.6,5.1,5.3,7.7c5.4,8.7,11,17.5,9.2,28.8c-1.3,0.2-2.7,0.5-4,0.7c-0.3,0.5-0.6,1-0.8,1.5c2.5,2,4.9,4.4,7.7,6
			c2.9,1.6,4.8,3.2,4.3,6.8c-0.2,1.3-0.1,2.6,0.2,3.9c2.6,10.6,5.4,21.1,8.1,31.6c5.6-1.5,8.3,0.6,8.6,7.3c0.2,4,0.6,8.1,1.5,12
			c4.5,17.5,9.4,34.9,13.7,52.4c1.7,7.1,5.2,14.2,2.7,21.9c-1.1,3.6-1.9,7.4-2.9,11.2c-6.6,1.6-11.5-2.4-16.7-5.4
			c-6.7-3.9-10.6-9.3-9.8-17.7c0.2-2.3-1.3-5.3-2.9-7.2c-4.9-5.4-10.2-10.5-15.4-15.6c-0.1-0.1-0.7,0.2-1,0.3
			c0.2,3.5-0.3,7.1,0.7,10.4c3,10.1,6.3,19.9,5.4,30.8c-0.4,4.5,0.5,9.2,1,13.8c0.8,6.2,2.6,12,7.1,16.8c1.8,1.9,2.7,5.1,2.8,7.8
			c0.2,5-0.5,10-0.9,15.6c-3.3,1-6.7-0.4-8.8-3.8c-2.4-4-5.7-5.4-10.2-6.5c-4.4-1.1-12.1,1.7-11.6-7.2c-2.3,0-4.3,0-5.4,0
			c-2.6,11.5,6.5,17.7,11.8,26.3c-2.6,0.3-4.3,0.5-6.3,0.7c0.5,5.7,0.9,11,1.4,16.7c-3-0.5-5.3-0.9-8.5-1.5c0.5,4.2,0.8,7.6,1.4,11
			c3,15.4,6.4,30.8,9,46.3c2,11.8,3.4,23.7,11.5,33.2c4.3,5.1,9.1,9.8,14.6,15.8c-2.3,10.2,1.2,19.9,11,27.4c1.3,1,1,4.1,1.3,6.2
			c0.9,5.2,0.1,12,3.1,15.2c5.5,5.8,3.6,11.5,3,17.4c-0.7,6.7-0.2,12.7,5.8,16.9c3.7,2.7,7.7,5,11.1,8.1c1.9,1.7,3.1,4.3,4,6.8
			c2.3,6.3,3.6,13,6.5,18.9c5.4,11.3,12.3,22,17.4,33.4c3.5,8,4.9,17,2.1,25.9c-2.4,7.3-5,14.6-7.9,22.9c-1.4-0.4-4.3-1.2-7-2.3
			c-2.5-1-4.8-2.5-7.1-3.8c-0.3,0.4-0.5,0.9-0.8,1.3c-1.6-3.6-3.2-7.3-4.7-10.9c-2.1-0.2-4-0.4-6.6-0.7c0.6-2.4,1.1-4.3,1.5-6.3
			c0.7-3.5-3.5-10.9-5.9-9.9c-5.8,2.4-7.5-2.3-10.4-4.9c-2.9-2.6-5.5-5.5-8.4-8.3c0,8,0,15.1,0,22.2c-0.1,10.8,1.2,21.2,5.4,31.3
			c1.6,3.9,3.2,9.2,1.8,12.7c-2.1,5.4-0.3,8.8,2.1,13.1c2.3,4.2,3.5,8.9,5.6,14.3c-5.5,0.8-9.4,1.4-14,2.1c0.3,2.1,0.7,4.2,0.8,6.3
			c0.2,4.3,1.1,8.8-0.1,12.7c-1.4,4.4,0.3,5.2,4.7,5.5c-1,5.4-1.9,10.5-2.9,15.9c-4.7-1.6-7.5-3.6-6.8-7.6
			c2.3-12.2-2.6-21.2-12.2-28.3c-0.9-0.6-1.4-1.8-2.3-2.4c-1.2-0.8-2.7-1.4-4.2-2.2c-1.7,8.6,1.8,15.2,6,20.5
			c8.2,10.4,9.4,21.5,6.3,33.6c-2.2,0-4.5,0-6.5,0c-3.1-12.7-5.1-25.4-17.8-32.4c-1-0.6-1.6-1.9-2.3-2.9c-3.1-4.5-7.1-5-11.5-1.5
			c-4.9,4-7.2,9.1-6.3,15.4c-9.5,0.9-12.6,1.8-13.4-7.5c-0.8-9.8-1.4-19.6-2.3-29.3c-1.5-16.5-6.7-31.9-14.8-46.2
			c-2.4-4.3-6.2-8.1-10.2-11c-5-3.6-9.2-6.9-10-13.6c-1.1-9.1-5.8-15.5-15.1-17.9c-3.2-0.8-6.2-2.2-9.4-2.8c-4.6-0.9-6.2-3.3-5.8-8
			c0.4-5.9,1.8-12.1-4.9-16.5c-3.6-2.3-6.4-2.5-9.7-0.8c-3.5,1.8-5.8,4.9-4.3,8.6c4,10,7.8,20.1,13.1,29.4c2.6,4.6,4.1,8.4,3.2,14.3
			c-10.1-5.4-13.7-14.6-17-24c-8.1,0.3-10.7,5.6-10.5,12.4c0.3,13.6,5.8,25.6,14.4,36c2.9,3.5,6.1,7.4,12.1,1.8
			c2.6,6.8,4.8,12.8,7.2,19.2c1.2-0.1,2.7-0.2,5.8-0.5c-2.1-7.5-3.9-14.3-5.9-21.1c-1.7-5.8-3.5-11.5-5.5-17.9
			c6.7,0.4,9.5,3.5,9.8,7.7c0.4,6.3,4.9,8.3,9.4,10.2c3.5,1.5,7.3,2.1,11.3,3.2c-0.4,1.8-1.1,3.6-1,5.3c0.3,3.3-0.1,8.1,1.8,9.6
			c7.1,5.7,8.9,12.6,8,21.2c-0.5,5.2-0.4,10.5,0,15.7c0.4,5,0.7,10.5,5.8,13.3c4.6,2.5,6,6,5.4,10.9c-0.5,4.3,1.2,6.9,6,7.5
			c4.5,0.6,9.3,1,13.2,3.1c4.9,2.6,7.4,0.4,9.8-2.8c1.6-2.1,2.3-4.8,3.3-7.2c11.2,4.5,23.6,38.8,21.2,58.2c-4.7,1.2-7.3-1.7-7.9-5.4
			c-0.9-6.2-4.9-8.3-10.1-9.7c-2.1-0.6-4.1-1.3-6.1-1.9c-1.5-21.7-1.7-22.2-4.4-23.4c-3.2,2-5.3,4.3-7.6,4.5
			c-11.5,1.2-16-3.4-19.4-13.4c-3.7,0.9-7.4,1.7-11.5,2.7c0.2-9.1-5.9-13.3-10.8-18.2c-2.4-2.4-4.5-5-6.8-7.6
			c0.4-0.5,0.8-0.9,1.2-1.3c-6.1,0-12.3,0-18.5,0c-0.2,5,1.1,7.9,6.9,7.8c2.4,0,5.8,1.4,6.9,3.3c2,3.6,2.7,8,4,12.3c2,0,4,0,6.2,0
			c0.6,1.4,0.9,2.9,1.8,3.9c3.8,4.5,1.6,8-0.8,12.3c-4,7.1-7.6,14.7-10.1,22.4c-1.2,3.8-2.6,5.5-6.1,6.3c-7.9,1.7-15.6,2-23.3-1.4
			c-1.3-0.6-5.5,1.5-5.5,2.4c-0.2,5.9,0.8,11.9,0.6,17.8c-0.1,4.3,2.6,4.8,5.4,5.7c1.5,0.5,3.2,0.5,5,0.7c-0.6,3.7-1.1,7.1-1.6,10.5
			c-15.7,2.8-16.5,3.5-19.4,17.1c-3.4-1-3.4-1-7-10.2c-6.9,1.9-11.5-2-15.7-6.9c-3.2-3.6-6.7-7.1-10.2-10.4c-1-1-2.7-1.3-4.2-2
			c-0.8,4.9-1.4,8.8-2.1,13.1c-11.4-14.6-22.3-28.7-33.4-42.9c-3,0.4-6.4,1-9.9,1.5c0,2.3-0.4,4.4,0.1,6.4
			c2.8,11.1,5.6,22.2,4.5,33.8c-0.1,0.6,1.2,1.3,1.9,1.9c0.5-0.9,1.3-1.7,1.3-2.6c0.1-5.4,0.1-10.8,0.1-16.2c6.8,0.1,8.8,2.2,9,8
			c0.2,6.3,0,12.7,1.3,18.8c1.3,6.3,4.3,12.3,6.5,18.5c1,2.6,1.9,5.3,2.9,7.9c-0.5,0.3-1.1,0.6-1.6,0.9c-4.5-2.6-9-5.2-13.6-7.9
			c-0.6,0.5-1.3,1.1-1.9,1.6c2.7,6.9,5.5,13.9,8.4,21.3c-14.7,0.9-15.6,1.8-19.8-9.2c-2.1,1-4.2,2-6.2,3c-2.4-0.1-5.1-0.1-6.9,1.2
			c-3.4,2.3-1.5,5.3,0.2,7.7c1,1.4,2.9,2.2,4.2,3.5c2.2,2.1,3.2,4-0.3,6c-2.3,1.3-4.1,3.3-5.8,4.7c-3.1-0.3-5.9-0.5-10.3-0.9
			c1.7,3.9,2.4,6.8,4,9c4.7,6.3,7.3,13,6.4,21c-0.4,3.9-0.1,7.9-0.1,11.8c0,7.1,0,7.1-7.1,6.4c-0.9-2.3-1.3-4.8-2.7-6.6
			c-6.1-7.9-12.5-15.4-18.6-23.3c-1.5-2-2.3-4.7-3.1-7.2c-1-3.5-1.6-7.1-2.6-10.5c-1.3-4.3-2.7-8.6-4.2-12.9c-0.3-0.9-1-1.8-1.7-2.4
			c-4.6-4.2-10-7.7-13.6-12.6c-5.2-7.2-13-12.8-13.1-23.4c0-8.8-6.9-12.2-15.2-9.2c-0.7,10.6-0.6,10.6,6.6,18
			c3.6,3.7,7.2,7.5,10.4,11.6c2.1,2.7,4.3,5.7,5.1,8.9c1.1,4.4,0.8,9.2,1.4,13.8c0.1,1.2,0.9,2.5,1.8,3.4c4.4,4.3,8.9,8,8.6,15.3
			c-0.2,4.4,1.6,8.8,6.2,12c7.2,5.1,11.8,11.7,10.7,21.7c-0.7,6.3,2.6,12.3,8.4,15.8c3.7,2.2,5,5.1,4.9,9.1
			c-0.3,19.5,2.1,38.7,6.8,57.5c3.1,12.5,6.8,24.7,14.7,35.1c1.8,2.5,4.8,4.7,5.3,7.4c0.9,4.7,0.2,9.6,0.2,12.9
			c-3.7,2-7.3,2.9-8.7,5.1c-1.5,2.4-1.1,6-1.4,9.2c-0.3,3.6-10,8.9-11.8,6.2c-2.7-4-4.2-9.2-4.8-14.1c-0.2-1.8,3.4-4.1,6.2-7.1
			c-1-0.9-2.7-2.9-4.8-4.2c-3.8-2.3-6.7-4.9-7.6-9.5c-2.1-10.5-7.7-18.9-16.7-24.8c-1.1-0.7-2.9-1.7-3.8-1.3
			c-0.9,0.5-1.8,2.5-1.6,3.7c0.6,4.5,0.7,9.4,2.6,13.4c3.4,7,3.4,13.8,0.5,20.7c-1.8,4.3-0.4,7.7,1.2,11.6c1.6,3.8,3.3,7.9,3.2,11.8
			c-0.2,7.4,1.6,13.6,6.1,19.6c2.2,2.8,2.6,7,3.9,11c-6.4,0.4-10.9,0.5-13.6-4.8c-0.5-1-3.9-1.2-5.6-0.7c-3.6,0.9-7,2.5-11.7,4.3
			c2.4,2.4,5,5,7.5,7.5c0.6-0.2,1.2-0.5,1.8-0.7c-0.8,2-1.1,5.4-2.4,5.8c-2.5,0.8-6.7,0.9-8-0.6c-5-5.6-9.2-12.1-13.7-18.1
			c-0.9-1.2-2.2-2.1-3.3-3.2c-0.8,0.4-1.7,0.9-2.5,1.4c1.9,7.5,3.3,15.2,5.7,22.6c4.3,13,12.4,24.8,10.1,39.5
			c-0.2,1.1,0.4,2.6,1.1,3.6c6.1,9.2,7.9,19.5,6.6,30.2c-0.8,7.3-7.2,10-3,15.5c2.3,3.1-4.5,9.3-2.1,12.4
			C227.6,1428.7,115.1,1424.6,115.8,1432.1z M363.5,954.7c-1.4,0.3-3.5,0.1-4.2,1c-5.1,6.7-5.5,0.2-7.3-2.5
			c-0.9-1.4-1.8-2.7-3.4-5.1c-3,16.1-2.5,19.2,3.3,28.3c5.3,8.3,12.4,15.5,18.7,23.2c0.2,0.2,0.6,0.4,0.9,0.4
			c5.1,0.4,10.2,0.8,17,1.4c-2.7-3.4-4.5-5.6-6.2-7.9c-1.1-1.5-3.5-3.9-3.2-4.3c3.9-5.2-1.3-7.5-3.5-9.9
			C369.1,972.2,363.9,964.7,363.5,954.7z M503,871.8c-1.8-5.3-4.8-9.6-9.8-12.7c-4.3-2.7-6.4-8.3-12.2-10c0.5,3.7,0.3,6.9,1.5,9.4
			c4.4,9.3,9.3,18.4,14.2,27.5c0.5,1,3.1,1.7,4.3,1.3c1.3-0.5,3-2.3,3-3.6C504.1,880.1,503.4,876.4,503,871.8z M395.8,903.4
			c-5,5-5.7,11.2-5,18.1c1.4-0.3,2.4-0.2,3.1-0.7c7.6-4.5,14.2-3.1,20.3,3.2c2,2.1,4.9,3.4,8.5,5.9c-2.2-10.7-8.4-17.2-14.4-23.8
			c-0.6-0.7-2.8-0.8-3.7-0.3C400.8,908,398.7,905.9,395.8,903.4z M538.7,829.3c-4.1-6-8.6-11.7-12.2-18c-3.1-5.4-6.4-5.7-10.7-2.8
			c-1.3,5.9-0.5,10.8,4.8,14.1c0.8,0.5,1.1,1.9,1.8,2.7c4.7,4.6,8.4,10.8,16.6,10.5C539,833.5,539,831.9,538.7,829.3z M514.9,846
			c-2.8-3.6-5.5-7.3-8.6-10.7c-1.4-1.5-3.6-2.4-5.4-3.6c-0.5,0.4-0.9,0.9-1.4,1.3c0.4,1.5,0.5,3.2,1.2,4.4
			c6.3,10.2,12.6,20.4,19.2,30.5c0.7,1,2.7,1.2,4.6,2C524.6,860.2,520.9,853,514.9,846z M273.5,1061.5c-3.4-7.7-6.9-15.3-10-23
			c-1.4-3.5-3.5-4.1-7.3-2.9c0.5,3.3,0.2,6.7,1.6,9.2c3.5,6.3,7.7,12.2,11.9,18.2C270,1063.5,272.2,1062.6,273.5,1061.5z
			 M225,1284.2c2.8,2.1,5.6,4.1,8.6,6.3c1.1-9.9-5.9-17.9-14-16.3C219.1,1278.4,220.2,1281.8,225,1284.2z M278.7,1010.4
			c-3.1-1.8-4-8-9.7-5c3.8,15.6,3.8,15.6,12.6,12.9C280.7,1015.9,279.9,1013.5,278.7,1010.4z M530.1,849.9
			c-0.9-4.2-1.9-8.4-2.8-12.7c-0.5-0.3-0.9-0.5-1.4-0.8c-0.8,1.3-2.3,2.7-2.3,4c-0.1,2.9,0.4,5.8,0.9,8.7
			c1.7,10.3,2.2,10.4,12.3,8.2c-1.7-1.5-2.9-2.4-4-3.5C531.7,852.9,530.9,851.8,530.1,849.9z M329,23.7c3.4-2.9,7.4-5.6,4.4-11.3
			c-1.5,0-3.3-0.4-4.8,0.1c-3.6,1.2-7.3,2.7-6.7,7.6C322.3,24,324.6,25.5,329,23.7z M213.3,1266.8c0.9-0.9,2.6-2,2.5-2.7
			c-0.4-2.8-1.5-5.5-2.3-8.3c-2.4,0-4.7,0-7.1,0C208.1,1259.8,205.9,1265.6,213.3,1266.8z M544.7,873.3c1.4,1.2,2.9,2.5,5.3,4.5
			c0-3.9,0-5.9,0-9.9C547.5,870,546.1,871.2,544.7,873.3z"/>
		<path class="st1" d="M333.6,1438.9c-0.5-2.9-0.5-5.9-0.5-8.8c6.9-0.4,5.5,4.2,5.6,8.3C337.2,1438.9,335.6,1438.9,333.6,1438.9z"/>
		<path class="st1" d="M325.2,1346.8c-2.6-5.5-5.4-10.4-7.9-15.5c-1.6-3.1-2.8-6.4-4.7-11.1c7.1,0.6,12.4,0.8,17.7,1.7
			c1.5,0.2,3.7,2.2,3.7,3.4c0,1.8-1.6,3.6-3.2,6.7c-0.7,11.2,2.7,24.5-4.5,36.8c-0.9,1.6-0.3,4.5,0.5,6.6c1.4,4.1,3.4,7.9,5.4,12.4
			c5.4,0.9,9.6,6.2,10.9,15c-2.8,0-5.5,0-7.9,0c-1.2,3.4-1.9,6.4-3.4,9c-0.7,1.2-2.9,2-4.4,2.1c-1,0.1-3-1.3-3.1-2.3
			c-1.7-12.4-3.1-24.8-4.7-37.2c-1.1-8.8,1.6-16.7,5.1-24.5C325.1,1349.1,325.1,1348.2,325.2,1346.8z"/>
		<path class="st1" d="M544.7,578.8c0.6,2.7,1.1,5,1.1,7.4c0,3.9-2.3,5.1-5.9,4.3c-1.2-0.3-2.3-0.7-5.1-1.6c2.7,7.1,5,13,7.3,19.1
			c-9,1-10.2-0.2-12.2-7.3c-2.4-8.8-5.9-17.2-8.3-26c-1.3-4.9-1.5-10.1-2.1-15c4.4-1.4,6.5-0.5,7.2,3.4c0.6,3.6,2.6,5,6.5,5.2
			c2.4,0.1,4.9,2.5,6.9,4.4C541.9,574.3,543,576.5,544.7,578.8z"/>
		<path class="st1" d="M282.4,1290.3c0.6-3.2,1.1-5.9,1.8-9.7c2.5,1.1,5.2,1.6,6.5,3.3c0.8,1-0.9,3.8-1.1,5.8
			c-0.4,3.3-1,6.8-0.6,10.1c0.5,4.1,2.1,8.1,3.4,13c2.4-0.2,5.5-0.6,9.3-1c-0.5,3.4-1,6.4-1.5,9.4c-7.7,1.7-10.1-0.3-11.1-8.2
			c-0.3-2.5-1.4-5.9-3.3-7.1C279.3,1301.7,280.9,1296.4,282.4,1290.3z"/>
		<path class="st1" d="M413,1112c0,7.4,0,14.3,0,21.4c-5.1,1.7-8.4-0.8-10.8-4.4c-2.3-3.5-4.5-7.2,0.2-11.1c2.9-2.4,2.9-7.9,8.4-7.5
			C411.5,1110.5,412.2,1111.1,413,1112z"/>
		<path class="st1" d="M388.3,1335.4c-1.8-4.1-3.6-7.7-5.1-11.3c-0.9-2-1.4-4.2-2.5-7.6c8,2.8,10,9.2,14.2,13.6
			c5.1,5.4,3.3,11.1,1.9,17.3c-1.8,0-3.7,0-5.4,0C390.4,1343.5,389.4,1339.7,388.3,1335.4z"/>
		<path class="st1" d="M472.9,1328c-0.4-5.2,2.1-6.2,5.7-4c2.5,1.6,4.8,4,6.5,6.4c3.9,5.8,7.7,11.7,4.7,20.6
			c-2.9-3.5-5.6-6.3-7.8-9.4C478.8,1337.2,476,1332.8,472.9,1328z"/>
		<path class="st1" d="M650.5,793.7c-1.6,0.2-3.9,0.5-4.7-0.4c-3.9-5.1-7.7-10.3-10.9-15.8c-2-3.4-3.1-7.4-4.7-11.1
			c0.8-0.6,1.7-1.1,2.5-1.7c2.9,3.3,5.8,6.5,8.5,9.8c2.5,3,5.3,5.9,7.1,9.4C649.8,786.7,649.8,790.1,650.5,793.7z"/>
		<path class="st1" d="M322.1,1097.6c-1.6-3.9-2.9-7.4-4.3-10.9c0.4-0.5,0.8-1.1,1.2-1.6c2.7,1,6.9,1.4,7.7,3.3
			c2.4,5.3,6.2,10.7,4.7,17c-0.7,0.4-1.5,0.8-2.2,1.2C327,1103.7,324.7,1100.8,322.1,1097.6z"/>
		<path class="st1" d="M570.9,869.3c-4.9-3.4-5-7.9-4.7-12.9c3.7,0,7.2,0,10.9,0c0.6,5.1,1.1,10,1.8,16.4
			C575.6,871.4,573.5,870.5,570.9,869.3z"/>
		<path class="st1" d="M378.2,1291.4c-2.9-1.9-6-3.5-7.6-6c-3.4-5.2-6.1-10.9-9-16.4c0.5-0.4,1-0.8,1.6-1.1c2.2,1.5,4.9,2.5,6.4,4.5
			c3.5,4.9,6.5,10.1,9.5,15.3C379.5,1288.6,378.8,1290.1,378.2,1291.4z"/>
		<path class="st1" d="M368.9,1042.8c-4,0.5-5.6-1-5.4-4.7c0.2-4.6,0.1-9.2,0.1-13.8c6.3-0.6,9.6,2.1,8.9,7.7
			C371.9,1035.7,370.4,1039.2,368.9,1042.8z"/>
		<path class="st1" d="M386.1,1088.6c-0.6-3.6-1.4-6.9-1.1-10.1c0.3-2.7,2.4-3.8,5.1-1.7c5.6,4.4,6.1,7,2.6,16.6
			C390.4,1091.8,388.4,1090.3,386.1,1088.6z"/>
		<path class="st1" d="M390.3,1119.4c-1.4-0.9-3-1.7-3-2.5c0.1-3.6,0.7-7.2,1.1-10.8c6.9,2.9,8.1,5.3,7.3,14.5
			C394,1120.2,392.4,1119.8,390.3,1119.4z"/>
		<path class="st1" d="M363.5,1221.5c0.3-4.7-3.5-9.2,1-13.6c3.5,3.8,6.6,7.4,5.6,12.6c-0.3,1.6-1.5,3-2.3,4.6
			C366.4,1224,365,1223,363.5,1221.5z"/>
		<path class="st1" d="M346.9,1384.3c1.2-1.3,2.2-2.2,3.2-3.1c0.5,0.1,0.9,0.2,1.4,0.3c-2.6,8.7,2,14.2,8.4,19.4
			C352.2,1401.7,346.5,1394.1,346.9,1384.3z"/>
		<path class="st1" d="M670.6,1159.1c-8-1.7-10.5-6.8-6.9-13.9C668.9,1148.2,671.9,1152.3,670.6,1159.1z"/>
		<path class="st1" d="M546.9,533.9c-0.7,1.1-1.7,2.3-2.2,2.1c-1.7-0.5-3.4-1.4-4.9-2.5c-1.2-0.9-2-2.2-3-3.4
			c1.5-1.2,2.8-2.8,4.5-3.5c1.4-0.6,3.3-0.1,5.6-0.1C547,529,547,531.2,546.9,533.9z"/>
		<path class="st1" d="M412.9,976.5c6,4.8,6,4.8,5.4,10.7c-5.7-0.4-8.8-4.6-8.4-11.3C410.8,976.1,411.6,976.3,412.9,976.5z"/>
		<path class="st1" d="M310.6,1333.2c6.9,1.4,5.8,6.1,5.4,10.7C308.8,1343.6,307.4,1341,310.6,1333.2z"/>
		<path class="st1" d="M524,542.6c6.7,1.7,2.8,6.3,3.8,10c-3.8-1.3-8.3-0.2-7.9-6C520,543.9,519.7,541.5,524,542.6z"/>
		<path class="st1" d="M545.8,612.9c0-4.6,0-8.7,0-13.6c4.9,1.4,4.4,5.1,4.4,8.1c0,2.1-0.5,4.3-1.1,6.4c-0.3,1.3-1.2,2.5-1.9,3.7
			C546.8,616.2,546.3,614.8,545.8,612.9z"/>
		<path class="st1" d="M323,1121.3c0-2.3,0-4.1,0-5.9c6.6-0.5,7.3,0.6,6.2,10.8C326.7,1124.4,324.8,1123.1,323,1121.3z"/>
		<path class="st1" d="M295.9,1085.9c0.6,6.8-3.7,5.2-7.5,5.2c0-2.5,0-4.8,0-8.2C291.1,1083.8,293.5,1084.6,295.9,1085.9z"/>
		<path class="st1" d="M652.7,1137.5c0-2.1,0-3.7,0-5.3c0.6-0.3,1.1-0.6,1.7-0.8c2.1,3,4.2,6,6.3,9c-0.5,0.4-1,0.8-1.5,1.2
			C656.5,1141.4,652.3,1144.2,652.7,1137.5z"/>
		<path class="st1" d="M230.7,1336.7c1.9-0.8,4-1.8,5.5-1.2c1.4,0.5,2.1,2.8,2.6,4.7C235.7,1339.7,230.8,1344.5,230.7,1336.7z"/>
		<path class="st1" d="M531.9,512.9c2.3-3.7,4.7,0.1,6.9-1.1c0,2.1,0,3.7,0,5.5c-2.9,0-5.6,0-8.8,0
			C530.6,515.8,531.1,514.5,531.9,512.9z"/>
		<path class="st1" d="M296,1337.4c-1.2,1.3-2.3,2.1-3.5,2.9c0.2-3.8-3.6-8.7,3.5-9.8C296,1333.3,296,1335.1,296,1337.4z"/>
		<path class="st1" d="M537.6,545.2c-3.5-1.3-8.7-1.1-6.8-8.7C533.5,539.8,535.7,542.3,537.6,545.2z"/>
	</g>
</g>
</svg>
