<svg width="192" height="192" viewBox="0 0 192 192" fill="none" xmlns="http://www.w3.org/2000/svg">
<path d="M33.2 142V44C33.2 40.8 34.4 38 36.8 35.6C39.2 33.2 42 32 45.2 32H163.2C164.9 32 166.325 32.5783 167.475 33.735C168.625 34.8918 169.2 36.3251 169.2 38.035C169.2 39.745 168.625 41.1667 167.475 42.3C166.325 43.4333 164.9 44 163.2 44H45.2V142H83C85.5 142 87.625 142.878 89.375 144.635C91.125 146.392 92 148.525 92 151.035C92 153.545 91.125 155.667 89.375 157.4C87.625 159.133 85.5 160 83 160H25C22.5 160 20.375 159.122 18.625 157.365C16.875 155.608 16 153.475 16 150.965C16 148.455 16.875 146.333 18.625 144.6C20.375 142.867 22.5 142 25 142H33.2ZM111.8 160C109.667 160 107.833 159.2 106.3 157.6C104.767 156 104 153.867 104 151.2V63.8C104 61.6667 104.767 59.8333 106.3 58.3C107.833 56.7667 109.667 56 111.8 56H166.2C168.867 56 171.167 56.7667 173.1 58.3C175.033 59.8333 176 61.6667 176 63.8V151.2C176 153.867 175.033 156 173.1 157.6C171.167 159.2 168.867 160 166.2 160H111.8ZM116 142H164V68H116V142Z" fill="#3CA3D2"/>
</svg>
