<svg width="192" height="192" viewBox="0 0 192 192" fill="none" xmlns="http://www.w3.org/2000/svg">
<path d="M135.965 160C134.255 160 132.833 159.425 131.7 158.275C130.567 157.125 130 155.7 130 154V126H102C100.3 126 98.875 125.422 97.725 124.265C96.575 123.108 96 121.675 96 119.965C96 118.255 96.575 116.833 97.725 115.7C98.875 114.567 100.3 114 102 114H130V86C130 84.3 130.578 82.875 131.735 81.725C132.892 80.575 134.325 80 136.035 80C137.745 80 139.167 80.575 140.3 81.725C141.433 82.875 142 84.3 142 86V114H170C171.7 114 173.125 114.578 174.275 115.735C175.425 116.892 176 118.325 176 120.035C176 121.745 175.425 123.167 174.275 124.3C173.125 125.433 171.7 126 170 126H142V154C142 155.7 141.422 157.125 140.265 158.275C139.108 159.425 137.675 160 135.965 160ZM30 126C28.3 126 26.875 125.422 25.725 124.265C24.575 123.108 24 121.675 24 119.965C24 118.255 24.575 116.833 25.725 115.7C26.875 114.567 28.3 114 30 114H78C79.7 114 81.125 114.578 82.275 115.735C83.425 116.892 84 118.325 84 120.035C84 121.745 83.425 123.167 82.275 124.3C81.125 125.433 79.7 126 78 126H30ZM30 93C28.3 93 26.875 92.4217 25.725 91.265C24.575 90.1082 24 88.6749 24 86.965C24 85.255 24.575 83.8333 25.725 82.7C26.875 81.5667 28.3 81 30 81H112C113.7 81 115.125 81.5783 116.275 82.735C117.425 83.8918 118 85.3251 118 87.035C118 88.745 117.425 90.1667 116.275 91.3C115.125 92.4333 113.7 93 112 93H30ZM30 60C28.3 60 26.875 59.4217 25.725 58.265C24.575 57.1082 24 55.6749 24 53.965C24 52.255 24.575 50.8333 25.725 49.7C26.875 48.5667 28.3 48 30 48H112C113.7 48 115.125 48.5783 116.275 49.735C117.425 50.8918 118 52.3251 118 54.035C118 55.745 117.425 57.1667 116.275 58.3C115.125 59.4333 113.7 60 112 60H30Z" fill="#3CA3D2"/>
</svg>
