<svg width="1440" height="681" viewBox="0 0 1440 681" fill="none" xmlns="http://www.w3.org/2000/svg">
<g clip-path="url(#clip0_10_102)">
<path d="M1.125 252.218C1.125 168.207 1.125 84.1955 1.125 0.154848C480.993 0.154848 960.862 0.154848 1441.12 0.154848C1441.12 114.196 1441.12 228.267 1440.68 342.857C1432.2 344.394 1429.73 347.749 1432.41 355.092C1433.86 359.087 1432.77 360.059 1428.99 360.309C1422.62 360.73 1416.27 361.484 1409.6 362.129C1410.04 366.717 1409.47 369.495 1404.64 369.636C1402.28 369.706 1400.05 371.854 1397.61 372.509C1391.23 374.221 1390.47 378.299 1391.88 382.766C1398.69 382.766 1404.99 382.486 1411.25 382.86C1415.72 383.127 1418.79 382.218 1419.04 377.361C1421.7 377.361 1423.91 377.361 1427.26 377.361C1425.88 380.691 1425.5 384.529 1423.44 385.979C1418.64 389.356 1421.33 393.799 1423.1 395.154C1428.16 399.042 1426.04 402.899 1425.08 407.327C1424.55 409.762 1424.42 413.441 1425.83 414.909C1429.03 418.245 1426.82 420.805 1425.65 423.397C1424.33 426.324 1422.31 428.933 1420.39 432.007C1415.39 429.337 1411.16 433.134 1406.65 435.825C1387.74 447.116 1368.94 458.66 1345.99 459.685C1345.82 472.527 1322.91 478.974 1306.42 476.655C1307.66 472.99 1307.99 468.803 1310.19 466.212C1314.16 461.541 1318.72 456.895 1323.99 453.922C1332.71 448.995 1342.22 445.459 1351.33 441.185C1352.69 440.544 1353.67 439.074 1354.82 437.988C1350.76 436.785 1347.55 437.122 1344.42 436.722C1335.43 435.569 1328.68 438.294 1322.43 445.347C1316.94 451.534 1309.8 456.561 1300.8 457.451C1296.82 457.845 1294.52 459.625 1293.47 464.122C1291.55 472.297 1285.02 476.356 1277.67 479.619C1267.38 484.189 1257.44 489.554 1247.17 494.161C1242.63 496.197 1237.61 498.448 1232.84 498.397C1225.33 498.318 1219.38 499.969 1214.86 506.113C1211.84 510.212 1207.66 511.883 1202.63 511.044C1194.28 509.649 1187.63 513.795 1180.92 517.653C1178.23 519.202 1175.86 521.302 1173.22 522.949C1164.48 528.392 1155.75 533.926 1144.46 532.153C1144.23 530.806 1144 529.458 1143.77 528.111C1143.28 527.835 1142.78 527.56 1142.29 527.285C1140.26 529.832 1137.84 532.166 1136.32 534.986C1134.75 537.908 1133.15 539.816 1129.56 539.242C1128.3 539.041 1126.91 539.135 1125.67 539.446C1115.11 542.089 1104.57 544.813 1094.02 547.515C1095.51 553.094 1093.39 555.779 1086.69 556.134C1082.65 556.347 1078.55 556.688 1074.65 557.68C1057.15 562.141 1039.78 567.1 1022.24 571.362C1015.12 573.092 1008.06 576.526 1000.32 574.074C996.694 572.926 992.956 572.132 989.141 571.145C987.561 564.578 991.549 559.629 994.513 554.457C998.373 547.72 1003.78 543.808 1012.17 544.639C1014.47 544.867 1017.49 543.382 1019.33 541.735C1024.77 536.88 1029.79 531.553 1034.93 526.377C1035.06 526.252 1034.78 525.724 1034.68 525.387C1031.21 525.58 1027.56 525.121 1024.32 526.082C1014.25 529.072 1004.38 532.411 993.56 531.456C989.019 531.056 984.333 531.918 979.748 532.485C973.509 533.256 967.763 535.045 962.924 539.598C961.055 541.358 957.803 542.318 955.135 542.416C950.128 542.6 945.087 541.893 939.551 541.522C938.597 538.211 939.903 534.784 943.318 532.737C947.362 530.312 948.727 527.041 949.823 522.573C950.902 518.177 948.088 510.491 957.045 510.924C957.045 508.578 957.045 506.634 957.045 505.531C945.531 502.881 939.309 511.988 930.765 517.333C930.472 514.724 930.278 512.996 930.06 511.063C924.364 511.53 919.087 511.962 913.393 512.429C913.928 509.39 914.325 507.131 914.896 503.888C910.736 504.415 907.283 504.661 903.908 505.312C888.468 508.292 873.103 511.694 857.608 514.337C845.835 516.344 833.955 517.75 824.395 525.787C819.278 530.088 814.557 534.86 808.611 540.394C798.409 538.126 788.757 541.643 781.26 551.371C780.277 552.646 777.196 552.321 775.081 552.699C769.888 553.626 763.049 552.797 759.855 555.824C754.065 561.312 748.358 559.385 742.479 558.801C735.78 558.136 729.807 558.6 725.544 564.6C722.893 568.33 720.516 572.307 717.479 575.689C715.807 577.551 713.15 578.762 710.713 579.654C704.449 581.948 697.756 583.264 691.788 586.126C680.47 591.556 669.822 598.437 658.351 603.476C650.316 607.005 641.338 608.42 632.47 605.539C625.141 603.158 617.892 600.534 609.592 597.666C610.034 596.286 610.771 593.368 611.911 590.616C612.938 588.138 614.406 585.844 615.679 583.468C615.246 583.198 614.813 582.927 614.38 582.656C618.018 581.08 621.657 579.504 625.256 577.945C625.474 575.883 625.682 573.907 625.95 571.367C628.339 571.95 630.258 572.481 632.204 572.879C635.689 573.59 643.125 569.335 642.136 566.972C639.715 561.188 644.463 559.476 647.034 556.564C649.594 553.664 652.492 551.064 655.375 548.201C647.404 548.201 640.271 548.249 633.139 548.19C622.37 548.1 611.94 549.43 601.836 553.624C597.923 555.249 592.655 556.832 589.151 555.474C583.706 553.364 580.314 555.222 576.034 557.533C571.841 559.797 567.119 561.081 561.712 563.146C560.898 557.628 560.318 553.704 559.651 549.182C557.553 549.457 555.436 549.896 553.306 549.978C549.04 550.143 544.46 551.102 540.577 549.898C536.203 548.542 535.404 550.154 535.086 554.564C529.641 553.572 524.62 552.656 519.159 551.66C520.801 546.933 522.766 544.164 526.733 544.898C538.982 547.164 547.959 542.318 554.988 532.685C555.634 531.8 556.774 531.269 557.385 530.37C558.22 529.141 558.768 527.718 559.566 526.124C550.938 524.412 544.332 527.961 539.107 532.087C528.685 540.317 517.637 541.443 505.46 538.388C505.46 536.208 505.46 533.863 505.46 531.93C518.151 528.834 530.872 526.854 537.864 514.167C538.417 513.164 539.774 512.582 540.801 511.867C545.314 508.726 545.81 504.796 542.261 500.41C538.284 495.496 533.158 493.195 526.903 494.13C526.011 484.584 525.121 481.483 534.392 480.696C544.16 479.866 553.953 479.31 563.714 478.405C580.173 476.878 595.569 471.677 609.872 463.6C614.127 461.197 618.003 457.414 620.851 453.408C624.409 448.403 627.765 444.213 634.416 443.395C643.482 442.28 649.919 437.56 652.364 428.278C653.198 425.112 654.55 422.065 655.188 418.869C656.109 414.252 658.47 412.702 663.221 413.026C669.136 413.428 675.342 414.836 679.751 408.126C682.091 404.564 682.23 401.77 680.575 398.47C678.815 394.958 675.682 392.684 671.926 394.178C661.958 398.144 651.789 401.94 642.565 407.293C638.003 409.941 634.13 411.344 628.221 410.477C633.598 400.41 642.801 396.765 652.225 393.462C651.95 385.32 646.663 382.785 639.794 382.927C626.155 383.21 614.218 388.701 603.753 397.288C600.206 400.198 596.397 403.432 601.918 409.402C595.096 411.956 589.1 414.201 582.738 416.583C582.841 417.735 582.982 419.296 583.257 422.356C590.729 420.276 597.543 418.441 604.319 416.474C610.08 414.802 615.797 412.977 622.204 411.014C621.848 417.713 618.727 420.504 614.471 420.794C608.18 421.223 606.18 425.668 604.259 430.164C602.783 433.617 602.155 437.432 601.034 441.509C599.261 441.152 597.463 440.387 595.738 440.528C592.42 440.801 587.681 440.413 586.114 442.37C580.408 449.495 573.489 451.274 564.945 450.39C559.751 449.852 554.429 449.958 549.214 450.387C544.221 450.797 538.689 451.094 535.876 456.222C533.36 460.807 529.883 462.192 524.939 461.603C520.684 461.096 518.026 462.806 517.403 467.554C516.815 472.036 516.354 476.887 514.278 480.734C511.647 485.609 513.927 488.169 517.086 490.559C519.154 492.123 521.88 492.815 524.286 493.887C519.819 505.064 485.534 517.446 466.046 515.128C464.803 510.416 467.77 507.78 471.454 507.247C477.698 506.342 479.783 502.329 481.178 497.182C481.741 495.104 482.445 493.064 483.057 491.097C504.715 489.585 505.292 489.435 506.463 486.691C504.492 483.519 502.159 481.416 501.913 479.092C500.696 467.608 505.289 463.139 515.308 459.692C514.456 455.993 513.592 452.25 512.655 448.183C521.756 448.372 525.922 442.321 530.834 437.342C533.204 434.939 535.875 432.832 538.41 430.591C538.86 430.99 539.309 431.388 539.759 431.786C539.759 425.659 539.759 419.531 539.759 413.26C534.727 413.078 531.834 414.394 531.932 420.121C531.972 422.479 530.484 425.969 528.612 427.019C524.974 429.058 520.574 429.736 516.325 431.028C516.325 433.023 516.325 435.074 516.325 437.228C514.933 437.829 513.405 438.117 512.381 438.994C507.889 442.841 504.381 440.565 500.06 438.152C492.919 434.163 485.408 430.563 477.642 428.088C473.862 426.884 472.126 425.448 471.353 421.943C469.609 414.042 469.344 406.345 472.722 398.65C473.3 397.333 471.269 393.198 470.358 393.171C464.446 392.99 458.496 393.992 452.586 393.791C448.297 393.645 447.77 396.425 446.897 399.169C446.414 400.687 446.444 402.368 446.214 404.203C442.471 403.636 439.069 403.122 435.725 402.615C432.917 386.897 432.206 386.095 418.641 383.193C419.621 379.771 419.621 379.771 428.803 376.202C426.926 369.278 430.82 364.741 435.649 360.477C439.29 357.262 442.72 353.792 446.058 350.26C447.041 349.22 447.392 347.582 448.104 346.068C443.21 345.27 439.335 344.638 435.04 343.938C449.642 332.563 463.717 321.599 477.922 310.534C477.474 307.536 476.97 304.16 476.44 300.612C474.152 300.612 471.995 300.19 470.072 300.681C458.971 303.518 447.897 306.314 436.259 305.224C435.683 305.17 434.981 306.453 434.337 307.113C435.197 307.569 436.048 308.401 436.918 308.421C442.325 308.542 447.735 308.482 453.137 308.482C452.989 315.274 450.932 317.322 445.158 317.527C438.86 317.75 432.42 317.532 426.32 318.823C419.996 320.162 414.005 323.077 407.868 325.305C405.229 326.263 402.592 327.227 399.953 328.187C399.665 327.658 399.378 327.129 399.09 326.6C401.717 322.081 404.344 317.563 406.972 313.044C406.428 312.418 405.885 311.792 405.342 311.166C398.386 313.91 391.431 316.653 384.068 319.558C383.193 304.849 382.26 303.932 393.249 299.719C392.222 297.595 391.233 295.547 390.244 293.5C390.335 291.122 390.33 288.426 389.084 286.56C386.803 283.148 383.749 285.037 381.343 286.731C379.908 287.742 379.118 289.623 377.879 290.967C375.832 293.188 373.907 294.152 371.871 290.671C370.548 288.409 368.572 286.529 367.177 284.829C367.441 281.748 367.684 278.916 368.064 274.498C364.199 276.199 361.305 276.905 359.112 278.547C352.807 283.272 346.085 285.834 338.064 284.93C334.176 284.492 330.198 284.86 326.261 284.854C319.203 284.843 319.203 284.841 319.842 277.717C322.103 276.833 324.616 276.425 326.389 275.058C334.254 268.991 341.819 262.534 349.696 256.484C351.708 254.939 354.399 254.151 356.892 253.395C360.348 252.347 363.952 251.793 367.419 250.779C371.753 249.512 376.03 248.039 380.293 246.547C381.184 246.235 382.043 245.577 382.693 244.871C386.884 240.318 390.409 234.877 395.305 231.311C402.48 226.085 408.084 218.263 418.743 218.205C427.543 218.158 430.99 211.327 427.899 202.956C417.293 202.259 417.35 202.317 409.892 209.573C406.17 213.195 402.357 216.763 398.281 219.967C395.605 222.07 392.57 224.223 389.365 225.018C384.938 226.116 380.187 225.854 375.602 226.403C374.399 226.547 373.055 227.298 372.19 228.178C367.906 232.533 364.215 237.112 356.842 236.763C352.401 236.553 348.031 238.39 344.818 242.929C339.732 250.114 333.148 254.763 323.115 253.622C316.851 252.909 310.837 256.22 307.339 261.978C305.102 265.659 302.227 266.931 298.212 266.867C278.732 266.56 259.554 268.982 240.664 273.63C228.208 276.694 216.004 280.469 205.515 288.298C203.046 290.141 200.795 293.092 198.079 293.605C193.42 294.486 188.474 293.849 185.206 293.849C183.16 290.115 182.33 286.544 180.12 285.126C177.748 283.605 174.086 284.031 170.974 283.749C167.336 283.419 162.029 273.789 164.768 271.981C168.821 269.307 174.004 267.824 178.88 267.196C180.662 266.967 182.945 270.63 185.965 273.406C186.845 272.419 188.879 270.716 190.167 268.566C192.45 264.76 195.077 261.901 199.723 260.955C210.229 258.816 218.62 253.292 224.513 244.236C225.253 243.1 226.192 241.296 225.767 240.414C225.312 239.47 223.277 238.663 222.063 238.82C217.546 239.402 212.662 239.53 208.691 241.442C201.642 244.836 194.877 244.866 188.033 241.964C183.74 240.143 180.324 241.532 176.483 243.14C172.717 244.717 168.587 246.464 164.655 246.377C157.257 246.214 151.048 247.958 145.113 252.484C142.268 254.654 138.08 255.062 134.097 256.405C133.656 249.997 133.591 245.546 138.882 242.842C139.867 242.338 140.041 238.988 139.592 237.202C138.696 233.633 137.109 230.238 135.334 225.512C132.902 227.942 130.35 230.492 127.798 233.041C128.027 233.634 128.256 234.226 128.485 234.819C126.463 234.05 123.083 233.689 122.705 232.428C121.96 229.94 121.793 225.739 123.302 224.39C128.928 219.362 135.355 215.235 141.419 210.687C142.619 209.788 143.542 208.52 144.593 207.421C144.136 206.581 143.678 205.741 143.221 204.901C135.69 206.779 128.004 208.192 120.661 210.635C107.712 214.943 95.8121 223.081 81.143 220.784C80.0199 220.608 78.5673 221.216 77.5508 221.888C68.316 227.993 58.0937 229.754 47.3349 228.522C40.0066 227.682 34.0222 230.416 28.4763 234.592C25.3781 236.925 22.6602 239.759 19.5887 242.132C13.9821 246.463 8.69324 251.452 1.125 252.218ZM485.288 362.455C484.994 361.013 485.207 358.911 484.327 358.236C477.653 353.121 484.141 352.738 486.79 350.971C488.152 350.063 489.519 349.164 491.866 347.612C475.72 344.657 472.657 345.087 463.58 350.919C455.278 356.253 448.061 363.276 440.382 369.574C440.136 369.775 439.967 370.188 439.939 370.518C439.508 375.603 439.105 380.69 438.558 387.497C442.002 384.772 444.208 383.005 446.438 381.271C447.903 380.131 450.338 377.802 450.748 378.112C455.937 382.032 458.293 376.769 460.653 374.614C467.815 368.073 475.269 362.851 485.288 362.455ZM568.156 502.007C573.496 500.196 577.786 497.201 580.865 492.254C583.534 487.967 589.203 485.867 590.868 480.009C587.121 480.552 583.947 480.31 581.454 481.498C572.142 485.936 563.004 490.751 553.952 495.701C552.957 496.245 552.238 498.807 552.647 500.003C553.099 501.321 554.98 502.989 556.273 503.02C559.909 503.106 563.563 502.428 568.156 502.007ZM536.61 394.762C531.571 389.776 525.43 389.075 518.508 389.749C518.787 391.111 518.752 392.117 519.182 392.853C523.642 400.498 522.321 407.054 515.997 413.104C513.887 415.123 512.582 417.984 510.145 421.591C520.841 419.416 527.35 413.168 533.948 407.178C534.648 406.543 534.793 404.351 534.249 403.455C532.033 399.807 534.057 397.735 536.61 394.762ZM610.683 537.692C616.666 533.595 622.416 529.086 628.702 525.524C634.089 522.472 634.385 519.134 631.516 514.802C625.649 513.527 620.751 514.254 617.432 519.597C616.91 520.436 615.516 520.68 614.773 521.441C610.199 526.122 604.004 529.845 604.257 538.017C606.469 538.017 608.135 538.017 610.683 537.692ZM594.004 513.871C597.599 511.038 601.341 508.368 604.722 505.3C606.272 503.892 607.112 501.702 608.273 499.867C607.826 499.413 607.38 498.959 606.932 498.505C605.44 498.898 603.746 498.963 602.487 499.735C592.246 506.015 582.045 512.365 571.963 518.896C570.93 519.566 570.757 521.564 569.964 523.48C579.846 523.582 586.971 519.875 594.004 513.871ZM1436.52 323.111C1437.67 322.383 1439.81 321.688 1439.84 320.921C1440.09 313.5 1439.99 306.066 1439.99 298.751C1435.44 298.751 1431.61 298.751 1427.66 298.751C1427.13 308.176 1430.52 315.891 1436.52 323.111ZM378.504 272.462C386.164 269.099 393.758 265.569 401.516 262.447C405.053 261.024 405.59 258.988 404.4 255.173C401.144 255.682 397.685 255.382 395.169 256.78C388.854 260.29 382.919 264.5 376.996 268.666C376.535 268.991 377.364 271.153 378.504 272.462ZM155.845 224.031C153.775 226.843 151.706 229.655 149.538 232.601C159.445 233.742 167.415 226.738 165.829 218.574C161.624 218.087 158.202 219.155 155.845 224.031ZM429.622 277.658C431.452 274.592 437.57 273.63 434.613 268.001C418.978 271.825 418.978 271.825 421.751 280.592C424.119 279.746 426.481 278.902 429.622 277.658ZM590.125 529.056C594.342 528.111 598.559 527.166 602.777 526.222C603.033 525.765 603.29 525.309 603.547 524.853C602.211 524.034 600.894 522.571 599.533 522.529C596.661 522.439 593.745 522.976 590.883 523.464C580.621 525.213 580.514 525.635 582.638 535.737C584.124 534.014 585.079 532.788 586.163 531.688C587.094 530.742 588.173 529.941 590.125 529.056ZM1416.28 328.039C1419.2 331.477 1421.92 335.435 1427.62 332.407C1427.62 330.87 1428.03 329.078 1427.54 327.592C1426.33 324.003 1424.86 320.325 1419.93 320.889C1415.97 321.342 1414.5 323.56 1416.28 328.039ZM173.252 212.251C174.166 213.127 175.214 214.848 175.969 214.728C178.759 214.284 181.452 213.232 184.238 212.393C184.238 209.978 184.238 207.69 184.238 205.306C180.234 207.064 174.372 204.861 173.252 212.251ZM566.708 543.71C565.481 545.154 564.254 546.597 562.169 549.049C566.078 549.049 568.03 549.049 572.062 549.049C569.993 546.528 568.834 545.116 566.708 543.71Z" fill="#FF5518"/>
<path d="M1.125 332.591C4.06074 332.122 6.99648 332.122 9.96014 332.122C10.366 339.029 5.73941 337.625 1.61633 337.749C1.125 336.186 1.125 334.623 1.125 332.591Z" fill="#FF5518"/>
<path d="M93.2038 324.239C98.6536 321.594 103.599 318.857 108.656 316.346C111.787 314.792 115.089 313.581 119.779 311.597C119.17 318.682 118.942 324.014 118.114 329.25C117.882 330.723 115.905 332.975 114.702 332.992C112.903 333.018 111.08 331.381 108 329.802C96.7659 329.057 83.4696 332.455 71.1806 325.273C69.5935 324.346 66.6475 325.016 64.6124 325.739C60.543 327.184 56.6687 329.179 52.1767 331.187C51.2386 336.556 45.9281 340.81 37.172 342.055C37.172 339.254 37.172 336.51 37.172 334.161C33.7949 332.961 30.7643 332.27 28.1788 330.796C26.9706 330.108 26.1573 327.94 26.0511 326.382C25.9819 325.367 27.3946 323.421 28.3358 323.292C40.7186 321.588 53.1403 320.171 65.5423 318.604C74.3182 317.496 82.257 320.184 90.0536 323.71C90.8654 324.077 91.8449 324.073 93.2038 324.239Z" fill="#FF5518"/>
<path d="M861.212 543.663C858.528 544.241 856.192 544.764 853.856 544.765C849.991 544.765 848.745 542.467 849.513 538.904C849.767 537.724 850.236 536.589 851.133 533.793C843.993 536.526 838.133 538.769 832.013 541.112C830.972 532.153 832.212 530.87 839.303 528.907C848.057 526.483 856.532 523.047 865.29 520.643C870.155 519.307 875.351 519.181 880.241 518.53C881.622 522.901 880.694 525.074 876.853 525.731C873.262 526.345 871.865 528.346 871.623 532.257C871.475 534.651 869.102 537.117 867.27 539.134C865.707 540.856 863.489 541.984 861.212 543.663Z" fill="#FF5518"/>
<path d="M149.692 281.42C152.864 281.984 155.543 282.503 159.424 283.254C158.285 285.705 157.783 288.47 156.134 289.722C155.099 290.508 152.363 288.827 150.351 288.599C147.009 288.222 143.566 287.603 140.293 288.039C136.183 288.586 132.201 290.093 127.255 291.431C127.512 293.794 127.849 296.894 128.265 300.716C124.848 300.18 121.877 299.714 118.848 299.24C117.198 291.56 119.195 289.122 127.058 288.11C129.589 287.784 132.982 286.694 134.177 284.809C138.276 278.345 143.625 279.93 149.692 281.42Z" fill="#FF5518"/>
<path d="M327.973 411.985C320.56 412.016 313.659 412.016 306.532 412.016C304.874 406.942 307.372 403.569 310.967 401.17C314.448 398.847 318.181 396.688 322.087 401.39C324.463 404.25 329.993 404.333 329.57 409.748C329.511 410.507 328.861 411.22 327.973 411.985Z" fill="#FF5518"/>
<path d="M104.576 387.323C108.648 385.563 112.226 383.762 115.898 382.176C117.916 381.305 120.092 380.797 123.464 379.721C120.669 387.747 114.253 389.765 109.87 393.876C104.462 398.95 98.7877 397.173 92.5848 395.82C92.5848 394.056 92.5848 392.103 92.5848 390.408C96.483 389.382 100.302 388.377 104.576 387.323Z" fill="#FF5518"/>
<path d="M112.028 471.871C117.24 471.431 118.223 473.998 116.049 477.534C114.493 480.065 112.093 482.305 109.606 483.99C103.855 487.888 97.8949 491.643 89.0252 488.721C92.517 485.804 95.3599 483.159 98.4767 480.891C102.747 477.784 107.224 474.962 112.028 471.871Z" fill="#FF5518"/>
<path d="M646.309 649.459C646.109 647.849 645.806 645.517 646.742 644.798C651.817 640.899 657.044 637.139 662.531 633.855C665.935 631.817 669.894 630.708 673.604 629.182C674.165 630.031 674.725 630.879 675.285 631.728C672.007 634.584 668.786 637.508 665.435 640.275C662.414 642.77 659.498 645.573 656.072 647.342C653.336 648.755 649.903 648.818 646.309 649.459Z" fill="#FF5518"/>
<path d="M342.433 321.147C346.327 319.58 349.851 318.233 353.375 316.886C353.908 317.299 354.441 317.713 354.974 318.126C353.919 320.79 353.554 324.976 351.677 325.827C346.367 328.236 340.987 332.016 334.691 330.553C334.276 329.824 333.861 329.095 333.446 328.366C336.318 326.033 339.19 323.7 342.433 321.147Z" fill="#FF5518"/>
<path d="M570.696 569.949C574.062 565.023 578.622 564.949 583.608 565.266C583.608 569.006 583.608 572.456 583.608 576.119C578.495 576.678 573.63 577.211 567.2 577.914C568.622 574.586 569.533 572.454 570.696 569.949Z" fill="#FF5518"/>
<path d="M148.585 377.194C150.53 374.305 152.103 371.205 154.623 369.549C159.82 366.136 165.523 363.493 171.017 360.533C171.397 361.054 171.777 361.576 172.156 362.097C170.679 364.265 169.636 367.032 167.637 368.481C162.78 372.001 157.532 375.001 152.307 377.973C151.432 378.47 149.88 377.778 148.585 377.194Z" fill="#FF5518"/>
<path d="M397.183 367.855C396.696 363.806 398.142 362.283 401.842 362.457C406.455 362.674 411.086 362.509 415.674 362.509C416.274 368.811 413.561 372.124 408.004 371.4C404.341 370.923 400.815 369.395 397.183 367.855Z" fill="#FF5518"/>
<path d="M351.451 385.132C355.058 384.524 358.364 383.695 361.527 384.073C364.246 384.398 365.315 386.482 363.189 389.156C358.741 394.753 356.22 395.285 346.565 391.733C348.207 389.447 349.648 387.44 351.451 385.132Z" fill="#FF5518"/>
<path d="M320.581 389.268C321.433 387.9 322.275 386.257 323.062 386.282C326.657 386.4 330.237 386.986 333.895 387.412C330.958 394.308 328.588 395.551 319.404 394.751C319.797 393.033 320.171 391.396 320.581 389.268Z" fill="#FF5518"/>
<path d="M218.538 362.514C223.219 362.814 227.751 359.03 232.122 363.561C228.344 367.081 224.751 370.121 219.499 369.176C217.897 368.888 216.464 367.664 214.954 366.869C215.989 365.418 217.024 363.968 218.538 362.514Z" fill="#FF5518"/>
<path d="M55.688 345.883C57.0243 347.077 57.9193 348.082 58.8143 349.087C58.7016 349.549 58.5889 350.011 58.4762 350.473C49.8102 347.823 44.2667 352.508 39.1078 358.87C38.3121 351.193 45.8877 345.525 55.688 345.883Z" fill="#FF5518"/>
<path d="M280.926 669.56C282.624 661.594 287.779 659.065 294.84 662.663C291.803 667.936 287.729 670.926 280.926 669.56Z" fill="#FF5518"/>
<path d="M906.139 545.947C905.064 545.214 903.847 544.286 904.003 543.789C904.544 542.067 905.386 540.365 906.455 538.906C907.335 537.707 908.7 536.864 909.85 535.863C911.067 537.354 912.671 538.684 913.379 540.387C913.966 541.8 913.499 543.653 913.499 545.95C910.991 545.95 908.809 545.95 906.139 545.947Z" fill="#FF5518"/>
<path d="M463.461 411.901C458.647 417.853 458.647 417.853 452.719 417.313C453.095 411.641 457.359 408.466 464.064 408.915C463.874 409.772 463.686 410.621 463.461 411.901Z" fill="#FF5518"/>
<path d="M106.793 309.64C105.419 316.512 100.655 315.463 96.1057 315.006C96.3712 307.785 98.9911 306.376 106.793 309.64Z" fill="#FF5518"/>
<path d="M897.434 522.999C895.74 529.678 891.128 525.816 887.417 526.824C888.675 523.064 887.644 518.557 893.464 518.88C896.074 519.025 898.514 518.749 897.434 522.999Z" fill="#FF5518"/>
<path d="M827.121 544.825C831.726 544.825 835.802 544.825 840.677 544.825C839.251 549.772 835.621 549.191 832.589 549.199C830.441 549.204 828.252 548.705 826.158 548.146C824.847 547.797 823.678 546.918 822.446 546.277C823.828 545.793 825.21 545.309 827.121 544.825Z" fill="#FF5518"/>
<path d="M318.687 322C321.003 321.995 322.827 321.995 324.609 321.995C325.07 328.553 324.011 329.245 313.792 328.15C315.56 325.683 316.878 323.843 318.687 322Z" fill="#FF5518"/>
<path d="M354.123 294.922C347.281 295.57 348.877 291.205 348.902 287.4C351.409 287.4 353.718 287.4 357.098 287.4C356.19 290.123 355.397 292.499 354.123 294.922Z" fill="#FF5518"/>
<path d="M302.528 651.739C304.636 651.739 306.25 651.739 307.865 651.739C308.146 652.291 308.427 652.842 308.709 653.394C305.695 655.484 302.681 657.575 299.667 659.665C299.252 659.163 298.837 658.661 298.421 658.16C298.642 655.525 295.753 651.328 302.528 651.739Z" fill="#FF5518"/>
<path d="M103.282 229.718C104.079 231.577 105.066 233.696 104.482 235.207C103.945 236.596 101.717 237.332 99.7431 237.813C100.318 234.685 95.5311 229.789 103.282 229.718Z" fill="#FF5518"/>
<path d="M927.106 530.891C930.827 533.228 926.971 535.564 928.188 537.822C926.091 537.822 924.514 537.822 922.723 537.822C922.723 534.877 922.723 532.175 922.723 529.052C924.231 529.616 925.523 530.099 927.106 530.891Z" fill="#FF5518"/>
<path d="M102.602 294.974C101.303 293.805 100.506 292.642 99.709 291.48C103.502 291.674 108.439 287.902 109.487 294.981C106.742 294.981 104.923 294.981 102.602 294.974Z" fill="#FF5518"/>
<path d="M894.844 536.57C896.13 533.063 895.992 527.869 903.509 529.784C900.25 532.546 897.712 534.695 894.844 536.57Z" fill="#FF5518"/>
</g>
<defs>
<clipPath id="clip0_10_102">
<rect width="1440" height="682" fill="white" transform="translate(0 -1)"/>
</clipPath>
</defs>
</svg>
