<svg width="152" height="112" viewBox="0 0 152 112" fill="none" xmlns="http://www.w3.org/2000/svg">
<path d="M111.965 112C110.255 112 108.833 111.425 107.7 110.275C106.567 109.125 106 107.7 106 106V78H78C76.3 78 74.875 77.4217 73.725 76.265C72.575 75.1082 72 73.6749 72 71.965C72 70.255 72.575 68.8333 73.725 67.7C74.875 66.5667 76.3 66 78 66H106V38C106 36.3 106.578 34.875 107.735 33.725C108.892 32.575 110.325 32 112.035 32C113.745 32 115.167 32.575 116.3 33.725C117.433 34.875 118 36.3 118 38V66H146C147.7 66 149.125 66.5783 150.275 67.735C151.425 68.8918 152 70.3251 152 72.035C152 73.745 151.425 75.1667 150.275 76.3C149.125 77.4333 147.7 78 146 78H118V106C118 107.7 117.422 109.125 116.265 110.275C115.108 111.425 113.675 112 111.965 112ZM6 78C4.3 78 2.875 77.4217 1.725 76.265C0.575 75.1082 0 73.6749 0 71.965C0 70.255 0.575 68.8333 1.725 67.7C2.875 66.5667 4.3 66 6 66H54C55.7 66 57.125 66.5783 58.275 67.735C59.425 68.8918 60 70.3251 60 72.035C60 73.745 59.425 75.1667 58.275 76.3C57.125 77.4333 55.7 78 54 78H6ZM6 45C4.3 45 2.875 44.4217 1.725 43.265C0.575 42.1082 0 40.6749 0 38.965C0 37.255 0.575 35.8333 1.725 34.7C2.875 33.5667 4.3 33 6 33H88C89.7 33 91.125 33.5783 92.275 34.735C93.425 35.8918 94 37.3251 94 39.035C94 40.745 93.425 42.1667 92.275 43.3C91.125 44.4333 89.7 45 88 45H6ZM6 12C4.3 12 2.875 11.4217 1.725 10.265C0.575 9.1082 0 7.67487 0 5.965C0 4.255 0.575 2.83333 1.725 1.7C2.875 0.566667 4.3 0 6 0H88C89.7 0 91.125 0.578331 92.275 1.735C93.425 2.8918 94 4.32513 94 6.035C94 7.745 93.425 9.16667 92.275 10.3C91.125 11.4333 89.7 12 88 12H6Z" fill="#3CA3D2"/>
</svg>
