<?xml version="1.0" encoding="utf-8"?>
<!-- Generator: Adobe Illustrator 26.4.1, SVG Export Plug-In . SVG Version: 6.00 Build 0)  -->
<svg version="1.1" id="Слой_1" xmlns="http://www.w3.org/2000/svg" xmlns:xlink="http://www.w3.org/1999/xlink" x="0px" y="0px"
	 viewBox="0 0 1037.9 963.9" style="enable-background:new 0 0 1037.9 963.9;" xml:space="preserve">
<style type="text/css">
	.st0{clip-path:url(#SVGID_00000091738030492347923510000016212687793054893485_);}
	.st1{fill:#3CA3D2;}
</style>
<g>
	<g>
		<g>
			<g>
				<g>
					<g>
						<g>
							<defs>
								<polyline id="SVGID_1_" points="1918.3,-793.5 1074.8,2999.1 -537.7,2640.4 305.8,-1152.1 								"/>
							</defs>
							<clipPath id="SVGID_00000096031253720031997950000010910687323092320645_">
								<use xlink:href="#SVGID_1_"  style="overflow:visible;"/>
							</clipPath>
							<g style="clip-path:url(#SVGID_00000096031253720031997950000010910687323092320645_);">
								<path class="st1" d="M1037.9,955.9c0-80.9-212.9,55-407.9-28c-86.1-36-189.4-2.6-208-27.4c-109.4,31.1-214.6-0.9-214.2-6.7
									c0.8-14.2-50.2,10-55.5,0c-9.6-18.1,34.8-29.3,39.6-44.4c5.5-17.3-24.2-15.4-35.9-29.8c-7.3-8.9-15.3-17.3-21.5-27.1
									c-3.4-5.4-4.7-13-5.4-19.9c-1.8-17.7-0.9-36-4.2-53.3c-6.2-32.7-16.2-64.3-21.4-97.2c-3.6-23-1.7-47.4,10.3-69.3
									c9.9-18.1,20.4-35.8,32-56.1c3,1.9,9.5,5.4,15.3,9.8c5.3,4,9.8,9.1,14.7,13.7c0.9-1,1.8-2,2.7-3c1.6,10.4,3.2,20.8,4.8,31.1
									c4.7,1.7,9.3,3.2,15.1,5.3c-2.8,6-5.2,10.8-7.2,15.7c-3.7,8.8,2,30.6,8.1,29.3c15.1-3.3,16.4,10.1,21.7,18.4
									c5.4,8.3,9.8,17.3,14.9,26.4c4.7-21,8.7-39.8,13.1-58.6c6.5-28.3,9.5-56.5,5.5-85.3c-1.5-11.2-2.2-25.9,3.1-34.4
									c8.2-13.2,5.8-23.1,2.8-35.6c-2.9-12.2-3.2-25.3-4.9-40.7c13.5,0.8,23.1,1.3,34.2,1.9c0.6-5.7,0.8-11.5,1.8-17.1
									c2.1-11.3,2.5-23.9,7.6-33.5c5.8-10.8,2.4-13.8-7.8-16.9c5.5-13.8,10.6-26.6,16.2-40.4c10.2,6.8,15.6,13.4,11.6,23.5
									c-12.5,31.1-6.3,57.3,12.3,80.9c1.7,2.2,2.3,5.4,4.1,7.5c2.4,2.8,5.5,5,8.8,8c9.1-21.8,4.6-41.1-2.1-57
									c-13.4-31.8-9.5-61.5,4.8-91.9c5.2,1.1,10.7,2.4,15.3,3.4c-0.1,35.1-2.9,69.6,23,94.7c2,2,2.6,5.9,3.7,8.9
									c4.8,13.5,13.8,16.9,26.2,9.9c14-7.9,22.4-20.2,23.9-37.2c23.1,2.7,30.9,2,27.4,26.8c-3.8,26.2-8.2,52.2-11.8,78.4
									c-6,44.2-2.8,87.4,8,129.4c3.2,12.5,9.9,24.7,17.7,34.3c9.8,12,17.7,23,15.7,41c-2.7,24.5,4.7,43.9,25.2,55.2
									c7,3.9,13.4,9,20.6,12.4c10.4,4.9,12.7,11.9,9.1,24.2c-4.4,15.4-11.4,31,1.9,46.1c7.1,8,13.6,9.9,22.4,7.2
									c9.3-2.8,16.6-9.8,15.2-20.5c-3.5-28.3-6.6-57.1-13.8-84.2c-3.6-13.4-4.6-24.3,0.9-39.5c20.7,19.5,23.9,45.6,26.2,72.2
									c19.4,3.6,28.5-9,32.2-27.2c7.3-36.1,1.3-70.4-12.9-102.5c-4.8-10.9-10.2-22.6-27.6-11.2c-2-19.3-3.8-36.3-5.8-54.3
									c-2.8-0.3-6.6-0.8-14-1.7c0.6,20.8,0.9,39.7,1.6,58.6c0.6,16.1,1.5,32.1,2.4,50c-15.6-4.5-20.4-14.2-18.6-25.5
									c2.7-16.8-6.7-24.4-16.2-31.8c-7.3-5.7-15.9-9.4-24.9-14.5c1.9-4.5,4.8-8.8,5.4-13.4c1.3-8.9,5-21.2,1.3-26.3
									c-13.5-18.8-13.7-37.9-6.6-60c4.3-13.4,7.2-27.5,9.2-41.4c1.9-13.4,4.5-28.1-6-38.2c-9.4-9-10.6-18.9-6.3-31.6
									c3.7-10.9,1.2-18.8-9.7-23c-10.3-3.9-21.5-7.7-29.3-15.2c-10-9.5-17.4-4.8-24.9,2.2c-4.9,4.6-8.1,11.4-12.1,17.2
									c-23.8-17.7-33-114.5-16.1-164.6c11.9-0.8,16.4,8.4,15.5,18.4c-1.5,16.9,6.8,24.5,18.1,30.9c4.6,2.6,9,5.5,13.3,8.2
									c-9.1,57.8-9.1,59.4-3.3,64c8.7-3.5,15-8.6,20.6-8c27.9,2.8,35.8,17.3,38,45.5c9.2-0.3,18.6-0.6,28.8-0.9
									c-5.8,23.9,6.1,38,15,53.6c4.3,7.5,7.7,15.7,11.5,23.5c-1.2,1-2.4,1.9-3.6,2.9c14.5,3.2,29,6.5,43.8,9.7
									c3.4-13.2,2-21.5-11.6-24.2c-5.6-1.1-13-6.9-14.4-12.4c-2.7-10.6-1.7-22.6-2.3-34.5c-4.7-1-9.6-2.1-14.7-3.3
									c-0.6-4-0.4-8.2-1.9-11.3c-6.5-13.9,1-21.9,9.2-32c13.6-16.7,26.5-34.6,36.9-53.8c5.1-9.3,9.5-13.1,18.2-13.3
									c19.7-0.4,38.1,2.9,54.3,15.9c2.8,2.2,13.7-1,14.3-3.3c3.9-15.5,5-31.7,8.9-47.1c2.8-11.2-3.4-14.1-9.4-17.8
									c-3.3-2.1-7.3-2.9-11.5-4.4c3.5-9.6,6.7-18.2,9.9-26.8c38.8,0.9,41.1-0.6,55.9-34.8c7.5,4.4,7.5,4.4,10.6,30.5
									c17.5-1.3,25.9,11.3,33.2,26.3c5.5,11.3,11.7,22.1,18.1,32.8c1.9,3.1,5.6,4.9,8.7,7.6c4.8-12.5,8.5-22.3,12.7-33.3
									c18.3,44.4,36,87.3,53.9,130.5c7.3,0.4,15.6,0.9,24.3,1.3c1.3-6,3.6-11.5,3.6-16.8c-0.2-30.7-0.3-61.4,9.1-91.5
									c0.5-1.5-2.2-4-3.3-6c-1.6,2-4.1,3.8-4.6,6.1c-3.5,14.2-6.5,28.5-9.7,42.7c-16-4-19.6-10.5-16.7-25.8
									c3.2-16.7,7.5-33.6,8-50.3c0.5-17.4-2.9-34.7-4.5-52c-0.7-7.4-1.5-14.9-2.2-22.4c1.4-0.5,2.8-1,4.3-1.4
									c9.2,9.3,18.3,18.6,27.4,27.9c1.8-1.1,3.6-2.2,5.4-3.3c-2.4-19.8-4.8-39.5-7.4-60.5c35.3,5.4,38,3.5,41.5,34.6
									c5.6-1.6,11-3.1,16.5-4.6c5.6,1.5,12,2.9,17.1,0.6c9.4-4.2,6.7-13.2,4.1-20.5c-1.6-4.3-5.5-7.4-8-11.4
									c-4.1-6.6-5.2-12.1,4.2-15.7c6.1-2.3,22.3-8.5,27.2-11.3 M774.8,293.2c3.6,0,8.4,1.6,10.5-0.3c16-14.9,13.1,2.4,15.7,10.3
									c1.4,4.1,2.7,8.1,5,15.1c16.4-41,17.2-49.3,8.8-76.2c-7.8-24.7-20.1-47.4-30.5-70.9c-0.3-0.8-1.2-1.4-2-1.7
									c-11.8-3.8-23.6-7.5-39.3-12.6c4.4,10.5,7.3,17.2,10.1,24c1.8,4.5,5.9,12.1,4.9,13c-12.3,11.6-1.2,20.6,2.5,27.9
									C771.8,244.2,779.8,266.6,774.8,293.2z M396.2,438.1c1.2,15,5.7,27.9,15.6,38.6c8.6,9.3,10.2,25.3,23.1,32.8
									c0.9-10.2,3.3-18.4,2-25.6c-5-26.9-11.1-53.5-17.5-79.9c-0.7-2.9-6.3-6.1-9.4-5.7c-3.4,0.5-8.4,4.6-9.3,8
									C398.5,415.8,397.9,425.8,396.2,438.1z M668.3,411.4c14.7-10.7,20-26.5,22.5-45.1c-3.4,0-5.7-0.6-7.7,0.1
									c-20.7,7.7-35.4,0.8-46-19c-3.5-6.6-9.5-11.6-16.6-19.9c-1.1,29.3,9.8,49.8,20.1,70.3c1.1,2.2,6.2,3.7,8.6,2.8
									C659.1,396.7,662.8,403.1,668.3,411.4z M286.9,531.4c6.2,17.9,13.5,35.4,18.2,53.9c4.1,15.8,11.8,18.3,23.7,13.1
									c6.5-14.8,7.6-28.1-3.1-39.6c-1.7-1.8-1.4-5.6-2.8-8c-8.4-14.5-13.6-32.8-33-36.4C288.6,520.1,287.7,524.5,286.9,531.4z
									 M353,499.9c4.6,11,8.7,22.2,14,32.7c2.4,4.8,7.1,8.2,10.8,12.2c1.3-0.9,2.7-1.9,4-2.8c-0.1-4.1,0.8-8.6-0.3-12.4
									c-8.9-30.3-17.9-60.5-27.4-90.5c-1-3.1-5.6-4.6-9.7-7.7C338.4,457.5,343,478.3,353,499.9z M1008,191.2
									c6.2,6.4,4.9,23.1,19.9,18.2c0.1-43.2,0.1-43.2-22.2-40.5C1006.3,175.6,1006.9,182.2,1008,191.2z M319.4,481.7
									c-0.2,11.6-0.5,23.2-0.7,34.8c0.9,0.9,1.9,1.8,2.8,2.8c2.7-3.1,7-5.8,7.8-9.4c1.9-7.5,2.3-15.5,2.9-23.3
									c1.9-28,0.9-28.5-24.2-28.2c3.2,4.8,5.5,8,7.5,11.4C317.2,472.9,318.4,476.1,319.4,481.7z M298.5,412.3
									c-2.7-4-5.4-8-10-14.8c-2.3,10.3-3.4,15.4-5.8,26.1C289.9,419.5,293.9,417.2,298.5,412.3z"/>
								<path class="st1" d="M1.7,566.4c3.9,0.3,9.6,0.8,10.8,3.6c6.2,15.4,12.1,31.2,16.6,47.3c2.8,10,3.1,21.1,4.6,31.6
									c-2.3,1-4.7,2.1-7,3.1c-4.8-10.1-9.9-20.2-14.4-30.4c-4.1-9.3-9-18.4-11.2-28.4C-0.7,585.3,1.1,576.2,1.7,566.4z"/>
								<path class="st1" d="M234.1,409c9.7,11.5,7.2,23.5,3.5,36.5c-8.8-2-17-3.8-25.7-5.7c1.7-13.8,3.3-26.9,5.4-44.2
									C224.3,401.1,228.8,404.7,234.1,409z"/>
								<path class="st1" d="M813.7,58.3c9.9,0.8,12.6,5.4,10,15.1c-3.2,12-5.5,24.3-8.2,36.4c-15.2-1.7-21.5-10.6-16.5-24.9
									C802.2,75.5,807.9,67,813.7,58.3z"/>
								<path class="st1" d="M670.7,209.7c-11.3-15.8-11.3-15.8-6.5-31.1c13.2,4,18.2,16.9,13.2,34.3
									C675.5,211.9,673.6,211,670.7,209.7z"/>
							</g>
						</g>
					</g>
				</g>
			</g>
		</g>
	</g>
</g>
</svg>
