<svg width="192" height="192" viewBox="0 0 192 192" fill="none" xmlns="http://www.w3.org/2000/svg">
<path d="M28 160C24.8 160 22 158.8 19.6 156.4C17.2 154 16 151.2 16 148V44C16 40.8 17.2 38 19.6 35.6C22 33.2 24.8 32 28 32H164C167.2 32 170 33.2 172.4 35.6C174.8 38 176 40.8 176 44V148C176 151.2 174.8 154 172.4 156.4C170 158.8 167.2 160 164 160H28ZM28 148H164V60.8H28V148ZM72.2 104.4L55.6 87.8C54.4 86.6 53.8333 85.2 53.9 83.6C53.9667 82 54.6 80.6 55.8 79.4C57 78.2 58.4 77.6 60 77.6C61.6 77.6 63 78.2 64.2 79.4L85 100.2C86.2 101.4 86.8 102.8 86.8 104.4C86.8 106 86.2 107.4 85 108.6L64.2 129.4C63 130.6 61.6 131.2 60 131.2C58.4 131.2 57 130.6 55.8 129.4C54.6 128.2 54 126.8 54 125.2C54 123.6 54.6 122.2 55.8 121L72.2 104.4ZM104 134.4C102.267 134.4 100.833 133.833 99.7 132.7C98.5667 131.567 98 130.133 98 128.4C98 126.667 98.5667 125.233 99.7 124.1C100.833 122.967 102.267 122.4 104 122.4H136C137.733 122.4 139.167 122.967 140.3 124.1C141.433 125.233 142 126.667 142 128.4C142 130.133 141.433 131.567 140.3 132.7C139.167 133.833 137.733 134.4 136 134.4H104Z" fill="#3CA3D2"/>
</svg>
