<svg width="894" height="1024" viewBox="0 0 894 1024" fill="none" xmlns="http://www.w3.org/2000/svg">
<g clip-path="url(#clip0_16_725)">
<path d="M562.069 -134.875C672.195 -134.875 782.322 -134.875 892.486 -134.875C892.486 344.993 892.486 824.862 892.486 1305.12C742.995 1305.12 593.465 1305.12 443.255 1304.68C441.241 1296.2 436.842 1293.73 427.216 1296.41C421.98 1297.86 420.706 1296.77 420.378 1292.99C419.826 1286.62 418.837 1280.27 417.992 1273.6C411.978 1274.04 408.336 1273.47 408.151 1268.64C408.06 1266.28 405.244 1264.05 404.385 1261.61C402.142 1255.23 396.796 1254.47 390.941 1255.88C390.941 1262.69 391.307 1268.99 390.817 1275.25C390.467 1279.72 391.659 1282.79 398.026 1283.04C398.026 1285.7 398.026 1287.91 398.026 1291.26C393.66 1289.88 388.63 1289.5 386.728 1287.44C382.301 1282.64 376.478 1285.33 374.701 1287.1C369.604 1292.16 364.549 1290.04 358.744 1289.08C355.552 1288.55 350.73 1288.42 348.805 1289.83C344.433 1293.03 341.077 1290.82 337.68 1289.65C333.842 1288.33 330.422 1286.31 326.393 1284.39C329.892 1279.39 324.916 1275.16 321.388 1270.65C306.587 1251.74 291.455 1232.94 290.11 1209.99C273.276 1209.82 264.826 1186.91 267.865 1170.42C272.669 1171.66 278.158 1171.99 281.555 1174.19C287.678 1178.16 293.769 1182.72 297.666 1187.99C304.124 1196.71 308.759 1206.22 314.362 1215.33C315.201 1216.69 317.129 1217.67 318.553 1218.82C320.129 1214.76 319.688 1211.55 320.212 1208.42C321.723 1199.43 318.151 1192.68 308.906 1186.43C300.796 1180.94 294.206 1173.8 293.04 1164.8C292.523 1160.82 290.19 1158.52 284.295 1157.47C273.579 1155.55 268.258 1149.02 263.981 1141.67C257.99 1131.38 250.957 1121.44 244.918 1111.17C242.249 1106.63 239.298 1101.61 239.365 1096.84C239.469 1089.33 237.305 1083.38 229.251 1078.86C223.878 1075.84 221.687 1071.66 222.787 1066.63C224.615 1058.28 219.18 1051.63 214.123 1044.92C212.094 1042.23 209.34 1039.86 207.182 1037.22C200.046 1028.48 192.792 1019.75 195.117 1008.46C196.881 1008.23 198.648 1008 200.415 1007.77C200.776 1007.28 201.137 1006.78 201.497 1006.29C198.158 1004.26 195.099 1001.84 191.403 1000.32C187.573 998.746 185.071 997.154 185.824 993.556C186.087 992.298 185.964 990.908 185.556 989.666C182.092 979.108 178.521 968.569 174.979 958.017C167.666 959.514 164.146 957.393 163.681 950.687C163.401 946.655 162.955 942.546 161.654 938.651C155.806 921.154 149.306 903.781 143.719 886.238C141.452 879.118 136.95 872.064 140.164 864.32C141.669 860.694 142.709 856.956 144.004 853.141C152.612 851.561 159.099 855.549 165.879 858.513C174.71 862.373 179.838 867.782 178.749 876.168C178.45 878.472 180.396 881.489 182.555 883.333C188.921 888.769 195.903 893.785 202.688 898.931C202.852 899.055 203.543 898.776 203.985 898.678C203.733 895.211 204.334 891.556 203.075 888.323C199.155 878.254 194.778 868.383 196.029 857.56C196.554 853.019 195.425 848.333 194.681 843.748C193.67 837.509 191.325 831.763 185.356 826.924C183.05 825.055 181.792 821.803 181.663 819.135C181.421 814.128 182.349 809.087 182.835 803.551C187.175 802.597 191.667 803.903 194.351 807.318C197.529 811.362 201.817 812.727 207.674 813.823C213.437 814.902 223.512 812.088 222.945 821.045C226.02 821.045 228.568 821.045 230.014 821.045C233.488 809.531 221.55 803.309 214.543 794.765C217.963 794.472 220.228 794.278 222.762 794.06C222.15 788.364 221.583 783.087 220.971 777.393C224.955 777.928 227.916 778.325 232.168 778.896C231.477 774.736 231.154 771.283 230.3 767.908C226.395 752.468 221.935 737.103 218.471 721.608C215.839 709.835 213.997 697.955 203.462 688.395C197.823 683.278 191.568 678.557 184.313 672.611C187.286 662.409 182.676 652.757 169.924 645.26C168.253 644.277 168.679 641.196 168.184 639.081C166.968 633.888 168.056 627.049 164.088 623.855C156.893 618.065 159.419 612.358 160.184 606.479C161.056 599.78 160.449 593.807 152.583 589.544C147.693 586.893 142.48 584.516 138.046 581.479C135.606 579.807 134.019 577.15 132.849 574.713C129.842 568.449 128.118 561.756 124.365 555.788C117.248 544.47 108.228 533.822 101.623 522.351C96.9968 514.316 95.142 505.338 98.9185 496.47C102.039 489.141 105.479 481.892 109.238 473.592C111.047 474.034 114.873 474.771 118.48 475.911C121.728 476.938 124.736 478.406 127.85 479.679C128.204 479.246 128.559 478.813 128.914 478.38C130.98 482.018 133.047 485.657 135.09 489.256C137.793 489.474 140.383 489.682 143.712 489.95C142.949 492.339 142.252 494.258 141.731 496.204C140.799 499.689 146.376 507.125 149.474 506.136C157.056 503.715 159.3 508.463 163.117 511.034C166.918 513.594 170.326 516.492 174.079 519.375C174.079 511.404 174.016 504.271 174.094 497.139C174.212 486.37 172.469 475.94 166.971 465.836C164.841 461.923 162.765 456.655 164.546 453.151C167.312 447.706 164.876 444.314 161.847 440.034C158.879 435.841 157.196 431.119 154.49 425.712C161.722 424.898 166.867 424.318 172.794 423.651C172.434 421.553 171.858 419.436 171.75 417.306C171.534 413.04 170.277 408.46 171.855 404.577C173.633 400.203 171.519 399.404 165.739 399.086C167.04 393.641 168.24 388.62 169.545 383.159C175.742 384.801 179.372 386.766 178.41 390.733C175.439 402.982 181.791 411.959 194.419 418.988C195.579 419.634 196.275 420.774 197.454 421.385C199.064 422.22 200.93 422.768 203.019 423.566C205.264 414.938 200.612 408.332 195.203 403.107C184.415 392.685 182.938 381.637 186.943 369.46C189.801 369.46 192.874 369.46 195.409 369.46C199.467 382.151 202.062 394.872 218.693 401.864C220.008 402.417 220.771 403.774 221.708 404.801C225.826 409.314 230.977 409.81 236.726 406.261C243.168 402.284 246.184 397.158 244.959 390.903C257.472 390.011 261.537 389.121 262.569 398.392C263.656 408.16 264.385 417.953 265.572 427.714C267.573 444.173 274.391 459.569 284.979 473.872C288.129 478.127 293.088 482.003 298.34 484.851C304.9 488.409 310.393 491.765 311.465 498.416C312.926 507.482 319.113 513.919 331.281 516.364C335.432 517.198 339.425 518.55 343.615 519.188C349.666 520.109 351.698 522.47 351.274 527.221C350.747 533.136 348.902 539.342 357.697 543.751C362.366 546.091 366.029 546.23 370.355 544.575C374.958 542.815 377.94 539.682 375.981 535.926C370.782 525.958 365.807 515.789 358.789 506.565C355.318 502.003 353.479 498.13 354.615 492.221C367.812 497.598 372.589 506.801 376.919 516.225C387.592 515.95 390.915 510.663 390.729 503.794C390.358 490.155 383.16 478.218 371.905 467.753C368.09 464.206 363.85 460.397 356.024 465.918C352.676 459.096 349.734 453.1 346.612 446.738C345.101 446.841 343.054 446.982 339.044 447.257C341.771 454.729 344.176 461.543 346.754 468.319C348.946 474.08 351.338 479.797 353.911 486.204C345.13 485.848 341.471 482.727 341.091 478.471C340.529 472.18 334.703 470.18 328.808 468.259C324.282 466.783 319.281 466.155 313.937 465.034C314.405 463.261 315.408 461.463 315.222 459.738C314.865 456.42 315.373 451.681 312.809 450.114C303.468 444.408 301.137 437.489 302.296 428.945C303 423.751 302.861 418.429 302.3 413.214C301.762 408.221 301.373 402.689 294.651 399.876C288.641 397.36 286.825 393.883 287.597 388.939C288.262 384.684 286.02 382.026 279.796 381.403C273.92 380.815 267.562 380.354 262.519 378.278C256.129 375.647 252.773 377.927 249.64 381.086C247.59 383.154 246.682 385.88 245.277 388.286C230.626 383.819 214.394 349.534 217.433 330.046C223.611 328.803 227.065 331.77 227.765 335.454C228.951 341.698 234.211 343.783 240.958 345.178C243.682 345.741 246.356 346.445 248.935 347.057C250.916 368.715 251.113 369.292 254.71 370.463C258.868 368.492 261.624 366.159 264.671 365.913C279.725 364.696 285.584 369.289 290.101 379.308C294.951 378.456 299.858 377.592 305.189 376.655C304.94 385.756 312.873 389.922 319.4 394.834C322.55 397.204 325.311 399.875 328.248 402.41C327.726 402.86 327.204 403.309 326.682 403.759C334.714 403.759 342.746 403.759 350.967 403.759C351.205 398.727 349.48 395.834 341.974 395.932C338.882 395.972 334.307 394.484 332.931 392.612C330.259 388.974 329.37 384.574 327.676 380.325C325.061 380.325 322.373 380.325 319.549 380.325C318.761 378.933 318.384 377.405 317.234 376.381C312.191 371.889 315.174 368.381 318.338 364.06C323.566 356.919 328.286 349.408 331.53 341.642C333.108 337.862 334.991 336.126 339.586 335.353C349.942 333.609 360.031 333.344 370.118 336.722C371.844 337.3 377.265 335.269 377.301 334.358C377.538 328.446 376.225 322.496 376.489 316.586C376.68 312.297 373.035 311.77 369.438 310.897C367.449 310.414 365.245 310.444 362.839 310.214C363.582 306.471 364.257 303.069 364.921 299.725C385.525 296.917 386.576 296.206 390.381 282.641C394.866 283.621 394.866 283.621 399.545 292.803C408.621 290.926 414.569 294.82 420.158 299.649C424.372 303.29 428.921 306.72 433.551 310.058C434.915 311.041 437.061 311.392 439.046 312.104C440.092 307.21 440.92 303.335 441.838 299.04C456.749 313.642 471.121 327.717 485.625 341.922C489.556 341.474 493.981 340.97 498.632 340.44C498.632 338.152 499.185 335.995 498.541 334.072C494.823 322.971 491.157 311.897 492.586 300.259C492.656 299.683 490.975 298.981 490.11 298.337C489.512 299.197 488.422 300.048 488.396 300.918C488.237 306.325 488.316 311.735 488.316 317.137C479.412 316.989 476.727 314.932 476.459 309.158C476.166 302.86 476.452 296.42 474.76 290.32C473.005 283.996 469.183 278.005 466.263 271.868C465.007 269.229 463.744 266.592 462.485 263.953C463.178 263.665 463.872 263.378 464.566 263.09C470.489 265.717 476.412 268.344 482.335 270.972C483.156 270.428 483.977 269.885 484.797 269.342C481.201 262.386 477.604 255.431 473.797 248.068C493.078 247.193 494.28 246.26 499.803 257.249C502.587 256.222 505.271 255.233 507.954 254.244C511.072 254.335 514.606 254.33 517.051 253.084C521.525 250.803 519.049 247.749 516.828 245.343C515.503 243.908 513.037 243.118 511.275 241.879C508.363 239.832 507.1 237.907 511.663 235.871C514.629 234.548 517.093 232.572 519.321 231.177C523.36 231.441 527.072 231.684 532.864 232.064C530.633 228.199 529.709 225.305 527.556 223.112C521.362 216.807 518.003 210.085 519.188 202.064C519.762 198.176 519.281 194.198 519.289 190.261C519.302 183.203 519.306 183.203 528.644 183.842C529.803 186.103 530.337 188.616 532.13 190.389C540.083 198.254 548.546 205.819 556.477 213.696C558.502 215.708 559.535 218.399 560.527 220.892C561.901 224.348 562.627 227.952 563.955 231.419C565.616 235.753 567.547 240.03 569.503 244.293C569.911 245.184 570.775 246.043 571.7 246.693C577.668 250.884 584.8 254.409 589.475 259.305C596.325 266.48 606.579 272.084 606.655 282.743C606.717 291.543 615.671 294.99 626.644 291.899C627.558 281.293 627.482 281.35 617.97 273.892C613.223 270.17 608.545 266.357 604.345 262.281C601.588 259.605 598.766 256.57 597.724 253.365C596.285 248.938 596.628 244.187 595.909 239.602C595.72 238.399 594.736 237.055 593.583 236.19C587.873 231.906 581.87 228.215 582.328 220.842C582.604 216.401 580.196 212.031 574.246 208.818C564.827 203.732 558.732 197.148 560.229 187.115C561.163 180.851 556.823 174.837 549.276 171.339C544.449 169.102 542.783 166.227 542.866 162.212C543.27 142.732 540.094 123.554 534.002 104.664C529.985 92.2078 525.037 80.0038 514.774 69.5154C512.358 67.0465 508.49 64.7949 507.816 62.0791C506.662 57.42 507.497 52.4739 507.497 49.2057C512.392 47.1599 517.073 46.3302 518.932 44.12C520.926 41.7485 520.368 38.0862 520.737 34.9744C521.169 31.3362 533.793 26.0285 536.162 28.7682C539.668 32.8213 541.612 38.0037 542.435 42.8805C542.736 44.6622 537.934 46.9448 534.295 49.9652C535.589 50.845 537.821 52.8785 540.639 54.1673C545.629 56.4496 549.376 59.0765 550.616 63.7229C553.42 74.2286 560.662 82.6198 572.532 88.5129C574.022 89.2527 576.387 90.1916 577.543 89.7667C578.78 89.3117 579.838 87.2769 579.633 86.0635C578.869 81.5459 578.701 76.6617 576.195 72.6913C571.745 65.6423 571.706 58.8774 575.511 52.0332C577.897 47.7401 576.077 44.3236 573.969 40.4826C571.902 36.7169 569.611 32.5866 569.725 28.6552C569.939 21.257 567.654 15.0485 561.721 9.11319C558.876 6.26767 558.34 2.07983 556.581 -1.90341C564.98 -2.34367 570.815 -2.40877 574.36 2.88185C575.02 3.86694 579.412 4.04088 581.754 3.59227C586.431 2.69603 590.881 1.10913 597.077 -0.66571C593.891 -3.09822 590.549 -5.64995 587.207 -8.20167C586.431 -7.97269 585.654 -7.74374 584.877 -7.51477C585.884 -9.53738 586.358 -12.9172 588.011 -13.295C591.272 -14.0402 596.78 -14.2069 598.548 -12.6979C605.139 -7.07186 610.548 -0.644989 616.51 5.41902C617.689 6.6187 619.351 7.54234 620.791 8.59328C621.892 8.13573 622.993 7.67821 624.094 7.22067C621.633 -0.310379 619.78 -7.99553 616.578 -15.3385C610.931 -28.2877 600.264 -40.1879 603.275 -54.857C603.505 -55.9801 602.708 -57.4327 601.828 -58.4492C593.825 -67.684 591.517 -77.9063 593.132 -88.6651C594.232 -95.9934 590.648 -101.978 585.174 -107.524C582.117 -110.622 578.401 -113.34 575.29 -116.411C569.613 -122.018 563.073 -127.307 562.069 -134.875ZM417.565 349.288C419.455 348.994 422.211 349.207 423.095 348.327C429.8 341.653 430.302 348.141 432.618 350.79C433.809 352.152 434.987 353.519 437.022 355.866C440.896 339.72 440.332 336.657 432.686 327.58C425.695 319.278 416.489 312.061 408.233 304.382C407.969 304.136 407.428 303.967 406.996 303.939C400.33 303.508 393.662 303.105 384.738 302.558C388.31 306.002 390.626 308.208 392.9 310.438C394.394 311.903 397.448 314.338 397.041 314.748C391.902 319.937 398.801 322.293 401.626 324.653C410.2 331.815 417.046 339.269 417.565 349.288ZM234.633 432.156C237.007 437.496 240.933 441.786 247.418 444.865C253.038 447.534 255.79 453.203 263.469 454.868C262.757 451.121 263.074 447.947 261.517 445.454C255.7 436.142 249.388 427.004 242.899 417.952C242.186 416.957 238.827 416.238 237.26 416.647C235.532 417.099 233.346 418.98 233.306 420.273C233.193 423.909 234.081 427.563 234.633 432.156ZM375.215 400.61C381.751 395.571 382.67 389.43 381.787 382.508C380.002 382.787 378.682 382.752 377.718 383.182C367.697 387.642 359.103 386.321 351.172 379.997C348.525 377.887 344.774 376.582 340.047 374.145C342.898 384.841 351.088 391.35 358.94 397.948C359.772 398.648 362.646 398.793 363.819 398.249C368.602 396.033 371.318 398.057 375.215 400.61ZM187.855 474.683C193.226 480.666 199.136 486.416 203.805 492.702C207.806 498.089 212.182 498.385 217.861 495.516C219.532 489.649 218.579 484.751 211.575 481.432C210.476 480.91 210.155 479.516 209.158 478.773C203.022 474.199 198.142 468.004 187.429 468.257C187.429 470.469 187.429 472.135 187.855 474.683ZM219.081 458.004C222.795 461.599 226.295 465.341 230.317 468.722C232.162 470.272 235.033 471.112 237.439 472.273C238.034 471.826 238.628 471.38 239.223 470.932C238.708 469.44 238.624 467.746 237.611 466.487C229.379 456.246 221.055 446.045 212.494 435.963C211.616 434.93 208.997 434.757 206.485 433.964C206.351 443.846 211.211 450.971 219.081 458.004ZM469.139 1300.52C470.094 1301.67 471.004 1303.81 472.009 1303.84C481.738 1304.09 491.482 1303.99 501.071 1303.99C501.071 1299.44 501.071 1295.61 501.071 1291.66C488.717 1291.13 478.603 1294.52 469.139 1300.52ZM535.532 242.504C539.941 250.164 544.567 257.758 548.66 265.516C550.525 269.053 553.194 269.59 558.196 268.4C557.529 265.144 557.922 261.685 556.089 259.169C551.488 252.854 545.969 246.919 540.508 240.996C540.082 240.535 537.248 241.364 535.532 242.504ZM599.018 19.8451C595.332 17.7754 591.646 15.7056 587.785 13.5378C586.289 23.4451 595.469 31.4149 606.172 29.8286C606.81 25.6241 605.41 22.2022 599.018 19.8451ZM528.721 293.622C532.74 295.452 534.001 301.57 541.38 298.613C536.367 282.978 536.367 282.978 524.875 285.751C525.985 288.119 527.091 290.481 528.721 293.622ZM199.176 454.125C200.415 458.342 201.653 462.559 202.891 466.777C203.489 467.033 204.087 467.29 204.685 467.547C205.759 466.211 207.677 464.894 207.733 463.533C207.849 460.661 207.146 457.745 206.506 454.883C204.214 444.621 203.661 444.514 190.418 446.638C192.676 448.124 194.284 449.079 195.726 450.163C196.966 451.094 198.015 452.173 199.176 454.125ZM462.68 1280.28C458.173 1283.2 452.984 1285.92 456.953 1291.62C458.969 1291.62 461.317 1292.03 463.265 1291.54C467.97 1290.33 472.79 1288.86 472.052 1283.93C471.458 1279.97 468.551 1278.5 462.68 1280.28ZM614.46 37.2524C613.312 38.1659 611.056 39.2137 611.213 39.9691C611.794 42.7591 613.173 45.4525 614.274 48.238C617.439 48.238 620.439 48.238 623.564 48.238C621.259 44.2339 624.147 38.3725 614.46 37.2524ZM179.966 430.708C178.075 429.481 176.183 428.254 172.968 426.169C172.968 430.078 172.968 432.03 172.968 436.062C176.273 433.993 178.124 432.834 179.966 430.708Z" fill="#67564E"/>
<path d="M180.028 725.212C179.271 722.528 178.585 720.192 178.584 717.856C178.583 713.991 181.596 712.745 186.267 713.513C187.814 713.767 189.301 714.236 192.966 715.133C189.384 707.993 186.444 702.133 183.373 696.013C195.117 694.972 196.798 696.212 199.371 703.303C202.549 712.057 207.052 720.532 210.205 729.29C211.955 734.155 212.121 739.351 212.973 744.241C207.245 745.622 204.395 744.694 203.534 740.853C202.73 737.262 200.107 735.865 194.98 735.623C191.842 735.475 188.609 733.102 185.965 731.27C183.708 729.707 182.229 727.489 180.028 725.212Z" fill="#67564E"/>
<path d="M523.79 13.6919C523.051 16.8645 522.37 19.5435 521.385 23.424C518.172 22.2852 514.549 21.783 512.907 20.1337C511.877 19.0989 514.081 16.3627 514.379 14.3507C514.874 11.0089 515.684 7.56638 515.113 4.29297C514.396 0.183168 512.421 -3.79898 510.666 -8.74477C507.569 -8.4879 503.506 -8.15092 498.496 -7.73538C499.198 -11.1519 499.808 -14.1228 500.431 -17.1523C510.498 -18.8017 513.694 -16.8045 515.02 -8.94161C515.447 -6.41078 516.876 -3.01764 519.347 -1.82245C527.821 2.27646 525.742 7.62492 523.79 13.6919Z" fill="#67564E"/>
<path d="M352.639 191.973C352.598 184.56 352.598 177.659 352.598 170.531C359.249 168.874 363.67 171.372 366.815 174.967C369.86 178.447 372.69 182.181 366.527 186.086C362.777 188.463 362.669 193.993 355.57 193.57C354.576 193.511 353.641 192.861 352.639 191.973Z" fill="#67564E"/>
<path d="M41.346 510.309C43.456 510.109 46.513 509.806 47.4556 510.742C52.567 515.817 57.4947 521.044 61.8003 526.531C64.4713 529.935 65.9254 533.894 67.9258 537.604C66.8131 538.165 65.7005 538.725 64.5878 539.285C60.8444 536.008 57.0118 532.786 53.3841 529.435C50.1132 526.414 46.4397 523.498 44.1207 520.073C42.2681 517.336 42.1853 513.903 41.346 510.309Z" fill="#67564E"/>
<path d="M471.713 206.433C473.767 210.328 475.533 213.851 477.299 217.375C476.757 217.908 476.215 218.441 475.673 218.974C472.182 217.919 466.695 217.554 465.579 215.677C462.42 210.367 457.466 204.987 459.384 198.691C460.339 198.276 461.295 197.861 462.251 197.446C465.309 200.318 468.367 203.19 471.713 206.433Z" fill="#67564E"/>
<path d="M145.571 434.695C152.028 438.062 152.126 442.622 151.709 447.608C146.807 447.608 142.285 447.608 137.484 447.608C136.75 442.495 136.052 437.63 135.13 431.199C139.493 432.622 142.287 433.533 145.571 434.695Z" fill="#67564E"/>
<path d="M398.245 12.585C402.031 14.5303 406.095 16.1027 408.265 18.6233C412.74 23.82 416.204 29.5228 420.084 35.0173C419.401 35.3969 418.717 35.7764 418.034 36.156C415.192 34.6784 411.565 33.6354 409.666 31.637C405.051 26.7803 401.119 21.5321 397.224 16.3067C396.571 15.4315 397.478 13.8801 398.245 12.585Z" fill="#67564E"/>
<path d="M410.487 261.184C415.794 260.696 417.79 262.142 417.562 265.842C417.278 270.455 417.494 275.086 417.494 279.674C409.233 280.274 404.89 277.561 405.839 272.004C406.464 268.341 408.467 264.815 410.487 261.184Z" fill="#67564E"/>
<path d="M387.839 215.452C388.635 219.058 389.723 222.365 389.227 225.527C388.801 228.246 386.07 229.315 382.564 227.189C375.227 222.741 374.53 220.22 379.186 210.565C382.183 212.207 384.813 213.648 387.839 215.452Z" fill="#67564E"/>
<path d="M382.418 184.581C384.21 185.433 386.365 186.275 386.331 187.062C386.177 190.657 385.409 194.237 384.85 197.895C375.81 194.958 374.181 192.588 375.23 183.404C377.482 183.797 379.627 184.171 382.418 184.581Z" fill="#67564E"/>
<path d="M417.488 82.5385C417.095 87.2188 422.054 91.7508 416.116 96.1217C411.501 92.3446 407.516 88.7508 408.754 83.4988C409.132 81.8976 410.737 80.4646 411.779 78.9546C413.68 79.9895 415.582 81.0243 417.488 82.5385Z" fill="#67564E"/>
<path d="M14.9959 144.926C25.4379 146.624 28.753 151.779 24.0376 158.84C17.1256 155.803 13.2055 151.729 14.9959 144.926Z" fill="#67564E"/>
<path d="M177.034 770.139C177.995 769.064 179.212 767.847 179.863 768.003C182.12 768.545 184.352 769.386 186.264 770.456C187.836 771.335 188.941 772.7 190.253 773.851C188.298 775.067 186.555 776.671 184.323 777.379C182.47 777.966 180.042 777.499 177.031 777.499C177.031 774.991 177.031 772.809 177.034 770.139Z" fill="#67564E"/>
<path d="M352.749 327.46C344.947 322.647 344.947 322.647 345.654 316.719C353.09 317.095 357.252 321.359 356.663 328.064C355.539 327.874 354.427 327.685 352.749 327.46Z" fill="#67564E"/>
<path d="M207.116 761.434C198.361 759.74 203.424 755.128 202.101 751.417C207.03 752.675 212.938 751.644 212.515 757.464C212.325 760.074 212.687 762.514 207.116 761.434Z" fill="#67564E"/>
<path d="M178.505 691.121C178.505 695.726 178.505 699.802 178.505 704.676C172.02 703.251 172.782 699.621 172.772 696.589C172.765 694.441 173.419 692.252 174.151 690.158C174.61 688.847 175.762 687.678 176.602 686.446C177.236 687.828 177.871 689.21 178.505 691.121Z" fill="#67564E"/>
<path d="M470.596 182.687C470.602 185.003 470.602 186.827 470.602 188.609C462.005 189.07 461.098 188.011 462.533 177.792C465.768 179.56 468.179 180.878 470.596 182.687Z" fill="#67564E"/>
<path d="M506.091 218.123C505.241 211.281 510.963 212.877 515.951 212.902C515.951 215.409 515.951 217.718 515.951 221.098C512.381 220.19 509.266 219.397 506.091 218.123Z" fill="#67564E"/>
<path d="M38.3563 166.528C38.3564 168.636 38.3564 170.251 38.3564 171.865C37.6336 172.146 36.9108 172.427 36.188 172.709C33.4474 169.695 30.707 166.681 27.9665 163.667C28.6244 163.252 29.2825 162.837 29.9405 162.422C33.3938 162.642 38.8961 159.754 38.3563 166.528Z" fill="#67564E"/>
<path d="M196.771 791.106C193.706 794.827 190.644 790.972 187.685 792.188C187.685 790.092 187.685 788.514 187.685 786.724C191.545 786.724 195.088 786.724 199.181 786.724C198.442 788.231 197.808 789.523 196.771 791.106Z" fill="#67564E"/>
<path d="M189.327 758.844C193.923 760.13 200.731 759.992 198.221 767.509C194.602 764.25 191.783 761.712 189.327 758.844Z" fill="#67564E"/>
</g>
<defs>
<clipPath id="clip0_16_725">
<rect width="1440" height="894" fill="white" transform="matrix(0 1 -1 0 894 -136)"/>
</clipPath>
</defs>
</svg>
