<svg width="1920" height="460" viewBox="0 0 1920 460" fill="none" xmlns="http://www.w3.org/2000/svg">
<path d="M2757.84 268.787C2757.84 332.227 2757.84 395.666 2757.84 459.128C1838.1 459.128 918.349 459.128 -2.15633 459.128C-2.15632 373.012 -2.15631 286.873 -1.30255 200.342C14.9404 199.182 19.6855 196.648 14.5532 191.103C11.7609 188.087 13.851 187.353 21.1059 187.164C33.3132 186.846 45.4787 186.276 58.2607 185.79C57.4304 182.325 58.5246 180.227 67.768 180.121C72.3032 180.068 76.5759 178.446 81.2519 177.951C93.4726 176.659 94.925 173.579 92.2341 170.206C79.1774 170.206 67.1069 170.417 55.1105 170.135C46.5305 169.933 40.653 170.62 40.1738 174.288C35.0683 174.288 30.8332 174.288 24.4208 174.288C27.071 171.772 27.798 168.875 31.7453 167.779C40.9326 165.229 35.7778 161.875 32.394 160.851C22.6874 157.915 26.7548 155.003 28.6005 151.659C29.6159 149.82 29.8554 147.042 27.1535 145.933C21.017 143.415 25.2683 141.481 27.5026 139.524C30.0263 137.314 33.905 135.344 37.5859 133.022C47.1716 135.038 55.2849 132.172 63.9204 130.14C100.158 121.613 136.203 112.896 180.185 112.122C180.51 102.424 224.423 97.5563 256.022 99.3071C253.65 102.075 253.028 105.236 248.808 107.193C241.203 110.72 232.451 114.229 222.358 116.474C205.631 120.194 187.411 122.864 169.957 126.092C167.342 126.576 165.474 127.686 163.259 128.506C171.036 129.414 177.204 129.16 183.191 129.462C200.42 130.332 213.372 128.275 225.35 122.949C235.86 118.277 249.558 114.481 266.793 113.809C274.419 113.512 278.834 112.168 280.855 108.771C284.528 102.598 297.047 99.5334 311.13 97.0693C330.853 93.6184 349.897 89.5668 369.591 86.088C378.297 84.5504 387.909 82.8506 397.064 82.8889C411.445 82.949 422.854 81.7024 431.524 77.063C437.309 73.9675 445.325 72.7056 454.956 73.3391C470.966 74.3922 483.712 71.2616 496.565 68.3483C501.723 67.1791 506.262 65.5927 511.325 64.3497C528.07 60.2389 544.814 56.06 566.452 57.3993C566.891 58.4159 567.33 59.4338 567.77 60.4517C568.717 60.6595 569.663 60.8673 570.61 61.0751C574.493 59.1515 579.134 57.3891 582.05 55.2598C585.07 53.0536 588.122 51.6127 595.018 52.0463C597.429 52.1979 600.093 52.1268 602.473 51.892C622.71 49.8963 642.909 47.8392 663.134 45.799C660.266 41.5862 664.33 39.5584 677.183 39.2904C684.912 39.1292 692.788 38.8723 700.251 38.1226C733.787 34.7538 767.086 31.0098 800.711 27.7912C814.356 26.485 827.877 23.8916 842.721 25.7433C849.67 26.6102 856.834 27.2096 864.147 27.9552C867.175 32.9139 859.531 36.651 853.851 40.5568C846.452 45.6438 836.084 48.5979 820.011 47.9705C815.595 47.7981 809.812 48.9195 806.278 50.1632C795.86 53.83 786.245 57.8521 776.382 61.7611C776.144 61.8555 776.679 62.2535 776.866 62.5083C783.513 62.3628 790.517 62.709 796.714 61.9839C816.013 59.7257 834.933 57.2044 855.676 57.9251C864.381 58.2275 873.361 57.5768 882.149 57.1486C894.108 56.5661 905.122 55.215 914.395 51.7768C917.979 50.448 924.211 49.7236 929.324 49.6493C938.922 49.51 948.583 50.0443 959.194 50.3241C961.022 52.8245 958.519 55.4121 951.973 56.9581C944.222 58.7891 941.606 61.2594 939.506 64.6333C937.438 67.9532 942.831 73.7568 925.663 73.4299C925.663 75.2014 925.663 76.6695 925.663 77.5025C947.733 79.5035 959.657 72.6267 976.034 68.5904C976.596 70.5604 976.968 71.8651 977.384 73.325C988.302 72.9724 998.416 72.6458 1009.33 72.2933C1008.31 74.5883 1007.54 76.2938 1006.45 78.7432C1014.42 78.3453 1021.04 78.1593 1027.51 77.6674C1057.1 75.4174 1086.55 72.8483 1116.25 70.8528C1138.82 69.3366 1161.59 68.2756 1179.91 62.2066C1189.72 58.9586 1198.77 55.3549 1210.16 51.1761C1229.72 52.8887 1248.21 50.233 1262.59 42.8867C1264.47 41.9242 1270.37 42.1698 1274.43 41.8845C1284.38 41.1843 1297.49 41.8105 1303.61 39.5247C1314.71 35.3805 1325.65 36.8353 1336.92 37.2762C1349.75 37.7786 1361.2 37.4284 1369.37 32.8975C1374.45 30.0806 1379.01 27.0776 1384.83 24.5234C1388.04 23.1178 1393.13 22.2032 1397.8 21.5293C1409.81 19.7972 1422.63 18.8039 1434.07 16.6423C1455.77 12.5424 1476.18 7.34592 1498.16 3.54127C1513.56 0.876261 1530.77 -0.192249 1547.77 1.98326C1561.81 3.78108 1575.71 5.7628 1591.62 7.928C1590.77 8.97002 1589.35 11.1741 1587.17 13.2521C1585.2 15.1231 1582.39 16.8557 1579.95 18.6494C1580.78 18.8538 1581.61 19.0582 1582.44 19.2625C1575.47 20.4528 1568.49 21.6432 1561.59 22.8204C1561.18 24.3773 1560.78 25.8693 1560.26 27.7872C1555.68 27.3474 1552.01 26.9459 1548.27 26.646C1541.6 26.1091 1527.34 29.3215 1529.24 31.1061C1533.88 35.4739 1524.78 36.7669 1519.85 38.9658C1514.95 41.1552 1509.39 43.1187 1503.87 45.2806C1519.14 45.2806 1532.81 45.2442 1546.48 45.2891C1567.12 45.3568 1587.11 44.353 1606.48 41.1858C1613.98 39.959 1624.08 38.763 1630.79 39.7887C1641.23 41.3822 1647.73 39.9788 1655.93 38.234C1663.97 36.5244 1673.02 35.5546 1683.39 33.9957C1684.95 38.1621 1686.06 41.1256 1687.34 44.5401C1691.36 44.3327 1695.41 44.0008 1699.5 43.9387C1707.67 43.8146 1716.45 43.0904 1723.89 43.9993C1732.28 45.0234 1733.81 43.8058 1734.42 40.4759C1744.85 41.2254 1754.48 41.9167 1764.95 42.6685C1761.8 46.2384 1758.03 48.3293 1750.43 47.7751C1726.95 46.0637 1709.74 49.7231 1696.27 56.9978C1695.04 57.6656 1692.85 58.067 1691.68 58.7457C1690.08 59.6734 1689.03 60.7485 1687.5 61.9519C1704.04 63.245 1716.7 60.5649 1726.71 57.4493C1746.69 51.2346 1767.86 50.3837 1791.2 52.6908C1791.2 54.3372 1791.2 56.1078 1791.2 57.5679C1766.88 59.9054 1742.5 61.4004 1729.09 70.981C1728.03 71.7383 1725.43 72.1779 1723.47 72.7177C1714.82 75.09 1713.86 78.0573 1720.67 81.369C1728.29 85.0802 1738.11 86.8175 1750.1 86.1117C1751.81 93.32 1753.52 95.6616 1735.75 96.2562C1717.03 96.8826 1698.26 97.3026 1679.55 97.9862C1648 99.1388 1618.49 103.066 1591.08 109.166C1582.92 110.98 1575.49 113.837 1570.04 116.862C1563.22 120.642 1556.78 123.806 1544.04 124.423C1526.66 125.265 1514.32 128.829 1509.64 135.839C1508.04 138.23 1505.45 140.53 1504.22 142.944C1502.46 146.43 1497.93 147.6 1488.83 147.356C1477.49 147.052 1465.59 145.989 1457.14 151.056C1452.66 153.746 1452.39 155.855 1455.56 158.347C1458.94 160.999 1464.94 162.717 1472.14 161.588C1491.25 158.594 1510.74 155.728 1528.42 151.685C1537.16 149.686 1544.58 148.626 1555.91 149.281C1545.6 156.883 1527.96 159.635 1509.9 162.129C1510.43 168.277 1520.56 170.191 1533.73 170.084C1559.87 169.871 1582.75 165.724 1602.81 159.24C1609.61 157.043 1616.91 154.6 1606.32 150.092C1619.4 148.163 1630.89 146.469 1643.09 144.67C1642.89 143.8 1642.62 142.621 1642.09 140.311C1627.77 141.881 1614.71 143.267 1601.72 144.752C1590.68 146.015 1579.72 147.393 1567.44 148.875C1568.12 143.816 1574.11 141.709 1582.26 141.49C1594.32 141.166 1598.15 137.81 1601.84 134.414C1604.67 131.807 1605.87 128.926 1608.02 125.847C1611.42 126.117 1614.86 126.695 1618.17 126.588C1624.53 126.382 1633.61 126.675 1636.61 125.197C1647.55 119.817 1660.81 118.474 1677.19 119.141C1687.14 119.547 1697.34 119.467 1707.34 119.143C1716.91 118.834 1727.51 118.609 1732.91 114.737C1737.73 111.275 1744.39 110.229 1753.87 110.674C1762.02 111.057 1767.12 109.766 1768.31 106.18C1769.44 102.795 1770.32 99.1322 1774.3 96.2272C1779.34 92.5461 1774.97 90.6132 1768.92 88.8085C1764.96 87.6273 1759.73 87.1042 1755.12 86.2949C1763.68 77.855 1829.39 68.5046 1866.75 70.255C1869.13 73.8137 1863.44 75.8038 1856.38 76.2069C1844.41 76.8901 1840.42 79.9202 1837.74 83.8072C1836.66 85.3762 1835.31 86.9163 1834.14 88.4022C1792.63 89.5435 1791.52 89.6566 1789.28 91.7291C1793.06 94.1241 1797.53 95.712 1798 97.467C1800.33 106.139 1791.53 109.514 1772.33 112.117C1773.96 114.91 1775.61 117.737 1777.41 120.808C1759.97 120.665 1751.98 125.234 1742.57 128.994C1738.03 130.809 1732.91 132.4 1728.05 134.092C1727.19 133.791 1726.32 133.49 1725.46 133.189C1725.46 137.816 1725.46 142.443 1725.46 147.179C1735.11 147.316 1740.65 146.322 1740.46 141.998C1740.39 140.217 1743.24 137.582 1746.83 136.789C1753.8 135.25 1762.23 134.738 1770.38 133.762C1770.38 132.256 1770.38 130.707 1770.38 129.08C1773.04 128.627 1775.97 128.409 1777.94 127.747C1786.55 124.842 1793.27 126.56 1801.55 128.383C1815.24 131.394 1829.64 134.113 1844.52 135.982C1851.76 136.891 1855.09 137.976 1856.57 140.623C1859.92 146.589 1860.42 152.4 1853.95 158.211C1852.84 159.206 1856.73 162.328 1858.48 162.349C1869.81 162.486 1881.22 161.729 1892.54 161.881C1900.76 161.991 1901.77 159.892 1903.45 157.82C1904.37 156.674 1904.32 155.404 1904.76 154.018C1911.93 154.446 1918.45 154.835 1924.86 155.217C1930.24 167.087 1931.6 167.692 1957.61 169.884C1955.73 172.468 1955.73 172.468 1938.13 175.163C1941.72 180.391 1934.26 183.818 1925.01 187.038C1918.03 189.465 1911.45 192.086 1905.06 194.752C1903.17 195.538 1902.5 196.775 1901.13 197.918C1910.51 198.52 1917.94 198.998 1926.17 199.526C1898.19 208.116 1871.21 216.395 1843.98 224.751C1844.84 227.015 1845.81 229.564 1846.82 232.243C1851.21 232.243 1855.34 232.562 1859.03 232.191C1880.31 230.049 1901.53 227.937 1923.84 228.76C1924.94 228.801 1926.29 227.833 1927.52 227.334C1925.87 226.99 1924.24 226.361 1922.57 226.347C1912.21 226.255 1901.84 226.3 1891.49 226.3C1891.77 221.171 1895.71 219.625 1906.78 219.47C1918.85 219.302 1931.2 219.466 1942.89 218.491C1955.01 217.481 1966.49 215.279 1978.25 213.597C1983.31 212.873 1988.37 212.146 1993.42 211.42C1993.97 211.82 1994.53 212.219 1995.08 212.619C1990.04 216.031 1985.01 219.443 1979.97 222.855C1981.01 223.328 1982.05 223.801 1983.09 224.274C1996.43 222.202 2009.76 220.13 2023.87 217.937C2025.55 229.044 2027.33 229.736 2006.27 232.918C2008.24 234.522 2010.14 236.068 2012.03 237.613C2011.86 239.409 2011.87 241.445 2014.26 242.854C2018.63 245.431 2024.48 244.005 2029.09 242.725C2031.84 241.962 2033.36 240.541 2035.73 239.527C2039.66 237.849 2043.34 237.121 2047.25 239.75C2049.78 241.458 2053.57 242.878 2056.24 244.162C2055.74 246.488 2055.27 248.626 2054.54 251.963C2061.95 250.678 2067.5 250.145 2071.7 248.905C2083.79 245.337 2096.67 243.402 2112.04 244.085C2119.5 244.416 2127.12 244.138 2134.67 244.143C2148.19 244.151 2148.19 244.153 2146.97 249.532C2142.64 250.2 2137.82 250.507 2134.42 251.54C2119.35 256.121 2104.85 260.997 2089.75 265.566C2085.89 266.732 2080.74 267.327 2075.96 267.898C2069.33 268.69 2062.43 269.108 2055.78 269.874C2047.47 270.83 2039.28 271.943 2031.1 273.069C2029.4 273.305 2027.75 273.802 2026.51 274.335C2018.47 277.773 2011.72 281.881 2002.33 284.574C1988.58 288.521 1977.84 294.428 1957.41 294.471C1940.54 294.507 1933.94 299.665 1939.86 305.986C1960.19 306.513 1960.08 306.469 1974.37 300.99C1981.51 298.255 1988.82 295.56 1996.63 293.14C2001.76 291.553 2007.57 289.927 2013.72 289.326C2022.2 288.497 2031.31 288.695 2040.1 288.281C2042.4 288.172 2044.98 287.605 2046.64 286.941C2054.85 283.652 2061.92 280.194 2076.05 280.458C2084.56 280.616 2092.94 279.229 2099.1 275.802C2108.85 270.376 2121.47 266.865 2140.7 267.727C2152.7 268.265 2164.23 265.765 2170.93 261.417C2175.22 258.637 2180.73 257.677 2188.43 257.725C2225.76 257.957 2262.52 256.128 2298.73 252.619C2322.6 250.304 2345.99 247.454 2366.1 241.542C2370.83 240.15 2375.14 237.922 2380.35 237.534C2389.28 236.869 2398.76 237.35 2405.02 237.35C2408.94 240.17 2410.53 242.867 2414.77 243.937C2419.32 245.086 2426.33 244.764 2432.3 244.977C2439.27 245.226 2449.45 252.498 2444.19 253.863C2436.43 255.882 2426.49 257.002 2417.15 257.477C2413.73 257.65 2409.36 254.883 2403.57 252.788C2401.88 253.533 2397.98 254.818 2395.51 256.442C2391.14 259.317 2386.1 261.475 2377.2 262.189C2357.06 263.805 2340.98 267.976 2329.68 274.814C2328.27 275.673 2326.47 277.035 2327.28 277.701C2328.15 278.414 2332.05 279.023 2334.38 278.905C2343.04 278.465 2352.4 278.368 2360.01 276.924C2373.52 274.361 2386.49 274.339 2399.6 276.53C2407.83 277.905 2414.38 276.856 2421.74 275.642C2428.96 274.452 2436.88 273.132 2444.41 273.197C2458.59 273.321 2470.49 272.004 2481.87 268.586C2487.32 266.948 2495.35 266.639 2502.98 265.626C2503.83 270.464 2503.95 273.825 2493.81 275.867C2491.92 276.248 2491.59 278.778 2492.45 280.126C2494.17 282.821 2497.21 285.384 2500.61 288.954C2505.27 287.118 2510.16 285.193 2515.05 283.268C2514.61 282.821 2514.18 282.373 2513.74 281.926C2517.61 282.506 2524.09 282.779 2524.82 283.731C2526.24 285.61 2526.56 288.782 2523.67 289.801C2512.89 293.598 2500.57 296.714 2488.95 300.148C2486.65 300.828 2484.88 301.785 2482.86 302.614C2483.74 303.249 2484.62 303.883 2485.49 304.517C2499.93 303.1 2514.66 302.032 2528.73 300.188C2553.55 296.934 2576.36 290.79 2604.48 292.524C2606.63 292.657 2609.41 292.198 2611.36 291.69C2629.06 287.08 2648.65 285.751 2669.27 286.681C2683.32 287.315 2694.79 285.25 2705.42 282.097C2711.36 280.336 2716.57 278.195 2722.45 276.403C2733.2 273.133 2743.34 269.365 2757.84 268.787ZM1829.86 185.544C1830.43 186.632 1830.02 188.22 1831.71 188.729C1844.5 192.592 1832.06 192.881 1826.99 194.215C1824.38 194.901 1821.75 195.58 1817.26 196.752C1848.2 198.984 1854.07 198.659 1871.47 194.255C1887.38 190.227 1901.22 184.924 1915.94 180.168C1916.41 180.016 1916.73 179.704 1916.78 179.455C1917.61 175.615 1918.38 171.774 1919.43 166.633C1912.83 168.691 1908.6 170.025 1904.33 171.335C1901.52 172.196 1896.85 173.955 1896.07 173.721C1886.12 170.76 1881.61 174.734 1877.08 176.362C1863.35 181.301 1849.07 185.245 1829.86 185.544ZM1671.03 80.1633C1660.8 81.531 1652.58 83.7925 1646.67 87.5281C1641.56 90.7655 1630.69 92.3509 1627.5 96.7744C1634.68 96.3645 1640.77 96.5473 1645.55 95.6501C1663.39 92.2993 1680.91 88.663 1698.26 84.9253C1700.17 84.5144 1701.54 82.5796 1700.76 81.6767C1699.89 80.6811 1696.29 79.4219 1693.81 79.3988C1686.84 79.3337 1679.84 79.8451 1671.03 80.1633ZM1731.5 161.148C1741.16 164.912 1752.93 165.442 1766.19 164.933C1765.66 163.905 1765.72 163.145 1764.9 162.589C1756.35 156.816 1758.88 151.866 1771.01 147.297C1775.05 145.772 1777.55 143.612 1782.22 140.888C1761.72 142.531 1749.25 147.248 1736.6 151.772C1735.26 152.251 1734.98 153.907 1736.02 154.583C1740.27 157.338 1736.39 158.902 1731.5 161.148ZM1589.52 53.2162C1578.06 56.3105 1567.04 59.7148 1554.99 62.4046C1544.66 64.7092 1544.1 67.2304 1549.59 70.5018C1560.84 71.4645 1570.23 70.9153 1576.59 66.8806C1577.59 66.2471 1580.26 66.0627 1581.69 65.4881C1590.45 61.9537 1602.33 59.1423 1601.84 52.9711C1597.6 52.9711 1594.41 52.9711 1589.52 53.2162ZM1621.49 71.2046C1614.6 73.3438 1607.43 75.3598 1600.95 77.6771C1597.98 78.7396 1596.37 80.3938 1594.14 81.7797C1595 82.1223 1595.86 82.4649 1596.71 82.8075C1599.57 82.511 1602.82 82.4623 1605.23 81.879C1624.86 77.1365 1644.41 72.3416 1663.74 67.4096C1665.72 66.9043 1666.05 65.3954 1667.57 63.9484C1648.63 63.8711 1634.97 66.6709 1621.49 71.2046ZM6.67572 215.253C4.45697 215.803 0.361514 216.328 0.311465 216.907C-0.173643 222.511 0.0202041 228.124 0.0202036 233.648C8.74921 233.648 16.0898 233.648 23.6423 233.648C24.6699 226.532 18.176 220.705 6.67572 215.253ZM2034.53 253.5C2019.85 256.04 2005.3 258.705 1990.43 261.062C1983.65 262.137 1982.62 263.674 1984.9 266.556C1991.14 266.172 1997.77 266.398 2002.59 265.342C2014.7 262.692 2026.07 259.512 2037.42 256.367C2038.31 256.121 2036.72 254.488 2034.53 253.5ZM2461.3 290.072C2465.26 287.949 2469.23 285.825 2473.39 283.601C2454.4 282.739 2439.12 288.027 2442.16 294.193C2450.22 294.56 2456.78 293.754 2461.3 290.072ZM1936.56 249.577C1933.05 251.892 1921.32 252.618 1926.99 256.869C1956.96 253.981 1956.96 253.981 1951.64 247.361C1947.1 248 1942.58 248.637 1936.56 249.577ZM1628.93 59.7379C1620.84 60.4513 1612.76 61.1647 1604.68 61.8781C1604.19 62.2226 1603.69 62.5671 1603.2 62.9116C1605.76 63.5303 1608.29 64.6351 1610.89 64.6669C1616.4 64.7342 1621.99 64.3289 1627.47 63.9605C1647.14 62.6398 1647.35 62.3213 1643.28 54.6926C1640.43 55.9935 1638.6 56.9198 1636.52 57.7504C1634.74 58.4645 1632.67 59.0693 1628.93 59.7379ZM45.4704 211.532C39.8657 208.936 34.6625 205.947 23.7304 208.234C23.7304 209.395 22.9343 210.748 23.8884 211.869C26.1928 214.58 29.0256 217.357 38.4672 216.931C46.0588 216.589 48.8793 214.914 45.4704 211.532ZM2427.93 298.968C2426.18 298.306 2424.17 297.007 2422.73 297.097C2417.38 297.432 2412.22 298.226 2406.88 298.86C2406.88 300.684 2406.88 302.412 2406.88 304.212C2414.55 302.884 2425.79 304.548 2427.93 298.968ZM1673.81 48.6718C1676.16 47.5821 1678.51 46.4924 1682.51 44.6404C1675.02 44.6404 1671.28 44.6404 1663.55 44.6404C1667.51 46.5445 1669.73 47.6105 1673.81 48.6718Z" fill="#67564E"/>
</svg>
