<?xml version="1.0" encoding="utf-8"?>
<!-- Generator: Adobe Illustrator 26.4.1, SVG Export Plug-In . SVG Version: 6.00 Build 0)  -->
<svg version="1.1" id="Слой_1" xmlns="http://www.w3.org/2000/svg" xmlns:xlink="http://www.w3.org/1999/xlink" x="0px" y="0px"
	 viewBox="0 0 462 1438" style="enable-background:new 0 0 462 1438;" xml:space="preserve">
<style type="text/css">
	.st0{clip-path:url(#SVGID_00000106830321444339406260000017263217905430157732_);}
	.st1{fill:#FFFFFF;filter:url(#Adobe_OpacityMaskFilter);}
	.st2{mask:url(#mask0_18_116_00000120529612745363335320000000473102431587096766_);}
	.st3{fill:#FF5518;}
</style>
<g>
	<defs>
		<polygon id="SVGID_1_" points="-516.8,165.1 322.7,0.3 724.5,1272.3 -115,1437.1 		"/>
	</defs>
	<clipPath id="SVGID_00000094581171127579125230000016027805130384949891_">
		<use xlink:href="#SVGID_1_"  style="overflow:visible;"/>
	</clipPath>
	<g style="clip-path:url(#SVGID_00000094581171127579125230000016027805130384949891_);">
		<defs>
			<filter id="Adobe_OpacityMaskFilter" filterUnits="userSpaceOnUse" x="-516.4" y="77" width="971.3" height="1358.1">
				<feColorMatrix  type="matrix" values="1 0 0 0 0  0 1 0 0 0  0 0 1 0 0  0 0 0 1 0"/>
			</filter>
		</defs>
		
			<mask maskUnits="userSpaceOnUse" x="-516.4" y="77" width="971.3" height="1358.1" id="mask0_18_116_00000120529612745363335320000000473102431587096766_">
			<path class="st1" d="M322.7,0.3l-839.5,164.8l401.8,1272l839.5-164.8L322.7,0.3z"/>
		</mask>
		<g class="st2">
			<path class="st3" d="M25.3,1402.2c-103.4,20.3-37.6,12.6-141,32.9c-133.9-423.8-266.7-844.5-400.7-1268.8
				c140.3-27.5,59.4,0.2,200.6-27.1c4.2,7.1,196.8-42.9,205-47.1c4.5-2.3,27,4.3,28.2,7.5c2.3,5.6,17.8,1.3,20.5,7
				c5.6-1.5,9.1-1.7,10.6,2.6c0.8,2.1,4,3.5,5.5,5.5c3.9,5.2,9.1,4.9,14.3,2.5c-1.9-6-4-11.5-5.3-17.2c-0.9-4-2.8-6.5-8.9-5.6
				c-0.8-2.4-1.4-4.3-2.3-7.2c4.5,0.4,9.4-0.1,11.6,1.3c5.5,3.4,10.2,0,11.4-2c3.4-5.4,8.7-4.4,14.5-4.7c3.1-0.1,7.7-0.9,9.1-2.5
				c3.2-3.6,7-2.3,10.5-1.9c3.9,0.4,7.7,1.6,12.1,2.6c-1.9,5.1,3.9,7.9,8.5,11.2c19.2,14,38.6,27.8,46.4,47.8
				c15.8-2.9,30.2,15.7,32,30.9c-4.9-0.2-10.2,0.5-13.9-0.8c-6.9-2.4-13.8-5.3-19-9.2c-8.5-6.5-15.5-14-23.2-21
				c-1.1-1.1-3.2-1.5-4.9-2.3c-0.3,3.9,0.9,6.7,1.3,9.5c1,8.2,6.4,13.5,16.7,17.4c9.2,3.4,17.3,8.4,20.9,16.2
				c1.6,3.4,4.5,5,10.3,4.8c10.6-0.3,17.4,4.5,23.5,10.2c8.5,8,17.8,15.5,26.4,23.4c3.7,3.5,8,7.4,9.2,11.6c2,6.6,5.7,11.5,14.5,14
				c5.9,1.7,9.1,5,9.4,9.6c0.6,7.8,7.6,12.6,14.2,17.6c2.6,2,5.9,3.6,8.7,5.5c9.1,6.4,18.4,12.8,19.4,23.2c-1.5,0.5-3.2,1.1-4.7,1.6
				c-0.2,0.5-0.5,1-0.6,1.5c3.6,1.2,7.3,2.7,11.2,3.4c4,0.7,6.8,1.7,7.2,5c0.1,1.2,0.6,2.3,1.3,3.4c6.2,8.7,12.5,17.3,18.8,26
				c6.5-2.7,10.4-1.5,12.6,4.4c1.4,3.5,3,7,5.2,10.2c10.4,14.4,21.3,28.6,31.5,43c4.1,5.9,10.4,11.3,9.4,18.7
				c-0.3,3.4-0.3,7-0.4,10.6c-7.7,3-14.8,0.7-22.1-0.7c-9.3-1.8-15.6-5.7-17-13.3c-0.4-2.1-3.1-4.4-5.6-5.7
				c-7.5-3.6-15.5-6.8-23.3-10.1c-0.2-0.1-0.8,0.3-1.1,0.5c1.2,3,1.6,6.3,3.8,9c6.5,8.2,13.3,16.1,15.2,25.9c0.8,4.1,3.2,8,5.1,11.9
				c2.7,5.3,6.5,10,13.4,13.1c2.7,1.2,4.7,3.9,5.6,6.2c1.6,4.4,2.2,9,3.2,14c-3.8,1.7-8.4,1.3-11.9-1.2c-4.1-3-8.5-3.4-14.4-3.3
				c-5.7,0.1-14.4,4.4-16.3-3.6c-2.8,0.6-5.3,1-6.6,1.3c0,10.8,12.9,14.1,21.9,20.4c-3.1,0.9-5.2,1.5-7.6,2.1
				c2.2,4.9,4.2,9.5,6.4,14.4c-3.8,0.3-6.8,0.5-10.9,0.7c1.8,3.6,3.1,6.5,4.8,9.4c8,12.9,16.5,25.7,24,38.7
				c5.8,9.9,10.8,20.1,23.4,26.5c6.7,3.5,13.9,6.5,22.4,10.4c0,9.6,7,17.3,21.2,21.5c1.9,0.6,2.4,3.4,3.3,5.2
				c2.6,4.4,3.5,10.6,8.1,12.7c8.4,3.8,7.6,9.3,8.5,14.6c1,6.1,3.3,11.3,11.9,13.5c5.3,1.5,10.9,2.6,15.9,4.5c2.8,1,5,3,6.8,5
				c4.6,5,8.1,10.6,13.3,15.1c9.8,8.7,21.3,16.5,30.7,25.3c6.5,6.2,10.8,13.8,9.8,22.4c-0.9,7-2.1,14.1-3.3,22.1
				c-1.8,0-5.6,0-9.3-0.3c-3.4-0.3-6.6-1-9.8-1.6c-0.3,0.4-0.4,0.9-0.6,1.3c-3-2.8-6-5.7-8.8-8.5c-2.6,0.3-5,0.6-8.3,1
				c0.1-2.3,0.2-4.1,0.1-5.9c-0.1-3.3-7.3-8.8-10-7.3c-6.5,3.5-9.9-0.2-14.2-1.8c-4.3-1.6-8.3-3.5-12.7-5.3
				c2.2,7.1,4.2,13.3,6.2,19.6c2.9,9.6,7.4,18.4,15.4,26.3c3.1,3.1,6.5,7.4,5.8,10.8c-1.1,5.3,2.1,7.8,6.2,11.1
				c4,3.2,6.8,7,10.9,11.3c-6.5,2-11.2,3.5-16.6,5.2c1,1.8,2,3.5,2.7,5.4c1.4,3.8,3.8,7.5,3.4,11.2c-0.5,4.2,1.8,4.5,7.3,3.7
				c0.3,5,0.6,9.7,0.9,14.7c-6.2-0.3-10.2-1.4-10.5-5.1c-0.6-11.3-9.1-18.1-22.9-22.1c-1.3-0.3-2.2-1.3-3.5-1.6
				c-1.7-0.4-3.7-0.6-5.8-0.9c0.3,8,6.5,13,13.1,16.7c13,7.2,17.6,16.7,17.1,28.2c-2.7,0.5-5.5,1.1-8,1.6
				c-7.4-10.5-13.4-21.2-31-24.3c-1.4-0.3-2.5-1.3-3.6-2c-5.1-3.2-10.1-2.7-14.6,1.5c-4.9,4.7-6.3,9.8-3.5,15.1
				c-11.4,3.1-15,4.6-18.6-3.4c-3.7-8.5-7.2-17-11-25.3c-6.5-14.2-17.1-26.6-31.1-37.2c-4.2-3.2-9.9-5.7-15.6-7.3
				c-7.2-2-13.2-3.9-16.1-9.6c-3.9-7.8-11.5-12.3-23.6-12.2c-4.2,0.1-8.2-0.4-12.4-0.2c-5.9,0.3-8.6-1.4-9.4-5.7
				c-1.2-5.3-1.2-11.1-10.6-13.4c-5.1-1.2-8.6-0.7-12.2,1.6c-3.8,2.4-5.8,5.7-2.9,8.6c7.7,7.9,15.2,15.9,24.3,22.8
				c4.5,3.4,7.4,6.4,7.9,11.9c-13.9-2.3-20.9-9.6-27.6-17.1c-9.9,2.2-11.6,7.5-9.5,13.5c4.2,11.9,14.3,21.2,27.8,28.3
				c4.5,2.4,9.6,5.1,15.4-1.3c5.1,5.4,9.5,10.1,14.2,15.2c1.4-0.4,3.3-0.8,7-1.8c-4.7-6.1-8.8-11.7-13.1-17.2
				c-3.7-4.7-7.5-9.3-11.8-14.5c8.4-1.3,12.7,0.8,14.2,4.4c2.3,5.5,8.3,6.1,14.4,6.7c4.7,0.5,9.6,0.1,14.8,0.1
				c0,1.7-0.3,3.4,0.2,4.9c1.3,2.8,2.1,7.2,4.9,8c10.3,3.3,14.5,9,15.8,16.8c0.8,4.7,2.4,9.4,4.4,13.9c1.9,4.3,3.8,9.1,10.8,10.3
				c6.4,1.1,9.1,3.9,9.7,8.3c0.6,3.9,3.4,5.8,9.5,5.2c5.7-0.6,11.7-1.4,17.1-0.5c6.8,1.1,9.2-1.4,11.3-4.8c1.4-2.2,1.5-4.8,2.1-7.2
				c15,1.3,39.9,28.6,42.3,46.3c-5.5,2.2-9.5,0.3-11.2-2.9c-2.8-5.3-8.3-6.1-15.1-6.1c-2.8,0-5.4-0.2-8-0.2
				c-7.9-18.8-8.3-19.2-11.9-19.6c-3.4,2.5-5.3,5.1-8.1,5.8c-13.8,3.8-20.6,0.9-27.6-7.1c-4.3,1.7-8.6,3.3-13.4,5.2
				c-2.3-8.1-11-10.3-18.4-13.5c-3.6-1.5-6.9-3.3-10.5-5.1c0.4-0.5,0.7-1,1.1-1.4c-7.5,1.5-15.1,3-22.8,4.5
				c1.1,4.5,3.6,6.7,10.7,5.2c3-0.6,7.5-0.2,9.4,1.2c3.5,2.7,5.6,6.4,8.4,9.9c2.5-0.5,4.9-1,7.6-1.5c1.1,1.1,1.9,2.3,3.3,3
				c5.9,3.1,4.2,6.7,2.4,11.1c-2.9,7.2-5.3,14.8-6.2,22.2c-0.4,3.6-1.7,5.5-5.8,7c-9.2,3.4-18.6,5.5-29.1,4.4
				c-1.8-0.2-6.4,2.7-6.1,3.4c1.4,5.3,4.3,10.3,5.7,15.6c1.1,3.8,4.5,3.6,8.2,3.7c2,0.1,4.1-0.3,6.4-0.6c0.3,3.4,0.6,6.5,1,9.7
				c-18.5,6.3-19.3,7.1-19.1,19.8c-4.5-0.1-4.5-0.1-11.5-7.3c-8,3.3-14.7,1-21.3-2.3c-4.9-2.4-10.2-4.7-15.5-6.7
				c-1.5-0.6-3.7-0.5-5.7-0.8c0.4,4.5,0.7,8.1,1.1,12.1c-18.1-10.1-35.5-20-53.1-29.8c-3.6,1.1-7.6,2.4-11.8,3.7
				c0.6,2,0.7,4,1.9,5.6c6.5,9.1,13.1,18.3,15,28.8c0,0.6,1.8,0.9,2.9,1.2c0.4-0.9,1.1-1.8,0.9-2.6c-1.4-4.8-2.9-9.6-4.4-14.3
				c8.4-1.6,11.4-0.2,13.3,4.9c2,5.5,3.5,11.2,6.8,16.3c3.4,5.3,8.7,9.8,13.2,14.8c2,2.1,3.8,4.2,5.8,6.3c-0.5,0.4-1.2,0.8-1.7,1.2
				c-6.3-1.2-12.5-2.4-18.9-3.7c-0.6,0.6-1.3,1.3-1.9,1.9c5.2,5.4,10.6,11,16.3,16.8c-17.8,4.3-18.7,5.4-26.9-3.3
				c-2.3,1.4-4.6,2.8-6.8,4.2c-3,0.5-6.3,1.2-8.2,2.7c-3.5,2.8-0.4,5,2.4,6.8c1.6,1,4.2,1.2,6.1,2.1c3.3,1.3,5.1,2.8,1.3,5.4
				c-2.5,1.7-4.1,3.9-5.8,5.6c-3.9,0.5-7.4,1-12.9,1.7c3.2,3,4.9,5.4,7.4,7c7.5,4.4,12.6,9.7,13.7,17c0.6,3.5,2.1,7,3.2,10.4
				c2,6.3,2,6.3-7,7.4c-1.7-1.8-2.9-3.9-5.2-5.2c-9.7-5.5-19.7-10.6-29.4-16.1c-2.4-1.4-4.1-3.6-5.8-5.6c-2.2-2.8-4-5.9-6.1-8.7
				c-2.8-3.5-5.7-6.9-8.8-10.4c-0.6-0.7-1.7-1.3-2.8-1.7c-6.8-2.6-14.5-4.4-20.3-7.8c-8.4-5.1-19.6-8.2-22.7-17.5
				c-2.5-7.8-11.9-9.1-21.3-4.5c2.1,9.5,2.2,9.5,13.1,14.3c5.5,2.4,11,4.9,16,7.7c3.3,1.9,6.9,4,8.8,6.6c2.6,3.6,3.6,7.9,5.6,11.8
				c0.5,1,1.8,2,3.2,2.6c6.6,2.7,13.2,4.9,14.9,11.4c1,3.9,4.4,7.4,11,9.1c10.3,2.8,17.8,7.5,19.2,16.6c0.9,5.7,6.6,10.2,14.7,11.9
				c5.2,1.1,7.6,3.3,8.6,6.8c5.1,17.3,13.4,33.7,24.4,49.2c7.3,10.3,15.3,20.2,27.9,27.5c2.9,1.8,7.2,3,8.6,5.3
				c2.4,3.9,2.9,8.4,3.8,11.4c-4,2.7-8.2,4.3-9.3,6.6c-1.2,2.5,0.3,5.6,0.8,8.5c0.6,3.2-9.8,10.3-12.8,8.3
				c-4.4-2.9-7.7-7.1-9.8-11.3c-0.7-1.5,3-4.4,5.7-7.8c-1.5-0.6-4.1-1.9-7.1-2.6c-5.3-1.1-9.6-2.7-12-6.5
				c-5.5-8.8-14.8-14.8-27.5-17.9c-1.5-0.3-4-0.8-5-0.2c-1,0.7-1.5,2.6-0.9,3.7c2,3.8,3.5,8.1,6.9,11.2c6.1,5.4,8,11.4,6.4,18.2
				c-1,4.2,1.7,6.9,4.7,10c3,3,6.3,6.2,7.2,9.7c1.8,6.6,5.8,11.6,13,15.8c3.5,1.9,5.2,5.5,7.9,8.8c-7.8,1.9-13.3,3.1-18.1-1
				c-0.9-0.8-5.1-0.1-7.1,0.7c-4.2,1.7-7.9,3.9-13.2,6.6c3.6,1.5,7.5,3.2,11.3,4.8c0.7-0.3,1.3-0.7,2-1.1c-0.4,2,0.2,5-1.3,5.7
				c-2.9,1.3-8,2.4-10,1.4c-7.7-3.7-14.7-8.5-21.9-12.7c-1.4-0.8-3.3-1.3-5-2c-0.9,0.5-1.8,1.2-2.7,1.8c4.4,6.2,8.3,12.6,13.3,18.6
				c8.9,10.4,22.2,18.9,23.5,32.5c0.1,1,1.2,2.2,2.4,2.9c10.1,6.7,15.2,15.3,16.6,25.1c1.1,6.6-6.1,10.6,0.6,14.4
				c3.7,2.2-2.9,9.3,0.9,11.5C162,1372.1,22.4,1395.7,25.3,1402.2z M197,920.6c-1.6,0.6-4.3,0.9-4.9,1.9c-4.4,7.2-6.7,1.5-9.7-0.4
				c-1.5-1-3-2-5.6-3.7c0.8,14.9,2.3,17.6,12,24.2c8.8,6.1,19.6,10.7,29.5,16c0.3,0.1,0.9,0.2,1.2,0.1c6.4-0.9,12.8-1.8,21.3-2.9
				c-4.3-2.4-7.1-3.9-9.8-5.5c-1.8-1.1-5.4-2.6-5.1-3c3.3-5.5-3.7-6.3-7.1-7.9C208.8,934.7,200.3,929.3,197,920.6z M345.6,813.7
				c-3.7-4.2-8.6-7.3-15.6-8.9c-6-1.3-10.2-5.8-17.8-5.9c1.6,3.1,2.3,6,4.5,7.9c8,7.2,16.6,14,25.2,20.9c0.9,0.8,4.3,0.8,5.7,0.1
				c1.5-0.8,3.1-2.8,2.7-3.9C349.3,820.7,347.4,817.6,345.6,813.7z M222.5,867.5c-4.8,5.6-3.9,11.3-1.1,17.2
				c1.6-0.6,2.9-0.8,3.6-1.4c8.1-5.8,16.6-6.2,25.9-2.1c3,1.4,7,1.8,12.1,3.2c-5.7-8.9-15.1-13.2-24.4-17.5c-0.9-0.5-3.7,0-4.6,0.6
				C229.9,870.3,226.7,869,222.5,867.5z M377.7,767.5c-6.7-4.3-13.9-8.3-20-13c-5.3-4-9.5-3.5-14,0.1c0,5.5,2.4,9.7,9.8,11.3
				c1.1,0.2,1.9,1.4,3,2c7.1,2.9,13.4,7.5,23.4,5.3C379.2,771.1,378.8,769.7,377.7,767.5z M353,788c-4.5-2.5-8.8-5.1-13.6-7.4
				c-2.1-1-5.1-1.2-7.7-1.9c-0.5,0.5-0.9,1-1.4,1.5c0.9,1.2,1.5,2.7,2.7,3.6c10.6,7.5,21.2,15,32.1,22.3c1.1,0.7,3.7,0.4,6.2,0.7
				C369,798.2,362.4,792.7,353,788z M116,1036.7c-6.3-6-12.8-11.8-18.7-17.9c-2.7-2.8-5.5-2.8-9.8-0.8c1.5,2.8,2.1,5.9,4.5,7.7
				c6.1,4.7,12.9,8.9,19.7,13.2C112.3,1039.3,114.7,1038,116,1036.7z M118.5,1245.1c4,1.2,8,2.3,12.3,3.5c-1.4-9-12.3-14.4-21.8-11
				C109.6,1241.4,111.9,1244.2,118.5,1245.1z M108.2,990.3c-4.3-0.8-7.2-6.1-13.3-2.1c9,12.9,9,12.9,19.1,8.4
				C112.2,994.7,110.5,992.7,108.2,990.3z M372.8,787.8c-2.3-3.5-4.7-7-7-10.5c-0.7-0.1-1.2-0.2-1.9-0.4c-0.6,1.3-2.1,2.9-1.7,4.1
				c0.7,2.6,2.1,5,3.5,7.5c5,8.7,5.6,8.7,17.4,4.3c-2.5-0.9-4.2-1.4-5.9-2.1C375.7,790,374.4,789.3,372.8,787.8z M-105.2,106.5
				c3.4-3.4,7.5-6.7,2.3-11c-1.8,0.4-4.2,0.4-5.9,1.2c-4.1,1.9-8.2,4.1-6.1,8.3C-113.4,108.4-110.1,109.2-105.2,106.5z M99.2,1232.6
				c0.9-1,2.6-2.4,2.3-3c-1.3-2.4-3.4-4.5-5.1-6.8c-3,0.6-5.8,1.1-8.7,1.7C90.9,1227.7,89.8,1233.3,99.2,1232.6z M397.3,804.9
				c2.1,0.7,4.3,1.5,7.8,2.7c-1.1-3.4-1.6-5.2-2.8-8.7C399.9,801.3,398.5,802.7,397.3,804.9z"/>
			<path class="st3" d="M295.3,1355.5c-1.4-2.4-2.3-5.1-3.1-7.7c8.4-2,7.9,2.4,9.2,6C299.7,1354.7,297.8,1355.1,295.3,1355.5z"/>
			<path class="st3" d="M259.3,1276.2c-4.7-4.2-9.5-7.9-14-11.8c-2.8-2.4-5.2-5-8.9-8.7c8.9-1.2,15.5-2.3,22.3-2.8
				c1.9-0.2,5.2,1.1,5.5,2.1c0.5,1.6-1,3.6-2.1,6.7c2.3,10.1,10.2,21,4.7,33.6c-0.7,1.6,0.9,4.1,2.5,5.7c2.9,3.3,6.4,6.2,10.1,9.7
				c6.9-0.5,13.5,3.2,17.6,10.6c-3.4,0.7-6.8,1.3-9.7,1.9c-0.5,3.3-0.6,6.1-1.7,8.8c-0.5,1.2-3,2.5-4.8,2.9
				c-1.2,0.3-4.1-0.4-4.5-1.3c-5.6-10.5-10.7-21.2-16.2-31.7c-3.8-7.5-2.7-15.1-0.6-22.9C259.8,1278.3,259.5,1277.5,259.3,1276.2z"
				/>
			<path class="st3" d="M315.2,544.8c1.5,2.2,2.7,4.2,3.4,6.3c1.1,3.4-1.4,5.1-6.1,5.2c-1.6,0-3-0.1-6.7-0.2
				c5.3,5.6,9.8,10.3,14.3,15.1c-10.8,3.1-12.6,2.3-17.1-3.5c-5.4-7.2-12.1-13.8-17.5-21c-3-4-4.7-8.6-6.8-12.7c5-2.3,7.9-2,9.8,1.3
				c1.7,3,4.6,3.8,9.5,3c3-0.5,6.7,1,9.7,2.2C310.5,541.5,312.4,543.2,315.2,544.8z"/>
			<path class="st3" d="M190.8,1236.7c-0.2-3-0.3-5.5-0.5-9c3.4,0.4,6.8,0.2,8.9,1.3c1.3,0.7,0,3.6,0.3,5.4c0.4,3,0.7,6.2,2.1,9.1
				c1.8,3.5,4.8,6.6,7.8,10.7c2.9-0.8,6.6-1.9,11.2-3.1c0.3,3.1,0.6,5.9,0.8,8.7c-9,3.4-12.5,2.2-16-4.6c-1.1-2.1-3.4-4.9-6-5.5
				C190.2,1247.5,190.7,1242.4,190.8,1236.7z"/>
			<path class="st3" d="M301.8,1047.6c2.1,6.5,4,12.6,6,18.9c-5.8,2.7-10.6,1.3-14.5-1.3c-3.8-2.5-7.5-5.3-2.9-9.8
				c2.9-2.8,1.4-7.7,8.2-8.7C299.6,1046.6,300.6,1047,301.8,1047.6z"/>
			<path class="st3" d="M333.8,1250.9c-3.4-3.2-6.6-5.9-9.4-8.8c-1.7-1.6-2.9-3.4-5.2-6.1c10.6,0.5,14.9,5.7,21.3,8.6
				c7.8,3.5,7.2,9,7.2,14.8c-2.2,0.4-4.6,0.9-6.6,1.3C338.6,1257.6,336.3,1254.4,333.8,1250.9z"/>
			<path class="st3" d="M185.9,1056.8c-3.1-3.1-5.6-5.8-8.3-8.6c0.4-0.5,0.7-1.2,1-1.7c3.6,0.2,8.9-0.4,10.4,1.1
				c4.4,4.1,10.6,8,10.5,13.9c-0.7,0.5-1.6,1.1-2.4,1.6C193.7,1061,190,1059,185.9,1056.8z"/>
			<path class="st3" d="M428.5,795.1c-7-1.8-8.4-5.8-9.4-10.3c4.6-0.9,8.9-1.7,13.4-2.6c2.2,4.4,4.1,8.6,6.8,14.1
				C434.9,795.8,432,795.5,428.5,795.1z"/>
			<path class="st3" d="M309.1,1214.5c-4.1-1-8.4-1.6-11-3.5c-5.6-3.8-10.6-8.2-15.7-12.3c0.5-0.5,1-0.9,1.7-1.4
				c3.1,0.8,6.7,1,9.1,2.4c5.7,3.5,10.8,7.3,16,11.2C309.9,1211.7,309.4,1213.2,309.1,1214.5z"/>
			<path class="st3" d="M228.2,997.1c-4.8,1.4-7.2,0.5-8-2.8c-1-4.1-2.4-8.2-3.7-12.2c7.6-2.1,12.4-0.5,13.1,4.7
				C230,990.1,229.1,993.6,228.2,997.1z"/>
			<path class="st3" d="M262.2,1033.4c-1.7-3-3.6-5.8-4.2-8.7c-0.4-2.5,1.9-3.9,5.8-2.7c8.1,2.5,9.5,4.7,7.8,14
				C268.4,1035.2,265.5,1034.4,262.2,1033.4z"/>
			<path class="st3" d="M276,1059.6c-2-0.4-4.2-0.8-4.4-1.5c-0.9-3.2-1.1-6.5-1.7-9.8c9.3,0.9,11.4,2.7,13,11.1
				C280.7,1059.4,278.7,1059.5,276,1059.6z"/>
			<path class="st3" d="M271.5,1156.3c-0.9-4.2-6.9-7.3-2.6-12.3c5.4,2.5,10.2,4.9,10.4,9.8c0.1,1.5-1,3-1.5,4.6
				C275.7,1157.8,273.7,1157.2,271.5,1156.3z"/>
			<path class="st3" d="M296.4,1304.1c1.1-1.4,2.1-2.5,3.1-3.5c0.6,0,1.2,0,1.8-0.1c-0.8,8.3,6.4,12.1,15.8,15.1
				C307.8,1318.2,298.7,1312.8,296.4,1304.1z"/>
			<path class="st3" d="M305.4,504.6c-0.6,1.1-1.5,2.4-2.1,2.4c-2.2,0-4.6-0.4-6.7-1c-1.7-0.5-3.1-1.5-4.6-2.3
				c1.5-1.4,2.7-3.2,4.6-4.2c1.6-0.9,4-0.9,6.9-1.4C304.1,500.2,304.7,502.2,305.4,504.6z"/>
			<path class="st3" d="M263.9,927.9c8.7,2.8,8.7,2.8,9.6,8.1c-7.1,1-12.1-1.9-13.5-8C261.2,928.1,262.3,928.1,263.9,927.9z"/>
			<path class="st3" d="M237.5,1267.7c8.9-0.4,8.8,4,9.6,8.2C238.2,1277.3,235.7,1275.4,237.5,1267.7z"/>
			<path class="st3" d="M279.6,517.8c8.7-0.1,5.2,4.9,7.5,7.9c-5-0.2-10.3,1.8-11.4-3.4C275,519.9,274,517.9,279.6,517.8z"/>
			<path class="st3" d="M326,574.6c-1.3-4.1-2.4-7.7-3.8-12c6.4,0.1,6.8,3.4,7.7,6.1c0.6,1.9,0.6,3.9,0.4,5.9c0,1.2-0.8,2.5-1.3,3.7
				C328.2,577.3,327.2,576.2,326,574.6z"/>
			<path class="st3" d="M193.6,1077.6c-0.6-2-1.1-3.6-1.6-5.2c8-2,9.2-1.2,10.6,8C199.1,1079.4,196.4,1078.7,193.6,1077.6z"/>
			<path class="st3" d="M150.4,1052.8c2.6,5.9-3.1,5.5-7.8,6.4c-0.7-2.2-1.3-4.2-2.3-7.2C143.9,1052.1,147.1,1052.3,150.4,1052.8z"
				/>
			<path class="st3" d="M140.1,1290.1c2.1-1.2,4.4-2.6,6.4-2.4c1.9,0.1,3.4,2,4.5,3.5C147.1,1291.6,142.4,1297,140.1,1290.1z"/>
			<path class="st3" d="M281,489.7c1.8-3.8,5.8-1,8.2-2.6c0.6,1.9,1,3.3,1.5,4.9c-3.6,0.7-6.9,1.4-10.8,2.1
				C280.2,492.5,280.5,491.3,281,489.7z"/>
			<path class="st3" d="M220.7,1275c-1.1,1.4-2.2,2.4-3.5,3.4c-0.8-3.4-6.9-6.8,1.6-9.5C219.6,1271.3,220.1,1272.9,220.7,1275z"/>
			<path class="st3" d="M297.1,516.8c-4.7-0.3-11,1.1-10.8-6C290.5,513,293.9,514.7,297.1,516.8z"/>
		</g>
	</g>
</g>
</svg>
