<svg width="79" height="79" viewBox="0 0 79 79" fill="none" xmlns="http://www.w3.org/2000/svg">
<path d="M21.8823 63.1177V20.9844L40.3979 1.39896C41.144 0.630903 42.0269 0.178299 43.0466 0.0411458C44.0663 -0.096007 45.0487 0.109722 45.9938 0.658333C46.9264 1.20694 47.6259 1.96128 48.0922 2.92135C48.5585 3.88142 48.6737 4.88264 48.4378 5.925L45.2531 20.9844H69.8583C71.175 20.9844 72.3271 21.4781 73.3146 22.4656C74.3021 23.4531 74.7958 24.6052 74.7958 25.9219V32.6565C74.7958 33.0494 74.837 33.4516 74.9193 33.863C75.0016 34.2745 74.9604 34.6722 74.7958 35.0563L64.4271 58.9208C63.94 60.0866 63.1282 61.0776 61.9917 61.8936C60.8552 62.7097 59.6645 63.1177 58.4198 63.1177H21.8823ZM26.8198 23.0417V58.1802H59.4896L69.8583 33.575V25.9219H39.1635L43.525 5.43125L26.8198 23.0417ZM10.9375 63.1177C9.57969 63.1177 8.41732 62.6343 7.45039 61.6673C6.48346 60.7004 6 59.538 6 58.1802V25.9219C6 24.5641 6.48346 23.4017 7.45039 22.4348C8.41732 21.4678 9.57969 20.9844 10.9375 20.9844H21.8823V25.9219H10.9375V58.1802H21.8823V63.1177H10.9375Z" fill="#201510"/>
</svg>
