<svg width="611" height="134" viewBox="0 0 611 134" fill="none" xmlns="http://www.w3.org/2000/svg">
<mask id="path-1-inside-1_14_186" fill="white">
<path fill-rule="evenodd" clip-rule="evenodd" d="M8.28864 72.5219V132.697H19.8286H31.37L31.7531 92.7765L31.9666 76.602L8.28864 49.38V72.5219ZM48.3982 72.774L32.1375 52.8547L8.28864 24.0405V12.3469L18.045 12.3784L27.8014 12.4099L60.3226 52.1154L92.8439 91.8209L93.2283 52.0839L93.6128 12.3469H105.153H116.693V72.5219V132.697L106.936 132.614L97.18 132.531L64.6588 92.6934L48.3982 72.774ZM148.491 72.5219V132.697H194.744H240.996V123.384V114.071H206.307H171.618V97.5948V81.1183H201.248H230.878V71.8055V62.4927H201.248H171.618V46.7326V30.9725H204.861H238.105V21.6597V12.3469H193.298H148.491V72.5219ZM265.568 72.5219V132.697H277.131H287.196V115.504V98.3112V78.2528V54.4221V30.5928H305.679C320.541 31.1243 325.931 31.9951 330.419 34.2918C338.495 38.4224 342.121 45.499 342.121 54.488C342.121 64.4513 338.412 71.0104 330.505 75.0292C324.905 77.876 322.005 78.2528 305.679 78.2528L318.791 98.3112L330.818 115.49L342.843 132.67L354.768 132.683C361.327 132.691 366.692 132.316 366.692 131.85C366.692 131.386 360.769 122.642 353.53 112.422C346.292 102.201 340.6 93.6677 340.883 93.4585C341.167 93.2493 343.674 91.722 346.457 90.0643C359.241 82.4479 363.519 70.4749 363.702 55.329C363.861 42.2389 361.236 32.5886 351.513 24.1054C339.981 14.0432 331.824 12.3469 294.994 12.3469H265.568V72.5219ZM389.818 72.6308V132.915H420.316C437.541 133.422 453.109 131.627 460.061 128.837C487.728 117.738 497.626 97.9745 496.213 68.675C495.711 58.2604 494.795 54.2846 491.081 46.4203C483.383 30.1143 472.824 19.449 453.595 14.4845C447.429 12.8928 441.301 12.3469 416.766 12.3469H389.818V72.6308ZM442.377 32.5385C451.081 34.0389 455.943 35.6322 463.017 41.7887C472.026 49.6286 475.493 56.9624 475.497 72.5219C475.502 87.5255 472.8 93.0281 464.515 101.764C455.213 111.571 438.854 114.444 421.384 113.772C418.208 113.65 411.783 113.009 411.783 113.009V73.9747C411.783 73.9747 411.783 38.0402 411.783 32.0427C421.065 31.2931 430.804 30.5434 442.377 32.5385Z"/>
<path d="M541.16 13.8384C509.716 25.0051 506.251 62.8079 535.526 75.2914C539.54 77.0021 550.344 80.2988 559.537 82.6155C576.399 86.8665 585.009 90.7664 586.601 94.8755C594.517 115.328 558.181 122.858 528.492 106.919L520.749 102.761L513.751 120.034C513.751 120.034 532.122 130.8 542.195 132.741C547.12 133.69 557.826 134.217 566.062 133.915C578.806 133.446 582.209 132.779 589.254 129.363C607.294 120.613 615.231 102.127 607.856 86.0312C602.594 74.5435 593.196 69.7438 558.559 60.8465C539.416 55.9293 533.292 47.1495 541.916 36.9885C549.785 27.7187 574.488 27.107 591.369 35.7636C593.914 37.0688 597.584 39.0843 597.584 39.0843L606.979 20.4587C606.979 20.4587 605.031 19.2695 592.525 14.7277C580.02 10.186 552.502 9.8095 541.16 13.8384Z"/>
</mask>
<path d="M287.196 99.3112H302.994V97.3112H287.196V99.3112ZM302.994 99.3112H318.791V97.3112H302.994V99.3112ZM305.679 77.2528H287.196V79.2528H305.679V77.2528ZM7.28864 24.0405V49.38H9.28864V24.0405H7.28864ZM32.9666 76.6092L33.1375 52.8619L31.1376 52.8475L30.9666 76.5948L32.9666 76.6092ZM318.791 97.3112H287.196V99.3112H318.791V97.3112ZM541.16 13.8384L541.83 15.723L541.83 15.723L541.16 13.8384ZM535.526 75.2914L534.742 77.1311L534.742 77.1312L535.526 75.2914ZM559.537 82.6155L560.026 80.6762L560.026 80.6762L559.537 82.6155ZM586.601 94.8755L588.466 94.1535L588.466 94.1532L586.601 94.8755ZM528.492 106.919L527.545 108.681L527.546 108.681L528.492 106.919ZM520.749 102.761L521.695 100.999L519.732 99.945L518.895 102.01L520.749 102.761ZM513.751 120.034L511.898 119.283L511.249 120.885L512.74 121.76L513.751 120.034ZM542.195 132.741L541.817 134.705L541.817 134.705L542.195 132.741ZM566.062 133.915L566.135 135.913L566.135 135.913L566.062 133.915ZM589.254 129.363L590.127 131.163L590.127 131.162L589.254 129.363ZM607.856 86.0312L606.038 86.8642L606.038 86.8642L607.856 86.0312ZM558.559 60.8465L559.056 58.9094L559.056 58.9094L558.559 60.8465ZM541.916 36.9885L540.392 35.6943L540.392 35.6943L541.916 36.9885ZM591.369 35.7636L590.456 37.5432L590.456 37.5432L591.369 35.7636ZM597.584 39.0843L596.621 40.8373L598.437 41.8345L599.37 39.985L597.584 39.0843ZM8.28864 132.697H6.28864V134.697H8.28864V132.697ZM31.37 132.697V134.697H33.3509L33.37 132.716L31.37 132.697ZM31.7531 92.7765L29.7532 92.7501L29.7532 92.7573L31.7531 92.7765ZM32.1375 52.8547L33.6869 51.5899L33.6783 51.5795L32.1375 52.8547ZM64.6588 92.6934L63.1095 93.9582L63.1095 93.9582L64.6588 92.6934ZM97.18 132.531L95.6307 133.795L96.2244 134.523L97.163 134.531L97.18 132.531ZM106.936 132.614L106.953 130.614L106.953 130.614L106.936 132.614ZM116.693 132.697L116.676 134.697L118.693 134.714V132.697H116.693ZM116.693 12.3469H118.693V10.3469H116.693V12.3469ZM93.6128 12.3469V10.3469H91.6321L91.6129 12.3275L93.6128 12.3469ZM93.2283 52.0839L91.2284 52.0645L91.2284 52.0645L93.2283 52.0839ZM92.8439 91.8209L91.2966 93.0882L94.7904 97.3538L94.8438 91.8402L92.8439 91.8209ZM60.3226 52.1154L61.8699 50.8481L61.8699 50.8481L60.3226 52.1154ZM27.8014 12.4099L29.3486 11.1426L28.751 10.413L27.8078 10.4099L27.8014 12.4099ZM18.045 12.3784L18.0515 10.3784L18.045 12.3784ZM8.28864 12.3469L8.2951 10.3469L6.28864 10.3404V12.3469H8.28864ZM148.491 132.697H146.491V134.697H148.491V132.697ZM240.996 132.697V134.697H242.996V132.697H240.996ZM240.996 114.071H242.996V112.071H240.996V114.071ZM171.618 114.071H169.618V116.071H171.618V114.071ZM171.618 81.1183V79.1183H169.618V81.1183H171.618ZM230.878 81.1183V83.1183H232.878V81.1183H230.878ZM230.878 62.4927H232.878V60.4927H230.878V62.4927ZM171.618 62.4927H169.618V64.4927H171.618V62.4927ZM171.618 30.9725V28.9725H169.618V30.9725H171.618ZM238.105 30.9725V32.9725H240.105V30.9725H238.105ZM238.105 12.3469H240.105V10.3469H238.105V12.3469ZM148.491 12.3469V10.3469H146.491V12.3469H148.491ZM265.568 132.697H263.568V134.697H265.568V132.697ZM287.196 132.697V134.697H289.196V132.697H287.196ZM318.791 98.3112L317.116 99.4054L317.134 99.4321L317.152 99.4582L318.791 98.3112ZM330.818 115.49L332.456 114.343L332.456 114.343L330.818 115.49ZM342.843 132.67L341.205 133.817L341.801 134.669L342.841 134.67L342.843 132.67ZM354.768 132.683L354.77 130.683L354.77 130.683L354.768 132.683ZM353.53 112.422L351.898 113.578L351.898 113.578L353.53 112.422ZM346.457 90.0643L345.433 88.3462L345.433 88.3462L346.457 90.0643ZM363.702 55.329L365.702 55.3532L363.702 55.329ZM351.513 24.1054L350.198 25.6123L350.198 25.6124L351.513 24.1054ZM265.568 12.3469V10.3469H263.568V12.3469H265.568ZM389.818 132.915H387.818V134.915H389.818V132.915ZM420.316 132.915L420.375 130.916L420.346 130.915H420.316V132.915ZM460.061 128.837L459.317 126.981L459.317 126.981L460.061 128.837ZM496.213 68.675L494.215 68.7712L494.215 68.7714L496.213 68.675ZM491.081 46.4203L489.273 47.2741L489.273 47.2742L491.081 46.4203ZM453.595 14.4845L454.095 12.548L454.095 12.548L453.595 14.4845ZM389.818 12.3469V10.3469H387.818V12.3469H389.818ZM330.419 34.2918L329.508 36.0722L329.508 36.0724L330.419 34.2918ZM330.505 75.0292L331.412 76.8121L331.412 76.8121L330.505 75.0292ZM305.679 78.2528V76.2528H301.983L304.005 79.3471L305.679 78.2528ZM287.196 30.5928V28.5928H285.196V30.5928H287.196ZM305.679 30.5928L305.751 28.5941L305.715 28.5928H305.679V30.5928ZM442.377 32.5385L442.037 34.5094L442.377 32.5385ZM463.017 41.7887L461.704 43.2973L461.704 43.2974L463.017 41.7887ZM475.497 72.5219L473.497 72.5224L473.497 72.5225L475.497 72.5219ZM464.515 101.764L465.966 103.14L465.967 103.14L464.515 101.764ZM421.384 113.772L421.307 115.77L421.384 113.772ZM411.783 113.009H409.783V114.819L411.585 114.999L411.783 113.009ZM411.783 32.0427L411.622 30.0492L409.783 30.1978V32.0427H411.783ZM48.3982 72.774L49.9475 71.5093L49.9475 71.5093L48.3982 72.774ZM8.28864 24.0405H6.28864V24.7609L6.74792 25.3158L8.28864 24.0405ZM8.28864 49.38L9.79766 48.0674L6.28864 44.0332V49.38H8.28864ZM31.9666 76.602L33.9664 76.6284L33.9765 75.8653L33.4756 75.2895L31.9666 76.602ZM606.979 20.4587L608.765 21.3594L609.596 19.7125L608.021 18.7516L606.979 20.4587ZM540.491 11.9537C524.092 17.7776 514.796 30.6458 513.582 43.8885C512.364 57.1747 519.319 70.5546 534.742 77.1311L536.311 73.4517C522.458 67.5447 516.509 55.7814 517.565 44.2537C518.626 32.6825 526.785 21.0659 541.83 15.723L540.491 11.9537ZM534.742 77.1312C538.909 78.9073 549.843 82.235 559.048 84.5549L560.026 80.6762C550.846 78.3626 540.171 75.0968 536.31 73.4515L534.742 77.1312ZM559.048 84.5548C567.44 86.6705 573.673 88.6739 577.97 90.6205C580.118 91.5934 581.716 92.5231 582.842 93.401C583.977 94.2865 584.516 95.0301 584.736 95.5978L588.466 94.1532C587.89 92.6663 586.756 91.3815 585.302 90.2472C583.838 89.1053 581.932 88.0239 579.621 86.9769C574.999 84.8835 568.496 82.8115 560.026 80.6762L559.048 84.5548ZM584.735 95.5974C586.48 100.106 585.744 103.633 583.495 106.352C581.139 109.2 576.909 111.411 571.242 112.586C559.944 114.927 543.913 112.928 529.438 105.157L527.546 108.681C542.759 116.849 559.742 119.054 572.054 116.502C578.194 115.23 583.419 112.72 586.577 108.902C589.842 104.955 590.679 99.8715 588.466 94.1535L584.735 95.5974ZM529.438 105.157L521.695 100.999L519.802 104.523L527.545 108.681L529.438 105.157ZM513.751 120.034C512.74 121.76 512.74 121.76 512.741 121.76C512.741 121.76 512.741 121.76 512.742 121.76C512.742 121.761 512.743 121.761 512.745 121.762C512.747 121.764 512.751 121.766 512.756 121.769C512.765 121.774 512.779 121.782 512.798 121.793C512.834 121.814 512.888 121.846 512.958 121.886C513.098 121.967 513.304 122.086 513.569 122.237C514.098 122.539 514.863 122.972 515.811 123.497C517.708 124.546 520.344 125.965 523.3 127.448C529.139 130.375 536.476 133.676 541.817 134.705L542.574 130.777C537.842 129.865 530.957 126.812 525.092 123.872C522.197 122.42 519.61 121.027 517.747 119.996C516.816 119.482 516.067 119.058 515.553 118.764C515.295 118.617 515.096 118.502 514.962 118.425C514.895 118.386 514.845 118.356 514.811 118.337C514.795 118.327 514.782 118.32 514.774 118.315C514.77 118.313 514.767 118.311 514.765 118.31C514.764 118.309 514.763 118.309 514.763 118.309C514.763 118.309 514.763 118.309 514.763 118.308C514.763 118.308 514.763 118.308 513.751 120.034ZM541.817 134.705C546.954 135.695 557.831 136.218 566.135 135.913L565.988 131.916C557.821 132.216 547.285 131.685 542.574 130.777L541.817 134.705ZM566.135 135.913C572.503 135.679 576.684 135.393 580.18 134.707C583.738 134.008 586.522 132.91 590.127 131.163L588.382 127.563C584.942 129.231 582.502 130.175 579.41 130.781C576.258 131.4 572.364 131.682 565.988 131.916L566.135 135.913ZM590.127 131.162C608.935 122.04 617.593 102.482 609.675 85.1981L606.038 86.8642C612.868 101.772 605.653 119.186 588.382 127.563L590.127 131.162ZM609.675 85.1982C606.842 79.0156 602.841 74.6239 595.133 70.6864C587.572 66.824 576.358 63.3538 559.056 58.9094L558.061 62.7836C575.396 67.2365 586.2 70.6148 593.313 74.2485C600.279 77.8071 603.608 81.5591 606.038 86.8642L609.675 85.1982ZM559.056 58.9094C549.58 56.4753 543.878 53.1996 541.465 49.7397C540.312 48.0864 539.904 46.3899 540.165 44.6001C540.434 42.7576 541.439 40.641 543.441 38.2828L540.392 35.6943C538.081 38.4166 536.618 41.2079 536.207 44.0229C535.789 46.8908 536.492 49.6017 538.184 52.0282C541.463 56.7278 548.394 60.3005 558.061 62.7836L559.056 58.9094ZM543.441 38.2828C545.092 36.3381 547.743 34.7231 551.22 33.5669C554.679 32.4167 558.83 31.7641 563.313 31.653C572.295 31.4305 582.353 33.3876 590.456 37.5432L592.282 33.9839C583.504 29.4829 572.77 27.4176 563.214 27.6543C558.427 27.7728 553.871 28.4702 549.958 29.7713C546.063 31.0664 542.675 33.0041 540.392 35.6943L543.441 38.2828ZM590.456 37.5432C591.71 38.1859 593.248 39.0079 594.481 39.6733C595.096 40.0052 595.631 40.2965 596.013 40.5048C596.204 40.6089 596.356 40.6922 596.461 40.7494C596.513 40.778 596.553 40.8001 596.581 40.815C596.594 40.8224 596.604 40.828 596.611 40.8318C596.615 40.8337 596.617 40.8351 596.619 40.836C596.62 40.8365 596.62 40.8368 596.621 40.837C596.621 40.8371 596.621 40.8372 596.621 40.8373C596.621 40.8373 596.621 40.8373 596.621 40.8373C596.621 40.8373 596.621 40.8373 597.584 39.0843C598.547 37.3313 598.547 37.3313 598.547 37.3312C598.547 37.3312 598.547 37.3312 598.547 37.3312C598.546 37.3311 598.546 37.331 598.546 37.3308C598.546 37.3306 598.545 37.3302 598.544 37.3297C598.542 37.3286 598.539 37.3271 598.536 37.3252C598.529 37.3212 598.518 37.3154 598.504 37.3077C598.476 37.2924 598.435 37.2699 598.382 37.2409C598.276 37.1827 598.121 37.0984 597.929 36.9932C597.543 36.7828 597.002 36.4886 596.381 36.1535C595.142 35.4848 593.574 34.6465 592.282 33.9839L590.456 37.5432ZM593.208 12.8479C586.643 10.4634 576.374 9.22875 566.439 9.06932C556.521 8.91016 546.511 9.81539 540.491 11.9537L541.83 15.723C547.152 13.8325 556.572 12.9115 566.374 13.0688C576.16 13.2258 585.902 14.4503 591.842 16.6076L593.208 12.8479ZM6.28864 72.5219V132.697H10.2886V72.5219H6.28864ZM8.28864 134.697H19.8286V130.697H8.28864V134.697ZM19.8286 134.697H31.37V130.697H19.8286V134.697ZM33.37 132.716L33.753 92.7957L29.7532 92.7573L29.3701 132.678L33.37 132.716ZM63.1095 93.9582L95.6307 133.795L98.7293 131.266L66.2081 91.4286L63.1095 93.9582ZM97.163 134.531L106.919 134.614L106.953 130.614L97.1971 130.531L97.163 134.531ZM106.919 134.614L116.676 134.697L116.71 130.697L106.953 130.614L106.919 134.614ZM118.693 132.697V72.5219H114.693V132.697H118.693ZM118.693 72.5219V12.3469H114.693V72.5219H118.693ZM116.693 10.3469H105.153V14.3469H116.693V10.3469ZM105.153 10.3469H93.6128V14.3469H105.153V10.3469ZM91.6129 12.3275L91.2284 52.0645L95.2282 52.1032L95.6127 12.3662L91.6129 12.3275ZM91.2284 52.0645L90.844 91.8015L94.8438 91.8402L95.2282 52.1032L91.2284 52.0645ZM94.3911 90.5536L61.8699 50.8481L58.7754 53.3827L91.2966 93.0882L94.3911 90.5536ZM61.8699 50.8481L29.3486 11.1426L26.2541 13.6772L58.7754 53.3827L61.8699 50.8481ZM27.8078 10.4099L18.0515 10.3784L18.0385 14.3784L27.7949 14.4099L27.8078 10.4099ZM18.0515 10.3784L8.2951 10.3469L8.28217 14.3469L18.0385 14.3784L18.0515 10.3784ZM146.491 72.5219V132.697H150.491V72.5219H146.491ZM148.491 134.697H194.744V130.697H148.491V134.697ZM194.744 134.697H240.996V130.697H194.744V134.697ZM242.996 132.697V123.384H238.996V132.697H242.996ZM242.996 123.384V114.071H238.996V123.384H242.996ZM240.996 112.071H206.307V116.071H240.996V112.071ZM206.307 112.071H171.618V116.071H206.307V112.071ZM173.618 114.071V97.5948H169.618V114.071H173.618ZM173.618 97.5948V81.1183H169.618V97.5948H173.618ZM171.618 83.1183H201.248V79.1183H171.618V83.1183ZM201.248 83.1183H230.878V79.1183H201.248V83.1183ZM232.878 81.1183V71.8055H228.878V81.1183H232.878ZM232.878 71.8055V62.4927H228.878V71.8055H232.878ZM230.878 60.4927H201.248V64.4927H230.878V60.4927ZM201.248 60.4927H171.618V64.4927H201.248V60.4927ZM173.618 62.4927V46.7326H169.618V62.4927H173.618ZM173.618 46.7326V30.9725H169.618V46.7326H173.618ZM171.618 32.9725H204.861V28.9725H171.618V32.9725ZM204.861 32.9725H238.105V28.9725H204.861V32.9725ZM240.105 30.9725V21.6597H236.105V30.9725H240.105ZM240.105 21.6597V12.3469H236.105V21.6597H240.105ZM238.105 10.3469H193.298V14.3469H238.105V10.3469ZM193.298 10.3469H148.491V14.3469H193.298V10.3469ZM146.491 12.3469V72.5219H150.491V12.3469H146.491ZM263.568 72.5219V132.697H267.568V72.5219H263.568ZM265.568 134.697H277.131V130.697H265.568V134.697ZM277.131 134.697H287.196V130.697H277.131V134.697ZM289.196 132.697V115.504H285.196V132.697H289.196ZM289.196 115.504V98.3112H285.196V115.504H289.196ZM317.152 99.4582L329.179 116.637L332.456 114.343L320.429 97.1641L317.152 99.4582ZM329.179 116.637L341.205 133.817L344.482 131.523L332.456 114.343L329.179 116.637ZM342.841 134.67L354.766 134.683L354.77 130.683L342.845 130.67L342.841 134.67ZM354.765 134.683C358.077 134.687 361.107 134.595 363.329 134.439C364.431 134.362 365.38 134.267 366.079 134.151C366.413 134.095 366.779 134.021 367.099 133.911C367.245 133.861 367.506 133.762 367.769 133.58C367.952 133.454 368.692 132.903 368.692 131.85H364.692C364.692 130.855 365.39 130.362 365.492 130.292C365.594 130.222 365.677 130.181 365.718 130.162C365.762 130.141 365.792 130.131 365.799 130.128C365.799 130.128 365.695 130.16 365.424 130.205C364.912 130.29 364.11 130.375 363.05 130.449C360.949 130.596 358.018 130.687 354.77 130.683L354.765 134.683ZM368.692 131.85C368.692 131.442 368.563 131.122 368.548 131.08C368.504 130.964 368.456 130.861 368.419 130.787C368.344 130.633 368.25 130.465 368.153 130.297C367.955 129.956 367.678 129.508 367.338 128.978C366.656 127.911 365.678 126.439 364.482 124.673C362.086 121.137 358.787 116.384 355.163 111.266L351.898 113.578C355.512 118.68 358.794 123.409 361.17 126.916C362.359 128.672 363.314 130.111 363.969 131.134C364.298 131.648 364.539 132.039 364.694 132.305C364.773 132.441 364.813 132.518 364.828 132.549C364.837 132.566 364.823 132.54 364.802 132.485C364.792 132.457 364.771 132.398 364.75 132.317C364.733 132.252 364.692 132.079 364.692 131.85H368.692ZM355.163 111.266C351.551 106.166 348.329 101.493 346.05 98.0761C344.908 96.3644 344.014 94.9833 343.427 94.0265C343.129 93.5419 342.931 93.199 342.821 92.9887C342.761 92.8722 342.76 92.8584 342.778 92.9084C342.782 92.9187 342.836 93.0592 342.86 93.2665C342.872 93.3683 342.892 93.5972 342.832 93.8831C342.77 94.18 342.587 94.6868 342.071 95.0674L339.695 91.8496C339.171 92.2367 338.982 92.7541 338.917 93.0656C338.854 93.3661 338.873 93.6137 338.888 93.7381C338.918 93.9906 338.988 94.1921 339.02 94.2789C339.094 94.4819 339.194 94.6828 339.275 94.8396C339.451 95.176 339.708 95.6139 340.017 96.1184C340.644 97.1399 341.572 98.5702 342.722 100.296C345.028 103.753 348.272 108.457 351.898 113.578L355.163 111.266ZM342.071 95.0674C342.063 95.0734 342.191 94.9882 342.54 94.7702C342.85 94.577 343.271 94.3187 343.773 94.0128C344.777 93.4016 346.094 92.6087 347.48 91.7825L345.433 88.3462C344.037 89.1776 342.709 89.9773 341.693 90.5964C340.739 91.1771 339.93 91.6764 339.695 91.8496L342.071 95.0674ZM347.48 91.7825C361.082 83.6792 365.514 70.8949 365.702 55.3532L361.702 55.3048C361.524 70.055 357.4 81.2166 345.433 88.3462L347.48 91.7825ZM365.702 55.3532C365.783 48.6813 365.159 42.7302 363.193 37.3081C361.217 31.8548 357.923 27.0443 352.828 22.5983L350.198 25.6124C354.825 29.6496 357.706 33.9059 359.433 38.6711C361.171 43.4675 361.78 48.8866 361.702 55.3048L365.702 55.3532ZM352.828 22.5984C346.863 17.3934 341.638 14.261 333.147 12.4947C324.828 10.7641 313.375 10.3469 294.994 10.3469V14.3469C313.442 14.3469 324.483 14.7778 332.333 16.4109C340.012 18.0083 344.631 20.7552 350.198 25.6123L352.828 22.5984ZM294.994 10.3469H265.568V14.3469H294.994V10.3469ZM263.568 12.3469V72.5219H267.568V12.3469H263.568ZM387.818 72.6308V132.915H391.818V72.6308H387.818ZM389.818 134.915H420.316V130.915H389.818V134.915ZM420.257 134.914C428.952 135.17 437.241 134.845 444.252 134.101C451.219 133.361 457.07 132.192 460.806 130.693L459.317 126.981C456.101 128.271 450.691 129.395 443.83 130.123C437.013 130.847 428.905 131.167 420.375 130.916L420.257 134.914ZM460.806 130.693C474.957 125.016 484.747 117.042 490.775 106.58C496.786 96.1458 498.928 83.459 498.21 68.5786L494.215 68.7714C494.911 83.1905 492.81 95.0351 487.309 104.583C481.824 114.102 472.832 121.559 459.317 126.981L460.806 130.693ZM498.21 68.5788C497.958 63.3405 497.597 59.5991 496.8 56.142C495.999 52.6656 494.776 49.5599 492.89 45.5663L489.273 47.2742C491.1 51.1449 492.192 53.9593 492.903 57.0406C493.617 60.1411 493.966 63.5949 494.215 68.7712L498.21 68.5788ZM492.89 45.5664C488.963 37.2476 484.254 30.2573 477.989 24.7028C471.715 19.1397 463.972 15.0982 454.095 12.548L453.095 16.421C462.446 18.8353 469.598 22.6086 475.335 27.6958C481.083 32.7916 485.502 39.287 489.273 47.2741L492.89 45.5664ZM454.095 12.548C447.641 10.882 441.255 10.3469 416.766 10.3469V14.3469C441.347 14.3469 447.216 14.9035 453.095 16.421L454.095 12.548ZM416.766 10.3469H389.818V14.3469H416.766V10.3469ZM387.818 12.3469V72.6308H391.818V12.3469H387.818ZM329.508 36.0724C336.815 39.81 340.121 46.1309 340.121 54.488H344.121C344.121 44.8671 340.174 37.0348 331.33 32.5112L329.508 36.0724ZM340.121 54.488C340.121 59.2257 339.239 62.9932 337.537 66.0033C335.844 68.9968 333.258 71.3863 329.599 73.2463L331.412 76.8121C335.659 74.6533 338.88 71.7537 341.019 67.9722C343.148 64.2072 344.121 59.7136 344.121 54.488H340.121ZM329.599 73.2463C326.95 74.5928 325.045 75.3112 321.857 75.7252C318.543 76.1555 313.873 76.2528 305.679 76.2528V80.2528C313.811 80.2528 318.754 80.1618 322.372 79.6919C326.115 79.2058 328.46 78.3124 331.412 76.8121L329.599 73.2463ZM289.196 78.2528V54.4221H285.196V78.2528H289.196ZM289.196 54.4221V30.5928H285.196V54.4221H289.196ZM287.196 32.5928H305.679V28.5928H287.196V32.5928ZM305.608 32.5915C320.526 33.1251 325.474 34.0077 329.508 36.0722L331.33 32.5114C326.389 29.9826 320.556 29.1236 305.751 28.5941L305.608 32.5915ZM442.037 34.5094C446.349 35.2527 449.556 35.9955 452.526 37.2581C455.473 38.5112 458.281 40.3182 461.704 43.2973L464.33 40.28C460.679 37.1027 457.519 35.0348 454.091 33.577C450.685 32.1287 447.108 31.3246 442.717 30.5675L442.037 34.5094ZM461.704 43.2974C466.064 47.0912 468.952 50.6471 470.789 55.0332C472.639 59.4484 473.495 64.8745 473.497 72.5224L477.497 72.5213C477.495 64.6097 476.616 58.5892 474.479 53.4877C472.329 48.3571 468.98 44.3261 464.33 40.2799L461.704 43.2974ZM473.497 72.5225C473.499 79.9267 472.829 84.7606 471.254 88.7604C469.684 92.7457 467.147 96.0825 463.064 100.387L465.967 103.14C470.169 98.7092 473.124 94.9269 474.976 90.2262C476.821 85.54 477.499 80.1207 477.497 72.5213L473.497 72.5225ZM463.064 100.387C454.398 109.524 438.834 112.441 421.46 111.773L421.307 115.77C438.875 116.446 456.028 113.617 465.966 103.14L463.064 100.387ZM421.46 111.773C419.927 111.714 417.572 111.528 415.567 111.352C414.572 111.265 413.674 111.182 413.026 111.12C412.702 111.089 412.44 111.064 412.26 111.046C412.17 111.037 412.1 111.03 412.053 111.026C412.029 111.023 412.011 111.022 411.999 111.02C411.993 111.02 411.989 111.019 411.986 111.019C411.984 111.019 411.983 111.019 411.983 111.019C411.982 111.019 411.982 111.019 411.982 111.019C411.982 111.019 411.982 111.019 411.982 111.019C411.982 111.019 411.982 111.019 411.783 113.009C411.585 114.999 411.585 114.999 411.585 114.999C411.585 114.999 411.585 114.999 411.585 114.999C411.585 114.999 411.586 114.999 411.586 114.999C411.587 114.999 411.588 114.999 411.59 114.999C411.593 115 411.598 115 411.604 115.001C411.617 115.002 411.635 115.004 411.659 115.006C411.708 115.011 411.779 115.018 411.871 115.027C412.054 115.045 412.319 115.071 412.647 115.102C413.303 115.164 414.21 115.249 415.218 115.337C417.219 115.512 419.664 115.707 421.307 115.77L421.46 111.773ZM413.783 113.009V73.9747H409.783V113.009H413.783ZM411.783 73.9747C413.783 73.9747 413.783 73.9745 413.783 73.9743C413.783 73.974 413.783 73.9736 413.783 73.973C413.783 73.9725 413.783 73.9718 413.783 73.971C413.783 73.9702 413.783 73.9692 413.783 73.9681C413.783 73.967 413.783 73.9658 413.783 73.9645C413.783 73.9631 413.783 73.9616 413.783 73.96C413.783 73.9584 413.783 73.9566 413.783 73.9547C413.783 73.9528 413.783 73.9508 413.783 73.9486C413.783 73.9465 413.783 73.9442 413.783 73.9417C413.783 73.9393 413.783 73.9367 413.783 73.9341C413.783 73.9314 413.783 73.9285 413.783 73.9256C413.783 73.9226 413.783 73.9195 413.783 73.9163C413.783 73.9131 413.783 73.9097 413.783 73.9063C413.783 73.9028 413.783 73.8992 413.783 73.8954C413.783 73.8917 413.783 73.8878 413.783 73.8838C413.783 73.8798 413.783 73.8757 413.783 73.8714C413.783 73.8672 413.783 73.8628 413.783 73.8582C413.783 73.8537 413.783 73.8491 413.783 73.8443C413.783 73.8395 413.783 73.8346 413.783 73.8296C413.783 73.8246 413.783 73.8194 413.783 73.8141C413.783 73.8088 413.783 73.8034 413.783 73.7979C413.783 73.7923 413.783 73.7867 413.783 73.7809C413.783 73.7751 413.783 73.7692 413.783 73.7631C413.783 73.7571 413.783 73.7509 413.783 73.7446C413.783 73.7383 413.783 73.7319 413.783 73.7253C413.783 73.7188 413.783 73.7121 413.783 73.7053C413.783 73.6985 413.783 73.6916 413.783 73.6846C413.783 73.6775 413.783 73.6703 413.783 73.663C413.783 73.6558 413.783 73.6483 413.783 73.6408C413.783 73.6333 413.783 73.6256 413.783 73.6178C413.783 73.61 413.783 73.6021 413.783 73.5941C413.783 73.5861 413.783 73.5779 413.783 73.5697C413.783 73.5614 413.783 73.553 413.783 73.5445C413.783 73.536 413.783 73.5273 413.783 73.5186C413.783 73.5098 413.783 73.501 413.783 73.492C413.783 73.483 413.783 73.4739 413.783 73.4646C413.783 73.4554 413.783 73.446 413.783 73.4366C413.783 73.4271 413.783 73.4175 413.783 73.4078C413.783 73.3981 413.783 73.3883 413.783 73.3783C413.783 73.3684 413.783 73.3583 413.783 73.3481C413.783 73.3379 413.783 73.3276 413.783 73.3172C413.783 73.3068 413.783 73.2963 413.783 73.2856C413.783 73.275 413.783 73.2642 413.783 73.2533C413.783 73.2424 413.783 73.2314 413.783 73.2203C413.783 73.2092 413.783 73.198 413.783 73.1867C413.783 73.1753 413.783 73.1639 413.783 73.1523C413.783 73.1407 413.783 73.129 413.783 73.1172C413.783 73.1054 413.783 73.0935 413.783 73.0815C413.783 73.0694 413.783 73.0573 413.783 73.045C413.783 73.0328 413.783 73.0204 413.783 73.0079C413.783 72.9955 413.783 72.9829 413.783 72.9702C413.783 72.9575 413.783 72.9446 413.783 72.9317C413.783 72.9188 413.783 72.9057 413.783 72.8926C413.783 72.8794 413.783 72.8662 413.783 72.8528C413.783 72.8394 413.783 72.8259 413.783 72.8123C413.783 72.7988 413.783 72.785 413.783 72.7712C413.783 72.7574 413.783 72.7435 413.783 72.7295C413.783 72.7154 413.783 72.7013 413.783 72.687C413.783 72.6728 413.783 72.6584 413.783 72.644C413.783 72.6295 413.783 72.6149 413.783 72.6002C413.783 72.5856 413.783 72.5708 413.783 72.5559C413.783 72.541 413.783 72.526 413.783 72.5109C413.783 72.4957 413.783 72.4805 413.783 72.4652C413.783 72.4499 413.783 72.4344 413.783 72.4189C413.783 72.4034 413.783 72.3877 413.783 72.372C413.783 72.3562 413.783 72.3404 413.783 72.3244C413.783 72.3085 413.783 72.2924 413.783 72.2762C413.783 72.2601 413.783 72.2438 413.783 72.2274C413.783 72.2111 413.783 72.1946 413.783 72.178C413.783 72.1614 413.783 72.1447 413.783 72.128C413.783 72.1112 413.783 72.0943 413.783 72.0773C413.783 72.0603 413.783 72.0432 413.783 72.026C413.783 72.0088 413.783 71.9915 413.783 71.9741C413.783 71.9567 413.783 71.9392 413.783 71.9216C413.783 71.904 413.783 71.8863 413.783 71.8685C413.783 71.8507 413.783 71.8328 413.783 71.8148C413.783 71.7968 413.783 71.7787 413.783 71.7605C413.783 71.7423 413.783 71.724 413.783 71.7056C413.783 71.6872 413.783 71.6687 413.783 71.6501C413.783 71.6315 413.783 71.6128 413.783 71.594C413.783 71.5753 413.783 71.5564 413.783 71.5374C413.783 71.5184 413.783 71.4993 413.783 71.4801C413.783 71.4609 413.783 71.4417 413.783 71.4223C413.783 71.4029 413.783 71.3834 413.783 71.3639C413.783 71.3443 413.783 71.3247 413.783 71.3049C413.783 71.2851 413.783 71.2653 413.783 71.2453C413.783 71.2254 413.783 71.2053 413.783 71.1852C413.783 71.1651 413.783 71.1448 413.783 71.1245C413.783 71.1042 413.783 71.0838 413.783 71.0633C413.783 71.0427 413.783 71.0221 413.783 71.0014C413.783 70.9807 413.783 70.96 413.783 70.9391C413.783 70.9182 413.783 70.8972 413.783 70.8761C413.783 70.8551 413.783 70.8339 413.783 70.8127C413.783 70.7914 413.783 70.7701 413.783 70.7486C413.783 70.7272 413.783 70.7057 413.783 70.6841C413.783 70.6624 413.783 70.6407 413.783 70.6189C413.783 70.5971 413.783 70.5753 413.783 70.5533C413.783 70.5313 413.783 70.5092 413.783 70.4871C413.783 70.4649 413.783 70.4427 413.783 70.4204C413.783 70.398 413.783 70.3756 413.783 70.3531C413.783 70.3306 413.783 70.308 413.783 70.2853C413.783 70.2626 413.783 70.2399 413.783 70.217C413.783 70.1941 413.783 70.1712 413.783 70.1482C413.783 70.1251 413.783 70.102 413.783 70.0788C413.783 70.0556 413.783 70.0323 413.783 70.0089C413.783 69.9856 413.783 69.9621 413.783 69.9386C413.783 69.915 413.783 69.8914 413.783 69.8677C413.783 69.8439 413.783 69.8201 413.783 69.7963C413.783 69.7724 413.783 69.7484 413.783 69.7244C413.783 69.7003 413.783 69.6762 413.783 69.6519C413.783 69.6277 413.783 69.6034 413.783 69.579C413.783 69.5547 413.783 69.5302 413.783 69.5056C413.783 69.4811 413.783 69.4565 413.783 69.4317C413.783 69.407 413.783 69.3822 413.783 69.3574C413.783 69.3325 413.783 69.3075 413.783 69.2825C413.783 69.2575 413.783 69.2323 413.783 69.2071C413.783 69.1819 413.783 69.1567 413.783 69.1313C413.783 69.1059 413.783 69.0805 413.783 69.055C413.783 69.0295 413.783 69.0039 413.783 68.9782C413.783 68.9525 413.783 68.9268 413.783 68.9009C413.783 68.8751 413.783 68.8492 413.783 68.8232C413.783 68.7972 413.783 68.7712 413.783 68.745C413.783 68.7189 413.783 68.6927 413.783 68.6664C413.783 68.6401 413.783 68.6137 413.783 68.5872C413.783 68.5608 413.783 68.5343 413.783 68.5077C413.783 68.4811 413.783 68.4544 413.783 68.4276C413.783 68.4009 413.783 68.374 413.783 68.3471C413.783 68.3202 413.783 68.2933 413.783 68.2662C413.783 68.2392 413.783 68.212 413.783 68.1848C413.783 68.1576 413.783 68.1304 413.783 68.103C413.783 68.0757 413.783 68.0483 413.783 68.0208C413.783 67.9933 413.783 67.9657 413.783 67.9381C413.783 67.9104 413.783 67.8827 413.783 67.8549C413.783 67.8272 413.783 67.7993 413.783 67.7714C413.783 67.7435 413.783 67.7155 413.783 67.6874C413.783 67.6593 413.783 67.6312 413.783 67.603C413.783 67.5748 413.783 67.5465 413.783 67.5181C413.783 67.4898 413.783 67.4614 413.783 67.4329C413.783 67.4044 413.783 67.3758 413.783 67.3472C413.783 67.3186 413.783 67.2899 413.783 67.2611C413.783 67.2324 413.783 67.2035 413.783 67.1746C413.783 67.1457 413.783 67.1168 413.783 67.0877C413.783 67.0587 413.783 67.0296 413.783 67.0004C413.783 66.9713 413.783 66.942 413.783 66.9127C413.783 66.8834 413.783 66.8541 413.783 66.8246C413.783 66.7952 413.783 66.7657 413.783 66.7361C413.783 66.7066 413.783 66.6769 413.783 66.6472C413.783 66.6175 413.783 66.5878 413.783 66.558C413.783 66.5281 413.783 66.4982 413.783 66.4683C413.783 66.4383 413.783 66.4083 413.783 66.3782C413.783 66.3482 413.783 66.318 413.783 66.2878C413.783 66.2576 413.783 66.2273 413.783 66.197C413.783 66.1667 413.783 66.1363 413.783 66.1058C413.783 66.0753 413.783 66.0448 413.783 66.0142C413.783 65.9837 413.783 65.953 413.783 65.9223C413.783 65.8916 413.783 65.8608 413.783 65.83C413.783 65.7992 413.783 65.7683 413.783 65.7374C413.783 65.7064 413.783 65.6754 413.783 65.6443C413.783 65.6133 413.783 65.5822 413.783 65.551C413.783 65.5198 413.783 65.4885 413.783 65.4572C413.783 65.4259 413.783 65.3946 413.783 65.3632C413.783 65.3318 413.783 65.3003 413.783 65.2687C413.783 65.2372 413.783 65.2056 413.783 65.174C413.783 65.1423 413.783 65.1106 413.783 65.0789C413.783 65.0471 413.783 65.0153 413.783 64.9834C413.783 64.9515 413.783 64.9196 413.783 64.8876C413.783 64.8556 413.783 64.8236 413.783 64.7915C413.783 64.7594 413.783 64.7272 413.783 64.695C413.783 64.6628 413.783 64.6306 413.783 64.5982C413.783 64.5659 413.783 64.5336 413.783 64.5011C413.783 64.4687 413.783 64.4362 413.783 64.4037C413.783 64.3712 413.783 64.3386 413.783 64.306C413.783 64.2733 413.783 64.2406 413.783 64.2079C413.783 64.1751 413.783 64.1424 413.783 64.1095C413.783 64.0767 413.783 64.0438 413.783 64.0108C413.783 63.9779 413.783 63.9449 413.783 63.9118C413.783 63.8788 413.783 63.8457 413.783 63.8125C413.783 63.7794 413.783 63.7462 413.783 63.7129C413.783 63.6797 413.783 63.6464 413.783 63.613C413.783 63.5797 413.783 63.5463 413.783 63.5128C413.783 63.4794 413.783 63.4459 413.783 63.4123C413.783 63.3788 413.783 63.3452 413.783 63.3116C413.783 63.2779 413.783 63.2442 413.783 63.2105C413.783 63.1768 413.783 63.143 413.783 63.1092C413.783 63.0753 413.783 63.0415 413.783 63.0075C413.783 62.9736 413.783 62.9396 413.783 62.9056C413.783 62.8716 413.783 62.8375 413.783 62.8034C413.783 62.7693 413.783 62.7352 413.783 62.701C413.783 62.6668 413.783 62.6326 413.783 62.5983C413.783 62.564 413.783 62.5297 413.783 62.4953C413.783 62.4609 413.783 62.4265 413.783 62.392C413.783 62.3576 413.783 62.3231 413.783 62.2885C413.783 62.254 413.783 62.2194 413.783 62.1848C413.783 62.1501 413.783 62.1155 413.783 62.0807C413.783 62.046 413.783 62.0113 413.783 61.9765C413.783 61.9417 413.783 61.9068 413.783 61.8719C413.783 61.8371 413.783 61.8021 413.783 61.7672C413.783 61.7322 413.783 61.6972 413.783 61.6622C413.783 61.6271 413.783 61.592 413.783 61.5569C413.783 61.5218 413.783 61.4866 413.783 61.4514C413.783 61.4162 413.783 61.381 413.783 61.3457C413.783 61.3104 413.783 61.2751 413.783 61.2398C413.783 61.2044 413.783 61.169 413.783 61.1336C413.783 61.0982 413.783 61.0627 413.783 61.0272C413.783 60.9917 413.783 60.9562 413.783 60.9206C413.783 60.885 413.783 60.8494 413.783 60.8137C413.783 60.7781 413.783 60.7424 413.783 60.7067C413.783 60.671 413.783 60.6352 413.783 60.5994C413.783 60.5636 413.783 60.5278 413.783 60.4919C413.783 60.4561 413.783 60.4202 413.783 60.3842C413.783 60.3483 413.783 60.3123 413.783 60.2763C413.783 60.2404 413.783 60.2043 413.783 60.1683C413.783 60.1322 413.783 60.0961 413.783 60.06C413.783 60.0238 413.783 59.9877 413.783 59.9515C413.783 59.9153 413.783 59.8791 413.783 59.8428C413.783 59.8065 413.783 59.7703 413.783 59.7339C413.783 59.6976 413.783 59.6613 413.783 59.6249C413.783 59.5885 413.783 59.5521 413.783 59.5156C413.783 59.4792 413.783 59.4427 413.783 59.4062C413.783 59.3697 413.783 59.3332 413.783 59.2966C413.783 59.2601 413.783 59.2235 413.783 59.1869C413.783 59.1502 413.783 59.1136 413.783 59.0769C413.783 59.0402 413.783 59.0035 413.783 58.9668C413.783 58.9301 413.783 58.8933 413.783 58.8565C413.783 58.8197 413.783 58.7829 413.783 58.7461C413.783 58.7093 413.783 58.6724 413.783 58.6355C413.783 58.5986 413.783 58.5617 413.783 58.5247C413.783 58.4878 413.783 58.4508 413.783 58.4138C413.783 58.3768 413.783 58.3398 413.783 58.3028C413.783 58.2657 413.783 58.2287 413.783 58.1916C413.783 58.1545 413.783 58.1173 413.783 58.0802C413.783 58.0431 413.783 58.0059 413.783 57.9687C413.783 57.9315 413.783 57.8943 413.783 57.8571C413.783 57.8198 413.783 57.7826 413.783 57.7453C413.783 57.708 413.783 57.6707 413.783 57.6334C413.783 57.5961 413.783 57.5587 413.783 57.5214C413.783 57.484 413.783 57.4466 413.783 57.4092C413.783 57.3718 413.783 57.3344 413.783 57.2969C413.783 57.2595 413.783 57.222 413.783 57.1845C413.783 57.147 413.783 57.1095 413.783 57.072C413.783 57.0344 413.783 56.9969 413.783 56.9593C413.783 56.9218 413.783 56.8842 413.783 56.8466C413.783 56.809 413.783 56.7713 413.783 56.7337C413.783 56.6961 413.783 56.6584 413.783 56.6207C413.783 56.5831 413.783 56.5454 413.783 56.5076C413.783 56.4699 413.783 56.4322 413.783 56.3945C413.783 56.3567 413.783 56.319 413.783 56.2812C413.783 56.2434 413.783 56.2056 413.783 56.1678C413.783 56.13 413.783 56.0922 413.783 56.0544C413.783 56.0165 413.783 55.9787 413.783 55.9408C413.783 55.9029 413.783 55.8651 413.783 55.8272C413.783 55.7893 413.783 55.7514 413.783 55.7134C413.783 55.6755 413.783 55.6376 413.783 55.5996C413.783 55.5617 413.783 55.5237 413.783 55.4858C413.783 55.4478 413.783 55.4098 413.783 55.3718C413.783 55.3338 413.783 55.2958 413.783 55.2578C413.783 55.2198 413.783 55.1817 413.783 55.1437C413.783 55.1056 413.783 55.0676 413.783 55.0295C413.783 54.9914 413.783 54.9534 413.783 54.9153C413.783 54.8772 413.783 54.8391 413.783 54.801C413.783 54.7629 413.783 54.7248 413.783 54.6867C413.783 54.6485 413.783 54.6104 413.783 54.5723C413.783 54.5341 413.783 54.496 413.783 54.4578C413.783 54.4197 413.783 54.3815 413.783 54.3433C413.783 54.3052 413.783 54.267 413.783 54.2288C413.783 54.1906 413.783 54.1524 413.783 54.1142C413.783 54.076 413.783 54.0378 413.783 53.9996C413.783 53.9614 413.783 53.9232 413.783 53.8849C413.783 53.8467 413.783 53.8085 413.783 53.7702C413.783 53.732 413.783 53.6938 413.783 53.6555C413.783 53.6173 413.783 53.579 413.783 53.5408C413.783 53.5025 413.783 53.4643 413.783 53.426C413.783 53.3877 413.783 53.3495 413.783 53.3112C413.783 53.2729 413.783 53.2347 413.783 53.1964C413.783 53.1581 413.783 53.1198 413.783 53.0816C413.783 53.0433 413.783 53.005 413.783 52.9667C413.783 52.9284 413.783 52.8902 413.783 52.8519C413.783 52.8136 413.783 52.7753 413.783 52.737C413.783 52.6987 413.783 52.6604 413.783 52.6222C413.783 52.5839 413.783 52.5456 413.783 52.5073C413.783 52.469 413.783 52.4307 413.783 52.3924C413.783 52.3542 413.783 52.3159 413.783 52.2776C413.783 52.2393 413.783 52.201 413.783 52.1627C413.783 52.1245 413.783 52.0862 413.783 52.0479C413.783 52.0096 413.783 51.9714 413.783 51.9331C413.783 51.8948 413.783 51.8565 413.783 51.8183C413.783 51.78 413.783 51.7417 413.783 51.7035C413.783 51.6652 413.783 51.627 413.783 51.5887C413.783 51.5505 413.783 51.5122 413.783 51.474C413.783 51.4357 413.783 51.3975 413.783 51.3593C413.783 51.321 413.783 51.2828 413.783 51.2446C413.783 51.2064 413.783 51.1682 413.783 51.13C413.783 51.0917 413.783 51.0535 413.783 51.0154C413.783 50.9772 413.783 50.939 413.783 50.9008C413.783 50.8626 413.783 50.8244 413.783 50.7863C413.783 50.7481 413.783 50.7099 413.783 50.6718C413.783 50.6336 413.783 50.5955 413.783 50.5574C413.783 50.5192 413.783 50.4811 413.783 50.443C413.783 50.4049 413.783 50.3668 413.783 50.3287C413.783 50.2906 413.783 50.2525 413.783 50.2144C413.783 50.1763 413.783 50.1383 413.783 50.1002C413.783 50.0621 413.783 50.0241 413.783 49.9861C413.783 49.948 413.783 49.91 413.783 49.872C413.783 49.834 413.783 49.796 413.783 49.758C413.783 49.72 413.783 49.682 413.783 49.6441C413.783 49.6061 413.783 49.5682 413.783 49.5302C413.783 49.4923 413.783 49.4544 413.783 49.4164C413.783 49.3785 413.783 49.3406 413.783 49.3028C413.783 49.2649 413.783 49.227 413.783 49.1891C413.783 49.1513 413.783 49.1135 413.783 49.0756C413.783 49.0378 413.783 49 413.783 48.9622C413.783 48.9244 413.783 48.8866 413.783 48.8489C413.783 48.8111 413.783 48.7734 413.783 48.7356C413.783 48.6979 413.783 48.6602 413.783 48.6225C413.783 48.5848 413.783 48.5471 413.783 48.5094C413.783 48.4718 413.783 48.4341 413.783 48.3965C413.783 48.3589 413.783 48.3213 413.783 48.2837C413.783 48.2461 413.783 48.2085 413.783 48.171C413.783 48.1334 413.783 48.0959 413.783 48.0584C413.783 48.0209 413.783 47.9834 413.783 47.9459C413.783 47.9084 413.783 47.871 413.783 47.8335C413.783 47.7961 413.783 47.7587 413.783 47.7213C413.783 47.6839 413.783 47.6465 413.783 47.6092C413.783 47.5718 413.783 47.5345 413.783 47.4972C413.783 47.4599 413.783 47.4226 413.783 47.3853C413.783 47.3481 413.783 47.3108 413.783 47.2736C413.783 47.2364 413.783 47.1992 413.783 47.162C413.783 47.1249 413.783 47.0877 413.783 47.0506C413.783 47.0135 413.783 46.9764 413.783 46.9393C413.783 46.9022 413.783 46.8652 413.783 46.8281C413.783 46.7911 413.783 46.7541 413.783 46.7171C413.783 46.6801 413.783 46.6432 413.783 46.6063C413.783 46.5693 413.783 46.5324 413.783 46.4956C413.783 46.4587 413.783 46.4219 413.783 46.385C413.783 46.3482 413.783 46.3114 413.783 46.2747C413.783 46.2379 413.783 46.2012 413.783 46.1644C413.783 46.1277 413.783 46.0911 413.783 46.0544C413.783 46.0177 413.783 45.9811 413.783 45.9445C413.783 45.9079 413.783 45.8714 413.783 45.8348C413.783 45.7983 413.783 45.7618 413.783 45.7253C413.783 45.6888 413.783 45.6524 413.783 45.6159C413.783 45.5795 413.783 45.5431 413.783 45.5068C413.783 45.4704 413.783 45.4341 413.783 45.3978C413.783 45.3615 413.783 45.3252 413.783 45.289C413.783 45.2528 413.783 45.2166 413.783 45.1804C413.783 45.1442 413.783 45.1081 413.783 45.072C413.783 45.0359 413.783 44.9998 413.783 44.9638C413.783 44.9277 413.783 44.8917 413.783 44.8558C413.783 44.8198 413.783 44.7838 413.783 44.7479C413.783 44.712 413.783 44.6762 413.783 44.6403C413.783 44.6045 413.783 44.5687 413.783 44.5329C413.783 44.4972 413.783 44.4614 413.783 44.4257C413.783 44.3901 413.783 44.3544 413.783 44.3188C413.783 44.2832 413.783 44.2476 413.783 44.212C413.783 44.1765 413.783 44.141 413.783 44.1055C413.783 44.07 413.783 44.0346 413.783 43.9992C413.783 43.9638 413.783 43.9284 413.783 43.8931C413.783 43.8577 413.783 43.8225 413.783 43.7872C413.783 43.752 413.783 43.7168 413.783 43.6816C413.783 43.6464 413.783 43.6113 413.783 43.5762C413.783 43.5411 413.783 43.506 413.783 43.471C413.783 43.436 413.783 43.4011 413.783 43.3661C413.783 43.3312 413.783 43.2963 413.783 43.2614C413.783 43.2266 413.783 43.1918 413.783 43.157C413.783 43.1223 413.783 43.0875 413.783 43.0528C413.783 43.0182 413.783 42.9835 413.783 42.9489C413.783 42.9143 413.783 42.8798 413.783 42.8453C413.783 42.8107 413.783 42.7763 413.783 42.7418C413.783 42.7074 413.783 42.673 413.783 42.6387C413.783 42.6044 413.783 42.5701 413.783 42.5358C413.783 42.5016 413.783 42.4674 413.783 42.4332C413.783 42.399 413.783 42.3649 413.783 42.3308C413.783 42.2968 413.783 42.2627 413.783 42.2288C413.783 42.1948 413.783 42.1609 413.783 42.127C413.783 42.0931 413.783 42.0592 413.783 42.0254C413.783 41.9917 413.783 41.9579 413.783 41.9242C413.783 41.8905 413.783 41.8569 413.783 41.8233C413.783 41.7897 413.783 41.7561 413.783 41.7226C413.783 41.6891 413.783 41.6556 413.783 41.6222C413.783 41.5888 413.783 41.5554 413.783 41.5221C413.783 41.4888 413.783 41.4556 413.783 41.4223C413.783 41.3891 413.783 41.356 413.783 41.3229C413.783 41.2897 413.783 41.2567 413.783 41.2237C413.783 41.1907 413.783 41.1577 413.783 41.1248C413.783 41.0919 413.783 41.059 413.783 41.0262C413.783 40.9934 413.783 40.9607 413.783 40.928C413.783 40.8953 413.783 40.8626 413.783 40.83C413.783 40.7974 413.783 40.7649 413.783 40.7324C413.783 40.6999 413.783 40.6675 413.783 40.6351C413.783 40.6027 413.783 40.5704 413.783 40.5381C413.783 40.5058 413.783 40.4736 413.783 40.4414C413.783 40.4093 413.783 40.3772 413.783 40.3451C413.783 40.3131 413.783 40.2811 413.783 40.2491C413.783 40.2172 413.783 40.1853 413.783 40.1535C413.783 40.1216 413.783 40.0899 413.783 40.0581C413.783 40.0264 413.783 39.9948 413.783 39.9631C413.783 39.9315 413.783 39.9 413.783 39.8685C413.783 39.837 413.783 39.8056 413.783 39.7742C413.783 39.7428 413.783 39.7115 413.783 39.6803C413.783 39.649 413.783 39.6178 413.783 39.5867C413.783 39.5555 413.783 39.5245 413.783 39.4934C413.783 39.4624 413.783 39.4315 413.783 39.4006C413.783 39.3697 413.783 39.3388 413.783 39.308C413.783 39.2773 413.783 39.2465 413.783 39.2159C413.783 39.1852 413.783 39.1546 413.783 39.1241C413.783 39.0936 413.783 39.0631 413.783 39.0327C413.783 39.0023 413.783 38.9719 413.783 38.9416C413.783 38.9114 413.783 38.8811 413.783 38.851C413.783 38.8208 413.783 38.7907 413.783 38.7607C413.783 38.7307 413.783 38.7007 413.783 38.6708C413.783 38.6409 413.783 38.611 413.783 38.5813C413.783 38.5515 413.783 38.5218 413.783 38.4921C413.783 38.4625 413.783 38.4329 413.783 38.4034C413.783 38.3739 413.783 38.3444 413.783 38.315C413.783 38.2857 413.783 38.2563 413.783 38.2271C413.783 38.1978 413.783 38.1687 413.783 38.1395C413.783 38.1104 413.783 38.0814 413.783 38.0524C413.783 38.0234 413.783 37.9945 413.783 37.9656C413.783 37.9368 413.783 37.908 413.783 37.8793C413.783 37.8506 413.783 37.8219 413.783 37.7934C413.783 37.7648 413.783 37.7363 413.783 37.7079C413.783 37.6794 413.783 37.6511 413.783 37.6228C413.783 37.5945 413.783 37.5663 413.783 37.5381C413.783 37.5099 413.783 37.4819 413.783 37.4538C413.783 37.4258 413.783 37.3979 413.783 37.37C413.783 37.3422 413.783 37.3144 413.783 37.2866C413.783 37.2589 413.783 37.2312 413.783 37.2037C413.783 37.1761 413.783 37.1486 413.783 37.1211C413.783 37.0937 413.783 37.0663 413.783 37.039C413.783 37.0118 413.783 36.9845 413.783 36.9574C413.783 36.9303 413.783 36.9032 413.783 36.8762C413.783 36.8492 413.783 36.8223 413.783 36.7954C413.783 36.7686 413.783 36.7418 413.783 36.7151C413.783 36.6884 413.783 36.6618 413.783 36.6353C413.783 36.6087 413.783 36.5823 413.783 36.5559C413.783 36.5295 413.783 36.5032 413.783 36.4769C413.783 36.4507 413.783 36.4245 413.783 36.3984C413.783 36.3724 413.783 36.3464 413.783 36.3204C413.783 36.2945 413.783 36.2686 413.783 36.2429C413.783 36.2171 413.783 36.1914 413.783 36.1658C413.783 36.1402 413.783 36.1146 413.783 36.0892C413.783 36.0637 413.783 36.0384 413.783 36.0131C413.783 35.9878 413.783 35.9625 413.783 35.9374C413.783 35.9123 413.783 35.8872 413.783 35.8622C413.783 35.8373 413.783 35.8124 413.783 35.7876C413.783 35.7627 413.783 35.738 413.783 35.7134C413.783 35.6887 413.783 35.6641 413.783 35.6397C413.783 35.6152 413.783 35.5908 413.783 35.5664C413.783 35.5421 413.783 35.5179 413.783 35.4937C413.783 35.4696 413.783 35.4455 413.783 35.4215C413.783 35.3975 413.783 35.3736 413.783 35.3498C413.783 35.326 413.783 35.3022 413.783 35.2786C413.783 35.2549 413.783 35.2314 413.783 35.2079C413.783 35.1844 413.783 35.161 413.783 35.1377C413.783 35.1144 413.783 35.0912 413.783 35.068C413.783 35.0449 413.783 35.0218 413.783 34.9989C413.783 34.9759 413.783 34.953 413.783 34.9302C413.783 34.9075 413.783 34.8847 413.783 34.8621C413.783 34.8395 413.783 34.817 413.783 34.7945C413.783 34.7721 413.783 34.7498 413.783 34.7275C413.783 34.7052 413.783 34.6831 413.783 34.661C413.783 34.6389 413.783 34.6169 413.783 34.595C413.783 34.5731 413.783 34.5513 413.783 34.5295C413.783 34.5078 413.783 34.4862 413.783 34.4646C413.783 34.4431 413.783 34.4216 413.783 34.4002C413.783 34.3789 413.783 34.3576 413.783 34.3364C413.783 34.3152 413.783 34.2942 413.783 34.2732C413.783 34.2522 413.783 34.2313 413.783 34.2104C413.783 34.1896 413.783 34.1689 413.783 34.1483C413.783 34.1277 413.783 34.1071 413.783 34.0867C413.783 34.0662 413.783 34.0459 413.783 34.0256C413.783 34.0054 413.783 33.9852 413.783 33.9652C413.783 33.9451 413.783 33.9251 413.783 33.9052C413.783 33.8854 413.783 33.8656 413.783 33.8459C413.783 33.8262 413.783 33.8066 413.783 33.7871C413.783 33.7676 413.783 33.7483 413.783 33.729C413.783 33.7097 413.783 33.6904 413.783 33.6713C413.783 33.6522 413.783 33.6332 413.783 33.6143C413.783 33.5954 413.783 33.5766 413.783 33.5579C413.783 33.5392 413.783 33.5205 413.783 33.502C413.783 33.4835 413.783 33.4651 413.783 33.4468C413.783 33.4284 413.783 33.4102 413.783 33.3921C413.783 33.374 413.783 33.3559 413.783 33.338C413.783 33.3201 413.783 33.3023 413.783 33.2845C413.783 33.2668 413.783 33.2492 413.783 33.2317C413.783 33.2141 413.783 33.1967 413.783 33.1794C413.783 33.1621 413.783 33.1449 413.783 33.1277C413.783 33.1106 413.783 33.0936 413.783 33.0767C413.783 33.0598 413.783 33.043 413.783 33.0263C413.783 33.0096 413.783 32.993 413.783 32.9765C413.783 32.9599 413.783 32.9436 413.783 32.9273C413.783 32.911 413.783 32.8948 413.783 32.8787C413.783 32.8626 413.783 32.8466 413.783 32.8307C413.783 32.8149 413.783 32.7991 413.783 32.7834C413.783 32.7678 413.783 32.7522 413.783 32.7368C413.783 32.7213 413.783 32.7059 413.783 32.6907C413.783 32.6755 413.783 32.6603 413.783 32.6453C413.783 32.6303 413.783 32.6153 413.783 32.6005C413.783 32.5857 413.783 32.571 413.783 32.5564C413.783 32.5418 413.783 32.5273 413.783 32.5129C413.783 32.4985 413.783 32.4843 413.783 32.4701C413.783 32.4559 413.783 32.4419 413.783 32.4279C413.783 32.414 413.783 32.4001 413.783 32.3864C413.783 32.3727 413.783 32.3591 413.783 32.3456C413.783 32.332 413.783 32.3186 413.783 32.3054C413.783 32.2921 413.783 32.2789 413.783 32.2658C413.783 32.2528 413.783 32.2398 413.783 32.227C413.783 32.2141 413.783 32.2014 413.783 32.1888C413.783 32.1761 413.783 32.1636 413.783 32.1512C413.783 32.1388 413.783 32.1266 413.783 32.1144C413.783 32.1022 413.783 32.0902 413.783 32.0782C413.783 32.0663 413.783 32.0545 413.783 32.0427H409.783C409.783 32.0545 409.783 32.0663 409.783 32.0782C409.783 32.0902 409.783 32.1022 409.783 32.1144C409.783 32.1266 409.783 32.1388 409.783 32.1512C409.783 32.1636 409.783 32.1761 409.783 32.1888C409.783 32.2014 409.783 32.2141 409.783 32.227C409.783 32.2398 409.783 32.2528 409.783 32.2658C409.783 32.2789 409.783 32.2921 409.783 32.3054C409.783 32.3186 409.783 32.332 409.783 32.3456C409.783 32.3591 409.783 32.3727 409.783 32.3864C409.783 32.4001 409.783 32.414 409.783 32.4279C409.783 32.4419 409.783 32.4559 409.783 32.4701C409.783 32.4843 409.783 32.4985 409.783 32.5129C409.783 32.5273 409.783 32.5418 409.783 32.5564C409.783 32.571 409.783 32.5857 409.783 32.6005C409.783 32.6153 409.783 32.6303 409.783 32.6453C409.783 32.6603 409.783 32.6755 409.783 32.6907C409.783 32.7059 409.783 32.7213 409.783 32.7368C409.783 32.7522 409.783 32.7678 409.783 32.7834C409.783 32.7991 409.783 32.8149 409.783 32.8307C409.783 32.8466 409.783 32.8626 409.783 32.8787C409.783 32.8948 409.783 32.911 409.783 32.9273C409.783 32.9436 409.783 32.9599 409.783 32.9765C409.783 32.993 409.783 33.0096 409.783 33.0263C409.783 33.043 409.783 33.0598 409.783 33.0767C409.783 33.0936 409.783 33.1106 409.783 33.1277C409.783 33.1449 409.783 33.1621 409.783 33.1794C409.783 33.1967 409.783 33.2141 409.783 33.2317C409.783 33.2492 409.783 33.2668 409.783 33.2845C409.783 33.3023 409.783 33.3201 409.783 33.338C409.783 33.3559 409.783 33.374 409.783 33.3921C409.783 33.4102 409.783 33.4284 409.783 33.4468C409.783 33.4651 409.783 33.4835 409.783 33.502C409.783 33.5205 409.783 33.5392 409.783 33.5579C409.783 33.5766 409.783 33.5954 409.783 33.6143C409.783 33.6332 409.783 33.6522 409.783 33.6713C409.783 33.6904 409.783 33.7097 409.783 33.729C409.783 33.7483 409.783 33.7676 409.783 33.7871C409.783 33.8066 409.783 33.8262 409.783 33.8459C409.783 33.8656 409.783 33.8854 409.783 33.9052C409.783 33.9251 409.783 33.9451 409.783 33.9652C409.783 33.9852 409.783 34.0054 409.783 34.0256C409.783 34.0459 409.783 34.0662 409.783 34.0867C409.783 34.1071 409.783 34.1277 409.783 34.1483C409.783 34.1689 409.783 34.1896 409.783 34.2104C409.783 34.2313 409.783 34.2522 409.783 34.2732C409.783 34.2942 409.783 34.3152 409.783 34.3364C409.783 34.3576 409.783 34.3789 409.783 34.4002C409.783 34.4216 409.783 34.4431 409.783 34.4646C409.783 34.4862 409.783 34.5078 409.783 34.5295C409.783 34.5513 409.783 34.5731 409.783 34.595C409.783 34.6169 409.783 34.6389 409.783 34.661C409.783 34.6831 409.783 34.7052 409.783 34.7275C409.783 34.7498 409.783 34.7721 409.783 34.7945C409.783 34.817 409.783 34.8395 409.783 34.8621C409.783 34.8847 409.783 34.9075 409.783 34.9302C409.783 34.953 409.783 34.9759 409.783 34.9989C409.783 35.0218 409.783 35.0449 409.783 35.068C409.783 35.0912 409.783 35.1144 409.783 35.1377C409.783 35.161 409.783 35.1844 409.783 35.2079C409.783 35.2314 409.783 35.2549 409.783 35.2786C409.783 35.3022 409.783 35.326 409.783 35.3498C409.783 35.3736 409.783 35.3975 409.783 35.4215C409.783 35.4455 409.783 35.4696 409.783 35.4937C409.783 35.5179 409.783 35.5421 409.783 35.5664C409.783 35.5908 409.783 35.6152 409.783 35.6397C409.783 35.6641 409.783 35.6887 409.783 35.7134C409.783 35.738 409.783 35.7627 409.783 35.7876C409.783 35.8124 409.783 35.8373 409.783 35.8622C409.783 35.8872 409.783 35.9123 409.783 35.9374C409.783 35.9625 409.783 35.9878 409.783 36.0131C409.783 36.0384 409.783 36.0637 409.783 36.0892C409.783 36.1146 409.783 36.1402 409.783 36.1658C409.783 36.1914 409.783 36.2171 409.783 36.2429C409.783 36.2686 409.783 36.2945 409.783 36.3204C409.783 36.3464 409.783 36.3724 409.783 36.3984C409.783 36.4245 409.783 36.4507 409.783 36.4769C409.783 36.5032 409.783 36.5295 409.783 36.5559C409.783 36.5823 409.783 36.6087 409.783 36.6353C409.783 36.6618 409.783 36.6884 409.783 36.7151C409.783 36.7418 409.783 36.7686 409.783 36.7954C409.783 36.8223 409.783 36.8492 409.783 36.8762C409.783 36.9032 409.783 36.9303 409.783 36.9574C409.783 36.9845 409.783 37.0118 409.783 37.039C409.783 37.0663 409.783 37.0937 409.783 37.1211C409.783 37.1486 409.783 37.1761 409.783 37.2037C409.783 37.2312 409.783 37.2589 409.783 37.2866C409.783 37.3144 409.783 37.3422 409.783 37.37C409.783 37.3979 409.783 37.4258 409.783 37.4538C409.783 37.4819 409.783 37.5099 409.783 37.5381C409.783 37.5663 409.783 37.5945 409.783 37.6228C409.783 37.6511 409.783 37.6794 409.783 37.7079C409.783 37.7363 409.783 37.7648 409.783 37.7934C409.783 37.8219 409.783 37.8506 409.783 37.8793C409.783 37.908 409.783 37.9368 409.783 37.9656C409.783 37.9945 409.783 38.0234 409.783 38.0524C409.783 38.0814 409.783 38.1104 409.783 38.1395C409.783 38.1687 409.783 38.1978 409.783 38.2271C409.783 38.2563 409.783 38.2857 409.783 38.315C409.783 38.3444 409.783 38.3739 409.783 38.4034C409.783 38.4329 409.783 38.4625 409.783 38.4921C409.783 38.5218 409.783 38.5515 409.783 38.5813C409.783 38.611 409.783 38.6409 409.783 38.6708C409.783 38.7007 409.783 38.7307 409.783 38.7607C409.783 38.7907 409.783 38.8208 409.783 38.851C409.783 38.8811 409.783 38.9114 409.783 38.9416C409.783 38.9719 409.783 39.0023 409.783 39.0327C409.783 39.0631 409.783 39.0936 409.783 39.1241C409.783 39.1546 409.783 39.1852 409.783 39.2159C409.783 39.2465 409.783 39.2773 409.783 39.308C409.783 39.3388 409.783 39.3697 409.783 39.4006C409.783 39.4315 409.783 39.4624 409.783 39.4934C409.783 39.5245 409.783 39.5555 409.783 39.5867C409.783 39.6178 409.783 39.649 409.783 39.6803C409.783 39.7115 409.783 39.7428 409.783 39.7742C409.783 39.8056 409.783 39.837 409.783 39.8685C409.783 39.9 409.783 39.9315 409.783 39.9631C409.783 39.9948 409.783 40.0264 409.783 40.0581C409.783 40.0899 409.783 40.1216 409.783 40.1535C409.783 40.1853 409.783 40.2172 409.783 40.2491C409.783 40.2811 409.783 40.3131 409.783 40.3451C409.783 40.3772 409.783 40.4093 409.783 40.4414C409.783 40.4736 409.783 40.5058 409.783 40.5381C409.783 40.5704 409.783 40.6027 409.783 40.6351C409.783 40.6675 409.783 40.6999 409.783 40.7324C409.783 40.7649 409.783 40.7974 409.783 40.83C409.783 40.8626 409.783 40.8953 409.783 40.928C409.783 40.9607 409.783 40.9934 409.783 41.0262C409.783 41.059 409.783 41.0919 409.783 41.1248C409.783 41.1577 409.783 41.1907 409.783 41.2237C409.783 41.2567 409.783 41.2897 409.783 41.3229C409.783 41.356 409.783 41.3891 409.783 41.4223C409.783 41.4556 409.783 41.4888 409.783 41.5221C409.783 41.5554 409.783 41.5888 409.783 41.6222C409.783 41.6556 409.783 41.6891 409.783 41.7226C409.783 41.7561 409.783 41.7897 409.783 41.8233C409.783 41.8569 409.783 41.8905 409.783 41.9242C409.783 41.9579 409.783 41.9917 409.783 42.0254C409.783 42.0592 409.783 42.0931 409.783 42.127C409.783 42.1609 409.783 42.1948 409.783 42.2288C409.783 42.2627 409.783 42.2968 409.783 42.3308C409.783 42.3649 409.783 42.399 409.783 42.4332C409.783 42.4674 409.783 42.5016 409.783 42.5358C409.783 42.5701 409.783 42.6044 409.783 42.6387C409.783 42.673 409.783 42.7074 409.783 42.7418C409.783 42.7763 409.783 42.8107 409.783 42.8453C409.783 42.8798 409.783 42.9143 409.783 42.9489C409.783 42.9835 409.783 43.0182 409.783 43.0528C409.783 43.0875 409.783 43.1223 409.783 43.157C409.783 43.1918 409.783 43.2266 409.783 43.2614C409.783 43.2963 409.783 43.3312 409.783 43.3661C409.783 43.4011 409.783 43.436 409.783 43.471C409.783 43.506 409.783 43.5411 409.783 43.5762C409.783 43.6113 409.783 43.6464 409.783 43.6816C409.783 43.7168 409.783 43.752 409.783 43.7872C409.783 43.8225 409.783 43.8577 409.783 43.8931C409.783 43.9284 409.783 43.9638 409.783 43.9992C409.783 44.0346 409.783 44.07 409.783 44.1055C409.783 44.141 409.783 44.1765 409.783 44.212C409.783 44.2476 409.783 44.2832 409.783 44.3188C409.783 44.3544 409.783 44.3901 409.783 44.4257C409.783 44.4614 409.783 44.4972 409.783 44.5329C409.783 44.5687 409.783 44.6045 409.783 44.6403C409.783 44.6762 409.783 44.712 409.783 44.7479C409.783 44.7838 409.783 44.8198 409.783 44.8558C409.783 44.8917 409.783 44.9277 409.783 44.9638C409.783 44.9998 409.783 45.0359 409.783 45.072C409.783 45.1081 409.783 45.1442 409.783 45.1804C409.783 45.2166 409.783 45.2528 409.783 45.289C409.783 45.3252 409.783 45.3615 409.783 45.3978C409.783 45.4341 409.783 45.4704 409.783 45.5068C409.783 45.5431 409.783 45.5795 409.783 45.6159C409.783 45.6524 409.783 45.6888 409.783 45.7253C409.783 45.7618 409.783 45.7983 409.783 45.8348C409.783 45.8714 409.783 45.9079 409.783 45.9445C409.783 45.9811 409.783 46.0177 409.783 46.0544C409.783 46.0911 409.783 46.1277 409.783 46.1644C409.783 46.2012 409.783 46.2379 409.783 46.2747C409.783 46.3114 409.783 46.3482 409.783 46.385C409.783 46.4219 409.783 46.4587 409.783 46.4956C409.783 46.5324 409.783 46.5693 409.783 46.6063C409.783 46.6432 409.783 46.6801 409.783 46.7171C409.783 46.7541 409.783 46.7911 409.783 46.8281C409.783 46.8652 409.783 46.9022 409.783 46.9393C409.783 46.9764 409.783 47.0135 409.783 47.0506C409.783 47.0877 409.783 47.1249 409.783 47.162C409.783 47.1992 409.783 47.2364 409.783 47.2736C409.783 47.3108 409.783 47.3481 409.783 47.3853C409.783 47.4226 409.783 47.4599 409.783 47.4972C409.783 47.5345 409.783 47.5718 409.783 47.6092C409.783 47.6465 409.783 47.6839 409.783 47.7213C409.783 47.7587 409.783 47.7961 409.783 47.8335C409.783 47.871 409.783 47.9084 409.783 47.9459C409.783 47.9834 409.783 48.0209 409.783 48.0584C409.783 48.0959 409.783 48.1334 409.783 48.171C409.783 48.2085 409.783 48.2461 409.783 48.2837C409.783 48.3213 409.783 48.3589 409.783 48.3965C409.783 48.4341 409.783 48.4718 409.783 48.5094C409.783 48.5471 409.783 48.5848 409.783 48.6225C409.783 48.6602 409.783 48.6979 409.783 48.7356C409.783 48.7734 409.783 48.8111 409.783 48.8489C409.783 48.8866 409.783 48.9244 409.783 48.9622C409.783 49 409.783 49.0378 409.783 49.0756C409.783 49.1135 409.783 49.1513 409.783 49.1891C409.783 49.227 409.783 49.2649 409.783 49.3028C409.783 49.3406 409.783 49.3785 409.783 49.4164C409.783 49.4544 409.783 49.4923 409.783 49.5302C409.783 49.5682 409.783 49.6061 409.783 49.6441C409.783 49.682 409.783 49.72 409.783 49.758C409.783 49.796 409.783 49.834 409.783 49.872C409.783 49.91 409.783 49.948 409.783 49.9861C409.783 50.0241 409.783 50.0621 409.783 50.1002C409.783 50.1383 409.783 50.1763 409.783 50.2144C409.783 50.2525 409.783 50.2906 409.783 50.3287C409.783 50.3668 409.783 50.4049 409.783 50.443C409.783 50.4811 409.783 50.5192 409.783 50.5574C409.783 50.5955 409.783 50.6336 409.783 50.6718C409.783 50.7099 409.783 50.7481 409.783 50.7863C409.783 50.8244 409.783 50.8626 409.783 50.9008C409.783 50.939 409.783 50.9772 409.783 51.0154C409.783 51.0535 409.783 51.0917 409.783 51.13C409.783 51.1682 409.783 51.2064 409.783 51.2446C409.783 51.2828 409.783 51.321 409.783 51.3593C409.783 51.3975 409.783 51.4357 409.783 51.474C409.783 51.5122 409.783 51.5505 409.783 51.5887C409.783 51.627 409.783 51.6652 409.783 51.7035C409.783 51.7417 409.783 51.78 409.783 51.8183C409.783 51.8565 409.783 51.8948 409.783 51.9331C409.783 51.9714 409.783 52.0096 409.783 52.0479C409.783 52.0862 409.783 52.1245 409.783 52.1627C409.783 52.201 409.783 52.2393 409.783 52.2776C409.783 52.3159 409.783 52.3542 409.783 52.3924C409.783 52.4307 409.783 52.469 409.783 52.5073C409.783 52.5456 409.783 52.5839 409.783 52.6222C409.783 52.6604 409.783 52.6987 409.783 52.737C409.783 52.7753 409.783 52.8136 409.783 52.8519C409.783 52.8902 409.783 52.9284 409.783 52.9667C409.783 53.005 409.783 53.0433 409.783 53.0816C409.783 53.1198 409.783 53.1581 409.783 53.1964C409.783 53.2347 409.783 53.2729 409.783 53.3112C409.783 53.3495 409.783 53.3877 409.783 53.426C409.783 53.4643 409.783 53.5025 409.783 53.5408C409.783 53.579 409.783 53.6173 409.783 53.6555C409.783 53.6938 409.783 53.732 409.783 53.7702C409.783 53.8085 409.783 53.8467 409.783 53.8849C409.783 53.9232 409.783 53.9614 409.783 53.9996C409.783 54.0378 409.783 54.076 409.783 54.1142C409.783 54.1524 409.783 54.1906 409.783 54.2288C409.783 54.267 409.783 54.3052 409.783 54.3433C409.783 54.3815 409.783 54.4197 409.783 54.4578C409.783 54.496 409.783 54.5341 409.783 54.5723C409.783 54.6104 409.783 54.6485 409.783 54.6867C409.783 54.7248 409.783 54.7629 409.783 54.801C409.783 54.8391 409.783 54.8772 409.783 54.9153C409.783 54.9534 409.783 54.9914 409.783 55.0295C409.783 55.0676 409.783 55.1056 409.783 55.1437C409.783 55.1817 409.783 55.2198 409.783 55.2578C409.783 55.2958 409.783 55.3338 409.783 55.3718C409.783 55.4098 409.783 55.4478 409.783 55.4858C409.783 55.5237 409.783 55.5617 409.783 55.5996C409.783 55.6376 409.783 55.6755 409.783 55.7134C409.783 55.7514 409.783 55.7893 409.783 55.8272C409.783 55.8651 409.783 55.9029 409.783 55.9408C409.783 55.9787 409.783 56.0165 409.783 56.0544C409.783 56.0922 409.783 56.13 409.783 56.1678C409.783 56.2056 409.783 56.2434 409.783 56.2812C409.783 56.319 409.783 56.3567 409.783 56.3945C409.783 56.4322 409.783 56.4699 409.783 56.5076C409.783 56.5454 409.783 56.5831 409.783 56.6207C409.783 56.6584 409.783 56.6961 409.783 56.7337C409.783 56.7713 409.783 56.809 409.783 56.8466C409.783 56.8842 409.783 56.9218 409.783 56.9593C409.783 56.9969 409.783 57.0344 409.783 57.072C409.783 57.1095 409.783 57.147 409.783 57.1845C409.783 57.222 409.783 57.2595 409.783 57.2969C409.783 57.3344 409.783 57.3718 409.783 57.4092C409.783 57.4466 409.783 57.484 409.783 57.5214C409.783 57.5587 409.783 57.5961 409.783 57.6334C409.783 57.6707 409.783 57.708 409.783 57.7453C409.783 57.7826 409.783 57.8198 409.783 57.8571C409.783 57.8943 409.783 57.9315 409.783 57.9687C409.783 58.0059 409.783 58.0431 409.783 58.0802C409.783 58.1173 409.783 58.1545 409.783 58.1916C409.783 58.2287 409.783 58.2657 409.783 58.3028C409.783 58.3398 409.783 58.3768 409.783 58.4138C409.783 58.4508 409.783 58.4878 409.783 58.5247C409.783 58.5617 409.783 58.5986 409.783 58.6355C409.783 58.6724 409.783 58.7093 409.783 58.7461C409.783 58.7829 409.783 58.8197 409.783 58.8565C409.783 58.8933 409.783 58.9301 409.783 58.9668C409.783 59.0035 409.783 59.0402 409.783 59.0769C409.783 59.1136 409.783 59.1502 409.783 59.1869C409.783 59.2235 409.783 59.2601 409.783 59.2966C409.783 59.3332 409.783 59.3697 409.783 59.4062C409.783 59.4427 409.783 59.4792 409.783 59.5156C409.783 59.5521 409.783 59.5885 409.783 59.6249C409.783 59.6613 409.783 59.6976 409.783 59.7339C409.783 59.7703 409.783 59.8065 409.783 59.8428C409.783 59.8791 409.783 59.9153 409.783 59.9515C409.783 59.9877 409.783 60.0238 409.783 60.06C409.783 60.0961 409.783 60.1322 409.783 60.1683C409.783 60.2043 409.783 60.2404 409.783 60.2763C409.783 60.3123 409.783 60.3483 409.783 60.3842C409.783 60.4202 409.783 60.4561 409.783 60.4919C409.783 60.5278 409.783 60.5636 409.783 60.5994C409.783 60.6352 409.783 60.671 409.783 60.7067C409.783 60.7424 409.783 60.7781 409.783 60.8137C409.783 60.8494 409.783 60.885 409.783 60.9206C409.783 60.9562 409.783 60.9917 409.783 61.0272C409.783 61.0627 409.783 61.0982 409.783 61.1336C409.783 61.169 409.783 61.2044 409.783 61.2398C409.783 61.2751 409.783 61.3104 409.783 61.3457C409.783 61.381 409.783 61.4162 409.783 61.4514C409.783 61.4866 409.783 61.5218 409.783 61.5569C409.783 61.592 409.783 61.6271 409.783 61.6622C409.783 61.6972 409.783 61.7322 409.783 61.7672C409.783 61.8021 409.783 61.8371 409.783 61.8719C409.783 61.9068 409.783 61.9417 409.783 61.9765C409.783 62.0113 409.783 62.046 409.783 62.0807C409.783 62.1155 409.783 62.1501 409.783 62.1848C409.783 62.2194 409.783 62.254 409.783 62.2885C409.783 62.3231 409.783 62.3576 409.783 62.392C409.783 62.4265 409.783 62.4609 409.783 62.4953C409.783 62.5297 409.783 62.564 409.783 62.5983C409.783 62.6326 409.783 62.6668 409.783 62.701C409.783 62.7352 409.783 62.7693 409.783 62.8034C409.783 62.8375 409.783 62.8716 409.783 62.9056C409.783 62.9396 409.783 62.9736 409.783 63.0075C409.783 63.0415 409.783 63.0753 409.783 63.1092C409.783 63.143 409.783 63.1768 409.783 63.2105C409.783 63.2442 409.783 63.2779 409.783 63.3116C409.783 63.3452 409.783 63.3788 409.783 63.4123C409.783 63.4459 409.783 63.4794 409.783 63.5128C409.783 63.5463 409.783 63.5797 409.783 63.613C409.783 63.6464 409.783 63.6797 409.783 63.7129C409.783 63.7462 409.783 63.7794 409.783 63.8125C409.783 63.8457 409.783 63.8788 409.783 63.9118C409.783 63.9449 409.783 63.9779 409.783 64.0108C409.783 64.0438 409.783 64.0767 409.783 64.1095C409.783 64.1424 409.783 64.1751 409.783 64.2079C409.783 64.2406 409.783 64.2733 409.783 64.306C409.783 64.3386 409.783 64.3712 409.783 64.4037C409.783 64.4362 409.783 64.4687 409.783 64.5011C409.783 64.5336 409.783 64.5659 409.783 64.5982C409.783 64.6306 409.783 64.6628 409.783 64.695C409.783 64.7272 409.783 64.7594 409.783 64.7915C409.783 64.8236 409.783 64.8556 409.783 64.8876C409.783 64.9196 409.783 64.9515 409.783 64.9834C409.783 65.0153 409.783 65.0471 409.783 65.0789C409.783 65.1106 409.783 65.1423 409.783 65.174C409.783 65.2056 409.783 65.2372 409.783 65.2687C409.783 65.3003 409.783 65.3318 409.783 65.3632C409.783 65.3946 409.783 65.4259 409.783 65.4572C409.783 65.4885 409.783 65.5198 409.783 65.551C409.783 65.5822 409.783 65.6133 409.783 65.6443C409.783 65.6754 409.783 65.7064 409.783 65.7374C409.783 65.7683 409.783 65.7992 409.783 65.83C409.783 65.8608 409.783 65.8916 409.783 65.9223C409.783 65.953 409.783 65.9837 409.783 66.0142C409.783 66.0448 409.783 66.0753 409.783 66.1058C409.783 66.1363 409.783 66.1667 409.783 66.197C409.783 66.2273 409.783 66.2576 409.783 66.2878C409.783 66.318 409.783 66.3482 409.783 66.3782C409.783 66.4083 409.783 66.4383 409.783 66.4683C409.783 66.4982 409.783 66.5281 409.783 66.558C409.783 66.5878 409.783 66.6175 409.783 66.6472C409.783 66.6769 409.783 66.7066 409.783 66.7361C409.783 66.7657 409.783 66.7952 409.783 66.8246C409.783 66.8541 409.783 66.8834 409.783 66.9127C409.783 66.942 409.783 66.9713 409.783 67.0004C409.783 67.0296 409.783 67.0587 409.783 67.0877C409.783 67.1168 409.783 67.1457 409.783 67.1746C409.783 67.2035 409.783 67.2324 409.783 67.2611C409.783 67.2899 409.783 67.3186 409.783 67.3472C409.783 67.3758 409.783 67.4044 409.783 67.4329C409.783 67.4614 409.783 67.4898 409.783 67.5181C409.783 67.5465 409.783 67.5748 409.783 67.603C409.783 67.6312 409.783 67.6593 409.783 67.6874C409.783 67.7155 409.783 67.7435 409.783 67.7714C409.783 67.7993 409.783 67.8272 409.783 67.8549C409.783 67.8827 409.783 67.9104 409.783 67.9381C409.783 67.9657 409.783 67.9933 409.783 68.0208C409.783 68.0483 409.783 68.0757 409.783 68.103C409.783 68.1304 409.783 68.1576 409.783 68.1848C409.783 68.212 409.783 68.2392 409.783 68.2662C409.783 68.2933 409.783 68.3202 409.783 68.3471C409.783 68.374 409.783 68.4009 409.783 68.4276C409.783 68.4544 409.783 68.4811 409.783 68.5077C409.783 68.5343 409.783 68.5608 409.783 68.5872C409.783 68.6137 409.783 68.6401 409.783 68.6664C409.783 68.6927 409.783 68.7189 409.783 68.745C409.783 68.7712 409.783 68.7972 409.783 68.8232C409.783 68.8492 409.783 68.8751 409.783 68.9009C409.783 68.9268 409.783 68.9525 409.783 68.9782C409.783 69.0039 409.783 69.0295 409.783 69.055C409.783 69.0805 409.783 69.1059 409.783 69.1313C409.783 69.1567 409.783 69.1819 409.783 69.2071C409.783 69.2323 409.783 69.2575 409.783 69.2825C409.783 69.3075 409.783 69.3325 409.783 69.3574C409.783 69.3822 409.783 69.407 409.783 69.4317C409.783 69.4565 409.783 69.4811 409.783 69.5056C409.783 69.5302 409.783 69.5547 409.783 69.579C409.783 69.6034 409.783 69.6277 409.783 69.6519C409.783 69.6762 409.783 69.7003 409.783 69.7244C409.783 69.7484 409.783 69.7724 409.783 69.7963C409.783 69.8201 409.783 69.8439 409.783 69.8677C409.783 69.8914 409.783 69.915 409.783 69.9386C409.783 69.9621 409.783 69.9856 409.783 70.0089C409.783 70.0323 409.783 70.0556 409.783 70.0788C409.783 70.102 409.783 70.1251 409.783 70.1482C409.783 70.1712 409.783 70.1941 409.783 70.217C409.783 70.2399 409.783 70.2626 409.783 70.2853C409.783 70.308 409.783 70.3306 409.783 70.3531C409.783 70.3756 409.783 70.398 409.783 70.4204C409.783 70.4427 409.783 70.4649 409.783 70.4871C409.783 70.5092 409.783 70.5313 409.783 70.5533C409.783 70.5753 409.783 70.5971 409.783 70.6189C409.783 70.6407 409.783 70.6624 409.783 70.6841C409.783 70.7057 409.783 70.7272 409.783 70.7486C409.783 70.7701 409.783 70.7914 409.783 70.8127C409.783 70.8339 409.783 70.8551 409.783 70.8761C409.783 70.8972 409.783 70.9182 409.783 70.9391C409.783 70.96 409.783 70.9807 409.783 71.0014C409.783 71.0221 409.783 71.0427 409.783 71.0633C409.783 71.0838 409.783 71.1042 409.783 71.1245C409.783 71.1448 409.783 71.1651 409.783 71.1852C409.783 71.2053 409.783 71.2254 409.783 71.2453C409.783 71.2653 409.783 71.2851 409.783 71.3049C409.783 71.3247 409.783 71.3443 409.783 71.3639C409.783 71.3834 409.783 71.4029 409.783 71.4223C409.783 71.4417 409.783 71.4609 409.783 71.4801C409.783 71.4993 409.783 71.5184 409.783 71.5374C409.783 71.5564 409.783 71.5753 409.783 71.594C409.783 71.6128 409.783 71.6315 409.783 71.6501C409.783 71.6687 409.783 71.6872 409.783 71.7056C409.783 71.724 409.783 71.7423 409.783 71.7605C409.783 71.7787 409.783 71.7968 409.783 71.8148C409.783 71.8328 409.783 71.8507 409.783 71.8685C409.783 71.8863 409.783 71.904 409.783 71.9216C409.783 71.9392 409.783 71.9567 409.783 71.9741C409.783 71.9915 409.783 72.0088 409.783 72.026C409.783 72.0432 409.783 72.0603 409.783 72.0773C409.783 72.0943 409.783 72.1112 409.783 72.128C409.783 72.1447 409.783 72.1614 409.783 72.178C409.783 72.1946 409.783 72.2111 409.783 72.2274C409.783 72.2438 409.783 72.2601 409.783 72.2762C409.783 72.2924 409.783 72.3085 409.783 72.3244C409.783 72.3404 409.783 72.3562 409.783 72.372C409.783 72.3877 409.783 72.4034 409.783 72.4189C409.783 72.4344 409.783 72.4499 409.783 72.4652C409.783 72.4805 409.783 72.4957 409.783 72.5109C409.783 72.526 409.783 72.541 409.783 72.5559C409.783 72.5708 409.783 72.5856 409.783 72.6002C409.783 72.6149 409.783 72.6295 409.783 72.644C409.783 72.6584 409.783 72.6728 409.783 72.687C409.783 72.7013 409.783 72.7154 409.783 72.7295C409.783 72.7435 409.783 72.7574 409.783 72.7712C409.783 72.785 409.783 72.7988 409.783 72.8123C409.783 72.8259 409.783 72.8394 409.783 72.8528C409.783 72.8662 409.783 72.8794 409.783 72.8926C409.783 72.9057 409.783 72.9188 409.783 72.9317C409.783 72.9446 409.783 72.9575 409.783 72.9702C409.783 72.9829 409.783 72.9955 409.783 73.0079C409.783 73.0204 409.783 73.0328 409.783 73.045C409.783 73.0573 409.783 73.0694 409.783 73.0815C409.783 73.0935 409.783 73.1054 409.783 73.1172C409.783 73.129 409.783 73.1407 409.783 73.1523C409.783 73.1639 409.783 73.1753 409.783 73.1867C409.783 73.198 409.783 73.2092 409.783 73.2203C409.783 73.2314 409.783 73.2424 409.783 73.2533C409.783 73.2642 409.783 73.275 409.783 73.2856C409.783 73.2963 409.783 73.3068 409.783 73.3172C409.783 73.3276 409.783 73.3379 409.783 73.3481C409.783 73.3583 409.783 73.3684 409.783 73.3783C409.783 73.3883 409.783 73.3981 409.783 73.4078C409.783 73.4175 409.783 73.4271 409.783 73.4366C409.783 73.446 409.783 73.4554 409.783 73.4646C409.783 73.4739 409.783 73.483 409.783 73.492C409.783 73.501 409.783 73.5098 409.783 73.5186C409.783 73.5273 409.783 73.536 409.783 73.5445C409.783 73.553 409.783 73.5614 409.783 73.5697C409.783 73.5779 409.783 73.5861 409.783 73.5941C409.783 73.6021 409.783 73.61 409.783 73.6178C409.783 73.6256 409.783 73.6333 409.783 73.6408C409.783 73.6483 409.783 73.6558 409.783 73.663C409.783 73.6703 409.783 73.6775 409.783 73.6846C409.783 73.6916 409.783 73.6985 409.783 73.7053C409.783 73.7121 409.783 73.7188 409.783 73.7253C409.783 73.7319 409.783 73.7383 409.783 73.7446C409.783 73.7509 409.783 73.7571 409.783 73.7631C409.783 73.7692 409.783 73.7751 409.783 73.7809C409.783 73.7867 409.783 73.7923 409.783 73.7979C409.783 73.8034 409.783 73.8088 409.783 73.8141C409.783 73.8194 409.783 73.8246 409.783 73.8296C409.783 73.8346 409.783 73.8395 409.783 73.8443C409.783 73.8491 409.783 73.8537 409.783 73.8582C409.783 73.8628 409.783 73.8672 409.783 73.8714C409.783 73.8757 409.783 73.8798 409.783 73.8838C409.783 73.8878 409.783 73.8917 409.783 73.8954C409.783 73.8992 409.783 73.9028 409.783 73.9063C409.783 73.9097 409.783 73.9131 409.783 73.9163C409.783 73.9195 409.783 73.9226 409.783 73.9256C409.783 73.9285 409.783 73.9314 409.783 73.9341C409.783 73.9367 409.783 73.9393 409.783 73.9417C409.783 73.9442 409.783 73.9465 409.783 73.9486C409.783 73.9508 409.783 73.9528 409.783 73.9547C409.783 73.9566 409.783 73.9584 409.783 73.96C409.783 73.9616 409.783 73.9631 409.783 73.9645C409.783 73.9658 409.783 73.967 409.783 73.9681C409.783 73.9692 409.783 73.9702 409.783 73.971C409.783 73.9718 409.783 73.9725 409.783 73.973C409.783 73.9736 409.783 73.974 409.783 73.9743C409.783 73.9745 409.783 73.9747 411.783 73.9747ZM411.944 34.0363C421.225 33.2867 430.738 32.5615 442.037 34.5094L442.717 30.5675C430.87 28.5253 420.906 29.2994 411.622 30.0492L411.944 34.0363ZM30.5882 54.1194L46.8488 74.0388L49.9475 71.5093L33.6869 51.5899L30.5882 54.1194ZM46.8488 74.0388L63.1095 93.9582L66.2081 91.4287L49.9475 71.5093L46.8488 74.0388ZM6.28864 12.3469V24.0405H10.2886V12.3469H6.28864ZM33.6783 51.5795L9.82935 22.7653L6.74792 25.3158L30.5968 54.1299L33.6783 51.5795ZM6.28864 49.38V72.5219H10.2886V49.38H6.28864ZM33.7529 92.8029L33.9664 76.6284L29.9668 76.5756L29.7532 92.7501L33.7529 92.8029ZM6.77961 50.6926L30.4576 77.9146L33.4756 75.2895L9.79766 48.0674L6.77961 50.6926ZM289.196 98.3112V78.2528H285.196V98.3112H289.196ZM320.465 97.2169L307.353 77.1586L304.005 79.3471L317.116 99.4054L320.465 97.2169ZM518.895 102.01L511.898 119.283L515.605 120.785L522.602 103.512L518.895 102.01ZM606.979 20.4587C608.021 18.7516 608.02 18.751 608.019 18.7504C608.019 18.7502 608.018 18.7496 608.017 18.7492C608.016 18.7484 608.014 18.7476 608.013 18.7467C608.01 18.7451 608.008 18.7434 608.005 18.7416C607.999 18.7381 607.992 18.7344 607.986 18.7305C607.972 18.7227 607.957 18.7139 607.94 18.7043C607.906 18.685 607.864 18.6616 607.811 18.6335C607.706 18.5776 607.557 18.5014 607.349 18.4007C606.932 18.1999 606.266 17.8953 605.219 17.4537C603.126 16.5708 599.479 15.1253 593.208 12.8479L591.842 16.6076C598.077 18.872 601.656 20.292 603.664 21.1391C604.668 21.5625 605.27 21.8391 605.61 22.0031C605.78 22.085 605.88 22.1371 605.931 22.1639C605.956 22.1773 605.967 22.1838 605.968 22.1842C605.968 22.1844 605.966 22.1829 605.96 22.1798C605.958 22.1783 605.955 22.1764 605.951 22.1741C605.949 22.1729 605.947 22.1716 605.944 22.1703C605.943 22.1696 605.942 22.1689 605.941 22.1681C605.94 22.1678 605.939 22.1672 605.939 22.167C605.938 22.1664 605.937 22.1659 606.979 20.4587ZM605.193 19.558L595.798 38.1836L599.37 39.985L608.765 21.3594L605.193 19.558Z" fill="#201510" mask="url(#path-1-inside-1_14_186)"/>
<path fill-rule="evenodd" clip-rule="evenodd" d="M0 61.4703V121.645H11.54H23.0814L23.4644 81.725L23.678 65.5505L0 38.3285V61.4703ZM40.1095 61.7225L23.8489 41.8031L0 12.989V1.29533L9.75637 1.32685L19.5127 1.35837L52.034 41.0639L84.5552 80.7693L84.9397 41.0323L85.3242 1.29533H96.8642H108.404V61.4703V121.645L98.6478 121.562L88.8914 121.479L56.3702 81.6419L40.1095 61.7225ZM140.203 61.4703V121.645H186.455H232.708V112.333V103.02H198.018H163.329V86.5433V70.0668H192.959H222.59V60.754V51.4412H192.959H163.329V35.6811V19.9209H196.573H229.817V10.6081V1.29533H185.01H140.203V61.4703ZM257.279 61.4703V121.645H268.842H278.907V104.452V87.2596V67.2013V43.3706V19.5413H297.391C312.252 20.0728 317.643 20.9436 322.131 23.2403C330.206 27.3708 333.832 34.4475 333.832 43.4365C333.832 53.3997 330.123 59.9588 322.217 63.9776C316.616 66.8245 313.716 67.2013 297.391 67.2013L310.502 87.2596L322.529 104.438L334.555 121.618L346.479 121.631C353.038 121.64 358.403 121.264 358.403 120.799C358.403 120.334 352.48 111.59 345.242 101.371C338.003 91.1495 332.311 82.6161 332.595 82.4069C332.878 82.1978 335.386 80.6705 338.168 79.0128C350.953 71.3964 355.23 59.4234 355.414 44.2775C355.572 31.1873 352.947 21.5371 343.224 13.0538C331.693 2.99169 323.535 1.29533 286.705 1.29533H257.279V61.4703ZM381.53 61.5792V121.863H412.027C429.252 122.37 444.82 120.575 451.773 117.786C479.439 106.686 489.338 86.9229 487.924 57.6234C487.422 47.2089 486.506 43.233 482.793 35.3687C475.095 19.0627 464.536 8.39742 445.306 3.43298C439.14 1.84121 433.012 1.29533 408.477 1.29533H381.53V61.5792ZM434.088 21.4869C442.792 22.9873 447.655 24.5806 454.728 30.7371C463.738 38.5771 467.204 45.9108 467.209 61.4703C467.213 76.474 464.512 81.9766 456.227 90.712C446.924 100.519 430.566 103.392 413.095 102.72C409.919 102.598 403.494 101.957 403.494 101.957V62.9231C403.494 62.9231 403.494 26.9887 403.494 20.9912C412.777 20.2415 422.515 19.4918 434.088 21.4869Z" fill="#201510"/>
<path d="M532.872 2.78681C501.427 13.9536 497.963 51.7564 527.238 64.2398C531.251 65.9505 542.056 69.2472 551.248 71.564C568.11 75.8149 576.721 79.7148 578.312 83.8239C586.228 104.276 549.893 111.807 520.203 95.8675L512.46 91.7097L505.463 108.982C505.463 108.982 523.834 119.748 533.907 121.69C538.831 122.638 549.537 123.165 557.773 122.863C570.517 122.395 573.921 121.727 580.966 118.311C599.006 109.562 606.942 91.075 599.568 74.9796C594.305 63.4919 584.907 58.6923 550.27 49.795C531.127 44.8778 525.003 36.098 533.628 25.937C541.496 16.6672 566.2 16.0554 583.08 24.712C585.626 26.0172 589.295 28.0328 589.295 28.0328L598.69 9.40716C598.69 9.40716 596.742 8.21798 584.237 3.6762C571.731 -0.865584 544.214 -1.24205 532.872 2.78681Z" fill="#201510"/>
</svg>
