<?xml version="1.0" encoding="utf-8"?>
<!-- Generator: Adobe Illustrator 26.4.1, SVG Export Plug-In . SVG Version: 6.00 Build 0)  -->
<svg version="1.1" id="Слой_1" xmlns="http://www.w3.org/2000/svg" xmlns:xlink="http://www.w3.org/1999/xlink" x="0px" y="0px"
	 viewBox="0 0 181.3 189" style="enable-background:new 0 0 181.3 189;" xml:space="preserve">
<style type="text/css">
	.st0{fill:#3CA3D2;}
</style>
<path class="st0" d="M13.6,157.2c-3.6,0-6.8-1.2-9.5-3.5c-2.7-2.4-4.1-5.1-4.1-8.2v-102c0-3.1,1.4-5.9,4.1-8.2
	c2.7-2.4,5.9-3.5,9.5-3.5h154.1c3.6,0,6.8,1.2,9.5,3.5c2.7,2.4,4.1,5.1,4.1,8.2v102c0,3.1-1.4,5.9-4.1,8.2c-2.7,2.4-5.9,3.5-9.5,3.5
	H13.6z M13.6,145.4h154.1V59.9H13.6V145.4z M63.7,102.6L44.9,86.4c-1.4-1.2-2-2.6-1.9-4.1c0.1-1.6,0.8-2.9,2.2-4.1s2.9-1.8,4.8-1.8
	c1.8,0,3.4,0.6,4.8,1.8l23.6,20.4c1.4,1.2,2,2.6,2,4.1c0,1.6-0.7,2.9-2,4.1l-23.6,20.4c-1.4,1.2-2.9,1.8-4.8,1.8
	c-1.8,0-3.4-0.6-4.8-1.8c-1.4-1.2-2-2.6-2-4.1c0-1.6,0.7-2.9,2-4.1L63.7,102.6z M99.7,132.1c-2,0-3.6-0.6-4.9-1.7
	c-1.3-1.1-1.9-2.5-1.9-4.2c0-1.7,0.6-3.1,1.9-4.2c1.3-1.1,2.9-1.7,4.9-1.7h36.3c2,0,3.6,0.6,4.9,1.7c1.3,1.1,1.9,2.5,1.9,4.2
	c0,1.7-0.6,3.1-1.9,4.2c-1.3,1.1-2.9,1.7-4.9,1.7H99.7z"/>
</svg>
